SplineFontDB: 3.0
FontName: Belisa
FullName: Belisa
FamilyName: Belisa
Weight: Book
Copyright: Version 1.00 February 7, 2006, initial release
Version: 1.100
ItalicAngle: 0
UnderlinePosition: -142
UnderlineWidth: 150
Ascent: 1638
Descent: 410
sfntRevision: 0x0001199a
LayerCount: 2
Layer: 0 1 "Back"  1
Layer: 1 1 "Fore"  0
XUID: [1021 210 879221529 937080]
FSType: 8
OS2Version: 3
OS2_WeightWidthSlopeOnly: 0
OS2_UseTypoMetrics: 1
CreationTime: 1139322770
ModificationTime: 1398452102
PfmFamily: 17
TTFWeight: 400
TTFWidth: 5
LineGap: 67
VLineGap: 0
Panose: 2 0 0 0 0 0 0 0 0 0
OS2TypoAscent: 1491
OS2TypoAOffset: 0
OS2TypoDescent: -431
OS2TypoDOffset: 0
OS2TypoLinegap: 307
OS2WinAscent: 2200
OS2WinAOffset: 0
OS2WinDescent: 416
OS2WinDOffset: 0
HheadAscent: 1854
HheadAOffset: 0
HheadDescent: -434
HheadDOffset: 0
OS2SubXSize: 1434
OS2SubYSize: 1331
OS2SubXOff: 0
OS2SubYOff: 283
OS2SupXSize: 1434
OS2SupYSize: 1331
OS2SupXOff: 0
OS2SupYOff: 977
OS2StrikeYSize: 102
OS2StrikeYPos: 530
OS2Vendor: 'HL  '
OS2CodePages: 6000019f.dff70000
OS2UnicodeRanges: a00002af.500078fb.00000000.00000000
Lookup: 258 0 0 "Pairwise Positioning (kerning) lookup 0"  {"Pairwise Positioning (kerning) lookup 0-1" [307,30,0] } ['    ' ('DFLT' <'dflt' > 'cyrl' <'dflt' > 'grek' <'dflt' > 'latn' <'dflt' > ) ]
MarkAttachClasses: 1
DEI: 91125
ShortTable: maxp 16
  1
  0
  660
  131
  7
  0
  0
  0
  0
  0
  0
  0
  0
  0
  0
  0
EndShort
LangName: 1033 "" "" "Regular" "FontForge 2.0 : Belisa : 28-9-2013" "" "Version 1.100" "" "" "" "" "This font was created using Font Creator 5.0 from High-Logic.com" "" "" "" "" "" "" "" "" "+AQQBBQAA-AaIi+AS4BLwAA" 
LangName: 1063 "" "Belisa plumilla manual" "Regular" "" "Belisa plumilla manual 1.1" 
GaspTable: 1 65535 2 1
Encoding: UnicodeBmp
UnicodeInterp: none
NameList: Adobe Glyph List
DisplaySize: -72
AntiAlias: 1
FitToEm: 1
WinInfo: 0 18 7
Grid
495.798 2662 m 0
 495.798 -1434 l 0
EndSplineSet
BeginChars: 65548 661

StartChar: .notdef
Encoding: 65536 -1 0
Width: 1104
Flags: W
LayerCount: 2
Fore
SplineSet
40 0 m 1,0,-1
 40 1280 l 1,1,-1
 1064 1280 l 1,2,-1
 1064 0 l 1,3,-1
 40 0 l 1,0,-1
72 32 m 1,4,-1
 1032 32 l 1,5,-1
 1032 1248 l 1,6,-1
 72 1248 l 1,7,-1
 72 32 l 1,4,-1
EndSplineSet
EndChar

StartChar: exclam
Encoding: 33 33 4
Width: 296
GlyphClass: 2
Flags: W
LayerCount: 2
Fore
SplineSet
119 1425 m 0,0,1
 230 1420 230 1420 225 1309 c 1,2,-1
 256 1275 l 1,3,4
 255 1262 255 1262 236 1263 c 1,5,-1
 235 1237 l 1,6,7
 157 472 157 472 150 313 c 1,8,-1
 143 306 l 1,9,-1
 124 307 l 2,10,11
 78 309 78 309 40 1265 c 1,12,13
 56 1427 56 1427 119 1425 c 0,0,1
100 367 m 1,14,-1
 100 360 l 1,15,-1
 86 348 l 1,16,-1
 80 355 l 1,17,-1
 80 361 l 1,18,-1
 87 368 l 1,19,-1
 100 367 l 1,14,-1
219 251 m 1,20,-1
 226 251 l 1,21,-1
 245 230 l 1,22,-1
 244 224 l 1,23,24
 244 209 244 209 211 205 c 1,25,-1
 199 226 l 1,26,-1
 199 232 l 1,27,-1
 219 251 l 1,20,-1
146 221 m 1,28,29
 237 202 237 202 234 133 c 2,30,-1
 233 107 l 1,31,32
 218 -3 218 -3 137 0 c 1,33,34
 53 36 53 36 56 94 c 1,35,-1
 57 127 l 1,36,37
 74 224 74 224 146 221 c 1,28,29
EndSplineSet
EndChar

StartChar: quotedbl
Encoding: 34 34 5
Width: 506
GlyphClass: 2
Flags: W
LayerCount: 2
Fore
SplineSet
124 1843 m 1,0,-1
 141 1843 l 2,1,2
 224 1843 224 1843 234 1716 c 1,3,4
 197 1438 197 1438 150 1438 c 2,5,-1
 124 1438 l 1,6,7
 40 1530 40 1530 40 1708 c 0,8,9
 40 1776 40 1776 124 1843 c 1,0,-1
356 1843 m 1,10,-1
 373 1843 l 2,11,12
 456 1843 456 1843 466 1716 c 1,13,14
 429 1438 429 1438 382 1438 c 2,15,-1
 356 1438 l 1,16,17
 272 1530 272 1530 272 1708 c 0,18,19
 272 1776 272 1776 356 1843 c 1,10,-1
EndSplineSet
EndChar

StartChar: ampersand
Encoding: 38 38 8
Width: 80
GlyphClass: 2
Flags: W
LayerCount: 2
Fore
SplineSet
-420 663 m 1,0,-1
 -528 597 l 1,1,-1
 -558 501 l 1,2,-1
 -523 387 l 1,3,-1
 -444 339 l 1,4,-1
 -402 357 l 1,5,-1
 -360 297 l 1,6,-1
 -278 327 l 1,7,-1
 -258 363 l 1,8,-1
 -420 663 l 1,0,-1
-273 1247 m 1,9,-1
 -328 1352 l 1,10,-1
 -408 1392 l 1,11,-1
 -538 1307 l 1,12,-1
 -523 1167 l 1,13,-1
 -453 972 l 1,14,-1
 -408 907 l 1,15,-1
 -373 787 l 1,16,-1
 -333 697 l 1,17,-1
 -288 602 l 1,18,-1
 -233 462 l 1,19,-1
 -198 392 l 1,20,-1
 -198 392 l 1,21,-1
 -148 432 l 1,22,-1
 -93 402 l 1,23,-1
 -148 322 l 1,24,-1
 -78 282 l 1,25,-1
 -144 255 l 1,26,-1
 -193 282 l 1,27,-1
 -248 252 l 1,28,-1
 -378 232 l 1,29,-1
 -453 237 l 1,30,-1
 -533 277 l 1,31,-1
 -588 337 l 1,32,-1
 -638 432 l 1,33,-1
 -643 517 l 1,34,-1
 -598 597 l 1,35,-1
 -498 717 l 1,36,-1
 -468 825 l 1,37,-1
 -516 921 l 1,38,-1
 -576 1023 l 1,39,-1
 -612 1107 l 1,40,-1
 -630 1209 l 1,41,-1
 -606 1329 l 1,42,-1
 -543 1407 l 1,43,-1
 -448 1452 l 1,44,-1
 -378 1487 l 1,45,-1
 -258 1392 l 1,46,-1
 -218 1242 l 1,47,-1
 -273 1247 l 1,9,-1
EndSplineSet
EndChar

StartChar: quotesingle
Encoding: 39 39 9
Width: 274
GlyphClass: 2
Flags: W
LayerCount: 2
Fore
SplineSet
124 1843 m 1,0,-1
 141 1843 l 2,1,2
 224 1843 224 1843 234 1716 c 1,3,4
 197 1438 197 1438 150 1438 c 2,5,-1
 124 1438 l 1,6,7
 40 1530 40 1530 40 1708 c 0,8,9
 40 1776 40 1776 124 1843 c 1,0,-1
EndSplineSet
EndChar

StartChar: parenleft
Encoding: 40 40 10
Width: 331
GlyphClass: 2
Flags: W
LayerCount: 2
Fore
SplineSet
265 1850 m 1,0,-1
 273 1850 l 2,1,2
 291 1850 291 1850 291 1824 c 1,3,4
 216 1686 216 1686 144 1236 c 1,5,-1
 92 709 l 1,6,7
 161 187 161 187 282 9 c 1,8,-1
 273 0 l 1,9,-1
 265 0 l 2,10,11
 196 0 196 0 101 294 c 0,12,13
 40 482 40 482 40 666 c 2,14,-1
 40 925 l 2,15,16
 40 1676 40 1676 265 1850 c 1,0,-1
265 1660 m 1,17,-1
 273 1651 l 1,18,-1
 273 1643 l 1,19,-1
 265 1634 l 1,20,-1
 256 1634 l 1,21,-1
 247 1643 l 1,22,-1
 247 1651 l 1,23,-1
 256 1660 l 1,24,-1
 265 1660 l 1,17,-1
EndSplineSet
EndChar

StartChar: parenright
Encoding: 41 41 11
Width: 331
GlyphClass: 2
Flags: W
LayerCount: 2
Fore
SplineSet
66 0 m 1,0,-1
 57 0 l 2,1,2
 40 0 40 0 40 26 c 1,3,4
 115 164 115 164 188 614 c 1,5,-1
 240 1141 l 1,6,7
 171 1663 171 1663 50 1841 c 1,8,-1
 59 1850 l 1,9,-1
 68 1850 l 2,10,11
 137 1850 137 1850 232 1556 c 1,12,13
 292 1367 292 1367 292 1184 c 2,14,-1
 292 925 l 1,15,16
 291 174 291 174 66 0 c 1,0,-1
66 190 m 1,17,-1
 57 199 l 1,18,-1
 57 208 l 1,19,-1
 66 216 l 1,20,-1
 75 216 l 1,21,-1
 83 208 l 1,22,-1
 83 199 l 1,23,-1
 75 190 l 1,24,-1
 66 190 l 1,17,-1
EndSplineSet
EndChar

StartChar: asterisk
Encoding: 42 42 12
Width: 461
GlyphClass: 2
Flags: W
LayerCount: 2
Fore
SplineSet
192 1827 m 1,0,-1
 223 1827 l 1,1,2
 261 1793 261 1793 261 1766 c 1,3,-1
 246 1667 l 1,4,5
 293 1705 293 1705 398 1705 c 1,6,-1
 421 1675 l 1,7,-1
 421 1667 l 1,8,9
 389 1591 389 1591 276 1591 c 1,10,11
 345 1471 345 1471 345 1438 c 1,12,-1
 291 1408 l 1,13,14
 257 1408 257 1408 208 1530 c 1,15,16
 157 1454 157 1454 101 1454 c 1,17,-1
 86 1477 l 1,18,-1
 86 1484 l 2,19,20
 86 1516 86 1516 170 1606 c 1,21,22
 40 1640 40 1640 40 1667 c 2,23,-1
 40 1682 l 1,24,25
 45 1728 45 1728 63 1728 c 2,26,-1
 93 1728 l 1,27,-1
 170 1682 l 1,28,-1
 162 1758 l 1,29,-1
 162 1797 l 1,30,-1
 192 1827 l 1,0,-1
EndSplineSet
EndChar

StartChar: plus
Encoding: 43 43 13
Width: 717
GlyphClass: 2
Flags: W
LayerCount: 2
Fore
SplineSet
320 1056 m 1,0,-1
 363 1056 l 1,1,-1
 380 1041 l 1,2,-1
 397 759 l 1,3,-1
 439 767 l 1,4,-1
 533 767 l 1,5,-1
 626 774 l 1,6,7
 677 774 677 774 677 722 c 2,8,-1
 677 715 l 2,9,10
 677 648 677 648 618 648 c 2,11,-1
 405 648 l 1,12,-1
 422 359 l 1,13,-1
 397 344 l 1,14,-1
 320 344 l 1,15,-1
 295 366 l 1,16,-1
 295 537 l 1,17,-1
 286 648 l 1,18,-1
 57 641 l 1,19,-1
 40 663 l 1,20,-1
 40 678 l 2,21,22
 40 745 40 745 82 745 c 1,23,-1
 286 752 l 1,24,-1
 286 1004 l 2,25,26
 286 1044 286 1044 320 1056 c 1,0,-1
EndSplineSet
EndChar

StartChar: comma
Encoding: 44 44 14
Width: 282
GlyphClass: 2
Flags: W
LayerCount: 2
Fore
SplineSet
145 205 m 1,0,1
 242 183 242 183 242 116 c 1,2,3
 199 -135 199 -135 80 -135 c 1,4,-1
 56 -118 l 1,5,-1
 89 -21 l 1,6,7
 40 7 40 7 40 51 c 1,8,9
 54 205 54 205 145 205 c 1,0,1
EndSplineSet
EndChar

StartChar: hyphen
Encoding: 45 45 15
AltUni2: 0000ad.ffffffff.0
Width: 476
GlyphClass: 2
Flags: W
LayerCount: 2
Fore
SplineSet
-102 693 m 4,0,1
 -154.649 788.076 -154.649 788.076 -44 773 c 4,2,3
 91.9922 754.473 91.9922 754.473 95.6602 754.167 c 4,4,5
 236.817 749.129 236.817 749.129 284 755 c 4,6,7
 436.579 773.233 436.579 773.233 445 729 c 4,8,9
 458.257 656.391 458.257 656.391 359.66 667.167 c 4,10,11
 299.66 673.167 299.66 673.167 239.66 679.167 c 5,12,-1
 181 679 l 5,13,14
 180.934 679.054 180.934 679.054 -38 675 c 4,15,16
 -94 674 -94 674 -102 693 c 4,0,1
EndSplineSet
EndChar

StartChar: period
Encoding: 46 46 16
Width: 267
GlyphClass: 2
Flags: W
LayerCount: 2
Fore
SplineSet
126 223 m 2,0,-1
 148 223 l 2,1,2
 215 223 215 223 227 115 c 1,3,-1
 227 108 l 1,4,5
 213 0 213 0 134 0 c 0,6,7
 40 0 40 0 40 129 c 2,8,-1
 40 137 l 1,9,10
 57 223 57 223 126 223 c 2,0,-1
EndSplineSet
EndChar

StartChar: slash
Encoding: 47 47 17
Width: 1010
GlyphClass: 2
Flags: W
LayerCount: 2
Fore
SplineSet
943 1888 m 1,0,1
 970 1888 970 1888 970 1852 c 1,2,-1
 383 605 l 1,3,-1
 392 596 l 1,4,-1
 392 587 l 2,5,6
 392 523 392 523 302 407 c 1,7,-1
 266 343 l 1,8,-1
 275 298 l 1,9,10
 185 163 185 163 121 9 c 1,11,-1
 112 0 l 1,12,-1
 103 0 l 2,13,14
 55 0 55 0 40 36 c 1,15,16
 112 244 112 244 320 714 c 1,17,18
 266 714 266 714 266 732 c 2,19,-1
 266 750 l 1,20,-1
 284 768 l 1,21,-1
 302 768 l 2,22,23
 320 768 320 768 320 723 c 1,24,-1
 329 723 l 1,25,26
 329 768 329 768 383 831 c 1,27,28
 808 1707 808 1707 907 1879 c 1,29,-1
 943 1888 l 1,0,1
329 397 m 1,30,-1
 347 379 l 1,31,-1
 329 361 l 1,32,-1
 311 379 l 1,33,-1
 329 397 l 1,30,-1
EndSplineSet
EndChar

StartChar: zero
Encoding: 48 48 18
Width: 584
GlyphClass: 2
Flags: W
LayerCount: 2
Fore
SplineSet
275 1865 m 1,0,1
 465 1865 465 1865 519 1344 c 1,2,-1
 544 916 l 1,3,-1
 536 689 l 1,4,-1
 536 412 l 1,5,-1
 544 244 l 1,6,7
 525 244 525 244 510 168 c 1,8,9
 536 168 536 168 536 151 c 2,10,-1
 536 118 l 1,11,-1
 519 118 l 1,12,-1
 494 134 l 1,13,14
 494 28 494 28 351 0 c 1,15,-1
 292 0 l 2,16,17
 113 0 113 0 82 235 c 1,18,19
 71 235 71 235 65 294 c 1,20,-1
 57 294 l 1,21,-1
 65 336 l 1,22,-1
 40 1420 l 1,23,24
 40 1741 40 1741 275 1865 c 1,0,1
284 1815 m 1,25,-1
 284 1806 l 1,26,-1
 300 1781 l 1,27,28
 255 1781 255 1781 191 1588 c 1,29,30
 124 1534 124 1534 124 1218 c 1,31,32
 172 168 172 168 233 168 c 1,33,34
 233 135 233 135 317 67 c 1,35,-1
 334 67 l 1,36,37
 334 117 334 117 418 269 c 1,38,-1
 393 269 l 1,39,-1
 393 286 l 1,40,41
 435 286 435 286 435 420 c 1,42,-1
 443 714 l 1,43,-1
 443 983 l 2,44,45
 443 1712 443 1712 292 1815 c 1,46,-1
 284 1815 l 1,25,-1
275 1731 m 1,47,-1
 292 1714 l 1,48,-1
 292 1705 l 1,49,-1
 275 1689 l 1,50,-1
 258 1714 l 1,51,-1
 275 1731 l 1,47,-1
EndSplineSet
EndChar

StartChar: one
Encoding: 49 49 19
Width: 477
GlyphClass: 2
Flags: W
LayerCount: 2
Fore
SplineSet
242 1873 m 2,0,-1
 268 1873 l 1,1,2
 318 1868 318 1868 318 1848 c 1,3,-1
 310 1839 l 1,4,-1
 318 1831 l 1,5,-1
 318 1628 l 1,6,-1
 310 1552 l 1,7,-1
 327 1451 l 1,8,9
 310 1451 310 1451 310 1426 c 1,10,-1
 318 1417 l 1,11,12
 276 1245 276 1245 276 953 c 2,13,-1
 276 599 l 1,14,-1
 302 532 l 1,15,-1
 293 498 l 1,16,-1
 310 472 l 1,17,-1
 302 363 l 1,18,-1
 302 346 l 1,19,-1
 310 346 l 1,20,21
 312 388 312 388 335 388 c 1,22,-1
 361 363 l 1,23,24
 361 337 361 337 327 337 c 1,25,-1
 335 329 l 1,26,-1
 335 278 l 1,27,-1
 318 253 l 1,28,-1
 327 211 l 1,29,-1
 310 194 l 1,30,-1
 310 169 l 1,31,-1
 335 169 l 1,32,-1
 335 152 l 1,33,-1
 327 143 l 1,34,35
 327 123 327 123 420 93 c 1,36,-1
 437 67 l 1,37,-1
 437 51 l 1,38,39
 413 0 413 0 335 0 c 1,40,41
 82 12 82 12 82 42 c 1,42,-1
 91 51 l 1,43,-1
 99 51 l 1,44,-1
 91 59 l 1,45,-1
 91 67 l 1,46,47
 118 109 118 109 183 127 c 1,48,-1
 183 228 l 1,49,-1
 167 1080 l 1,50,-1
 175 1325 l 1,51,-1
 175 1333 l 1,52,-1
 167 1333 l 1,53,54
 124 1223 124 1223 107 1223 c 0,55,56
 40 1223 40 1223 40 1341 c 1,57,58
 57 1341 57 1341 74 1443 c 1,59,60
 121 1443 121 1443 217 1797 c 1,61,62
 217 1873 217 1873 242 1873 c 2,0,-1
91 1519 m 1,63,-1
 107 1502 l 1,64,-1
 107 1493 l 1,65,-1
 91 1476 l 1,66,-1
 74 1493 l 1,67,-1
 74 1502 l 1,68,-1
 91 1519 l 1,63,-1
EndSplineSet
EndChar

StartChar: two
Encoding: 50 50 20
Width: 548
GlyphClass: 2
Flags: W
LayerCount: 2
Fore
SplineSet
299 1865 m 2,0,1
 474 1865 474 1865 508 1572 c 1,2,-1
 508 1556 l 2,3,4
 508 1236 508 1236 232 594 c 1,5,-1
 174 401 l 1,6,-1
 207 401 l 1,7,-1
 207 385 l 1,8,-1
 191 368 l 1,9,-1
 165 376 l 1,10,-1
 165 368 l 1,11,-1
 182 309 l 1,12,-1
 165 226 l 1,13,-1
 174 217 l 1,14,-1
 174 209 l 1,15,-1
 149 167 l 1,16,-1
 149 84 l 1,17,-1
 157 84 l 1,18,-1
 366 75 l 1,19,-1
 366 84 l 1,20,-1
 349 234 l 1,21,-1
 366 251 l 1,22,23
 458 251 458 251 458 117 c 1,24,-1
 467 59 l 1,25,-1
 467 17 l 1,26,-1
 450 0 l 1,27,-1
 425 0 l 1,28,-1
 324 17 l 1,29,-1
 216 8 l 1,30,31
 40 8 40 8 40 59 c 0,32,33
 40 224 40 224 274 887 c 1,34,35
 425 1368 425 1368 425 1597 c 2,36,-1
 425 1656 l 1,37,38
 398 1773 398 1773 341 1773 c 1,39,-1
 333 1806 l 1,40,-1
 324 1806 l 1,41,-1
 299 1790 l 1,42,-1
 266 1806 l 1,43,44
 165 1775 165 1775 165 1648 c 1,45,-1
 157 1547 l 1,46,-1
 174 1505 l 1,47,-1
 165 1505 l 1,48,-1
 182 1455 l 1,49,-1
 174 1430 l 1,50,-1
 207 1372 l 1,51,52
 207 1355 207 1355 182 1355 c 1,53,-1
 207 1296 l 1,54,-1
 249 1313 l 1,55,-1
 266 1288 l 1,56,57
 266 1246 266 1246 165 1213 c 1,58,59
 99 1350 99 1350 99 1530 c 1,60,61
 131 1865 131 1865 266 1865 c 2,62,-1
 299 1865 l 2,0,1
232 1773 m 1,63,-1
 241 1765 l 1,64,-1
 241 1740 l 1,65,-1
 232 1740 l 1,66,-1
 216 1756 l 1,67,-1
 232 1773 l 1,63,-1
EndSplineSet
EndChar

StartChar: three
Encoding: 51 51 21
Width: 613
GlyphClass: 2
Flags: W
LayerCount: 2
Fore
SplineSet
531 1865 m 1,0,1
 569 1849 569 1849 573 1832 c 1,2,-1
 423 1549 l 1,3,-1
 406 1499 l 1,4,-1
 423 1482 l 1,5,-1
 423 1474 l 1,6,-1
 406 1457 l 1,7,-1
 398 1457 l 1,8,-1
 390 1465 l 1,9,-1
 381 1465 l 1,10,11
 381 1442 381 1442 265 1241 c 1,12,-1
 348 1257 l 1,13,14
 498 1209 498 1209 498 1024 c 1,15,-1
 506 1024 l 1,16,17
 506 1049 506 1049 523 1049 c 2,18,-1
 531 1049 l 1,19,-1
 548 1032 l 1,20,-1
 548 1016 l 1,21,-1
 523 991 l 1,22,-1
 515 991 l 1,23,-1
 515 1016 l 1,24,-1
 506 1016 l 1,25,-1
 506 999 l 1,26,-1
 515 974 l 1,27,-1
 523 982 l 1,28,-1
 540 982 l 1,29,-1
 540 966 l 1,30,31
 498 966 498 966 498 500 c 1,32,33
 482 33 482 33 381 33 c 1,34,35
 322 0 322 0 231 0 c 2,36,-1
 223 0 l 1,37,38
 40 48 40 48 40 183 c 0,39,40
 40 266 40 266 115 266 c 2,41,-1
 132 266 l 1,42,-1
 148 250 l 1,43,-1
 115 216 l 1,44,45
 115 161 115 161 173 100 c 1,46,-1
 198 108 l 1,47,48
 198 89 198 89 315 83 c 1,49,50
 415 149 415 149 415 533 c 2,51,-1
 415 849 l 2,52,53
 415 1087 415 1087 365 1141 c 1,54,-1
 331 1157 l 1,55,56
 234 1157 234 1157 198 1124 c 1,57,-1
 182 1124 l 1,58,-1
 165 1141 l 1,59,-1
 165 1157 l 1,60,-1
 173 1166 l 1,61,-1
 173 1174 l 1,62,-1
 157 1191 l 1,63,-1
 157 1199 l 1,64,-1
 173 1216 l 1,65,-1
 182 1207 l 1,66,-1
 190 1207 l 1,67,-1
 481 1782 l 1,68,-1
 481 1790 l 1,69,-1
 340 1782 l 1,70,-1
 331 1782 l 1,71,-1
 190 1790 l 1,72,-1
 215 1632 l 1,73,-1
 190 1615 l 1,74,-1
 148 1615 l 1,75,76
 90 1627 90 1627 90 1715 c 2,77,-1
 90 1807 l 1,78,-1
 98 1815 l 1,79,-1
 90 1823 l 1,80,-1
 90 1832 l 1,81,82
 95 1857 95 1857 157 1857 c 2,83,-1
 498 1857 l 1,84,-1
 531 1865 l 1,0,1
157 1124 m 1,85,-1
 157 1099 l 1,86,-1
 148 1099 l 1,87,-1
 132 1116 l 1,88,-1
 140 1124 l 1,89,-1
 157 1124 l 1,85,-1
165 158 m 1,90,-1
 182 142 l 1,91,-1
 165 125 l 1,92,-1
 148 142 l 1,93,-1
 165 158 l 1,90,-1
EndSplineSet
EndChar

StartChar: four
Encoding: 52 52 22
Width: 546
GlyphClass: 2
Flags: W
LayerCount: 2
Fore
SplineSet
299 1888 m 1,0,-1
 307 1879 l 1,1,-1
 316 1879 l 1,2,-1
 135 621 l 1,3,-1
 238 629 l 1,4,-1
 273 629 l 1,5,-1
 256 1155 l 1,6,-1
 256 1198 l 1,7,-1
 273 1216 l 1,8,-1
 290 1216 l 1,9,-1
 324 1181 l 1,10,-1
 324 1095 l 1,11,-1
 316 1052 l 1,12,-1
 342 681 l 1,13,-1
 350 681 l 1,14,15
 350 716 350 716 368 716 c 1,16,-1
 385 698 l 1,17,-1
 385 681 l 1,18,19
 359 681 359 681 359 655 c 1,20,-1
 428 672 l 1,21,-1
 445 655 l 1,22,-1
 488 664 l 1,23,-1
 506 638 l 1,24,-1
 506 603 l 2,25,26
 506 578 506 578 350 578 c 2,27,-1
 342 578 l 1,28,-1
 359 293 l 1,29,30
 376 293 376 293 376 241 c 1,31,-1
 385 190 l 1,32,-1
 402 172 l 1,33,-1
 402 164 l 1,34,-1
 385 147 l 1,35,-1
 411 86 l 1,36,-1
 402 78 l 1,37,38
 480 69 480 69 480 43 c 2,39,-1
 480 34 l 1,40,-1
 445 0 l 1,41,-1
 247 0 l 1,42,-1
 221 26 l 1,43,-1
 221 52 l 1,44,-1
 238 69 l 1,45,-1
 307 69 l 1,46,-1
 281 560 l 1,47,-1
 256 560 l 1,48,49
 219 526 219 526 187 526 c 1,50,51
 157 557 157 557 40 569 c 1,52,-1
 40 578 l 1,53,54
 166 1888 166 1888 212 1888 c 2,55,-1
 299 1888 l 1,0,-1
428 138 m 1,56,-1
 445 138 l 1,57,-1
 445 121 l 1,58,-1
 428 103 l 1,59,-1
 411 103 l 1,60,-1
 411 121 l 1,61,-1
 428 138 l 1,56,-1
EndSplineSet
EndChar

StartChar: five
Encoding: 53 53 23
Width: 456
GlyphClass: 2
Flags: W
LayerCount: 2
Fore
SplineSet
237 1865 m 1,0,-1
 262 1865 l 2,1,2
 416 1865 416 1865 416 1839 c 1,3,-1
 399 1822 l 1,4,-1
 220 1822 l 1,5,-1
 117 1044 l 1,6,-1
 117 1035 l 1,7,-1
 126 1035 l 1,8,9
 180 1206 180 1206 245 1206 c 0,10,11
 399 1206 399 1206 399 847 c 2,12,-1
 399 779 l 2,13,14
 399 153 399 153 262 43 c 1,15,16
 218 0 218 0 185 0 c 2,17,-1
 160 0 l 1,18,19
 49 70 49 70 49 317 c 2,20,-1
 49 368 l 2,21,22
 49 385 49 385 74 385 c 1,23,24
 110 373 110 373 126 342 c 1,25,-1
 126 171 l 1,26,-1
 143 145 l 1,27,-1
 143 137 l 1,28,-1
 134 128 l 1,29,30
 160 43 160 43 177 43 c 2,31,-1
 194 43 l 1,32,-1
 220 60 l 1,33,-1
 211 68 l 1,34,-1
 211 77 l 1,35,36
 297 218 297 218 297 257 c 0,37,38
 297 448 297 448 322 565 c 1,39,40
 307 565 307 565 297 642 c 1,41,-1
 314 659 l 1,42,-1
 314 667 l 1,43,-1
 297 684 l 1,44,-1
 305 744 l 1,45,-1
 305 992 l 1,46,47
 283 1138 283 1138 211 1138 c 1,48,-1
 194 1104 l 1,49,-1
 220 1104 l 1,50,-1
 220 1078 l 1,51,-1
 194 1078 l 1,52,-1
 194 1095 l 1,53,-1
 185 1095 l 1,54,-1
 143 933 l 1,55,-1
 160 915 l 1,56,-1
 151 907 l 1,57,-1
 143 907 l 1,58,-1
 134 915 l 1,59,-1
 126 915 l 1,60,61
 126 878 126 878 91 864 c 1,62,63
 40 881 40 881 40 898 c 1,64,65
 104 1856 104 1856 143 1856 c 1,66,-1
 237 1865 l 1,0,-1
262 650 m 1,67,-1
 271 650 l 1,68,-1
 288 633 l 1,69,-1
 271 616 l 1,70,-1
 262 616 l 1,71,-1
 245 633 l 1,72,-1
 262 650 l 1,67,-1
EndSplineSet
EndChar

StartChar: six
Encoding: 54 54 24
Width: 512
GlyphClass: 2
Flags: W
LayerCount: 2
Fore
SplineSet
178 1873 m 2,0,1
 235 1873 235 1873 308 1769 c 1,2,-1
 308 1744 l 1,3,-1
 264 1709 l 1,4,-1
 247 1726 l 1,5,-1
 247 1744 l 1,6,-1
 264 1769 l 1,7,-1
 213 1813 l 1,8,-1
 204 1813 l 1,9,10
 109 1744 109 1744 109 1416 c 2,11,-1
 109 1260 l 1,12,-1
 118 1200 l 1,13,-1
 126 1200 l 1,14,15
 146 1217 146 1217 247 1234 c 1,16,17
 328 1188 328 1188 368 1001 c 1,18,19
 411 692 411 692 437 276 c 1,20,-1
 454 259 l 1,21,-1
 446 224 l 1,22,-1
 472 173 l 1,23,-1
 463 164 l 1,24,-1
 454 164 l 1,25,-1
 437 181 l 1,26,27
 374 0 374 0 308 0 c 2,28,-1
 282 0 l 2,29,30
 134 0 134 0 83 449 c 1,31,32
 40 774 40 774 40 1079 c 2,33,-1
 40 1226 l 2,34,35
 40 1749 40 1749 169 1873 c 1,36,-1
 178 1873 l 2,0,1
161 1174 m 1,37,-1
 118 1010 l 1,38,-1
 126 906 l 1,39,-1
 126 880 l 1,40,41
 137 371 137 371 178 371 c 1,42,-1
 178 337 l 1,43,-1
 169 302 l 1,44,45
 169 245 169 245 239 147 c 1,46,-1
 230 138 l 1,47,-1
 230 129 l 1,48,49
 259 61 259 61 290 43 c 1,50,-1
 316 43 l 1,51,52
 351 120 351 120 351 181 c 2,53,-1
 351 190 l 2,54,55
 351 659 351 659 256 1053 c 1,56,-1
 187 1165 l 1,57,-1
 161 1174 l 1,37,-1
264 173 m 1,58,-1
 282 155 l 1,59,-1
 282 147 l 1,60,-1
 264 147 l 1,61,-1
 247 164 l 1,62,-1
 256 173 l 1,63,-1
 264 173 l 1,58,-1
EndSplineSet
EndChar

StartChar: seven
Encoding: 55 55 25
Width: 603
GlyphClass: 2
Flags: W
LayerCount: 2
Fore
SplineSet
469 1895 m 1,0,-1
 563 1869 l 1,1,-1
 314 943 l 1,2,-1
 289 797 l 1,3,4
 308 797 308 797 314 755 c 1,5,-1
 272 643 l 1,6,-1
 263 540 l 1,7,-1
 272 532 l 1,8,-1
 280 532 l 1,9,-1
 263 429 l 1,10,-1
 263 317 l 1,11,12
 276 86 276 86 297 86 c 1,13,-1
 297 26 l 1,14,-1
 272 0 l 1,15,-1
 237 0 l 1,16,17
 177 16 177 16 177 86 c 1,18,-1
 160 266 l 1,19,-1
 169 274 l 1,20,-1
 169 283 l 1,21,-1
 151 360 l 1,22,-1
 169 394 l 1,23,-1
 143 429 l 1,24,25
 169 455 169 455 203 703 c 1,26,-1
 349 1346 l 1,27,28
 374 1402 374 1402 469 1818 c 1,29,-1
 426 1826 l 1,30,-1
 409 1826 l 1,31,-1
 383 1809 l 1,32,-1
 374 1818 l 1,33,-1
 366 1818 l 1,34,-1
 340 1809 l 1,35,36
 340 1830 340 1830 254 1835 c 1,37,-1
 126 1818 l 1,38,-1
 126 1784 l 1,39,-1
 143 1655 l 1,40,-1
 134 1646 l 1,41,-1
 109 1646 l 2,42,43
 55 1646 55 1646 40 1706 c 1,44,-1
 49 1766 l 1,45,-1
 49 1861 l 2,46,47
 49 1880 49 1880 151 1886 c 1,48,-1
 340 1878 l 1,49,-1
 469 1895 l 1,0,-1
151 497 m 1,50,-1
 160 489 l 1,51,-1
 160 480 l 1,52,-1
 151 472 l 1,53,-1
 143 472 l 1,54,-1
 134 480 l 1,55,-1
 134 489 l 1,56,-1
 143 497 l 1,57,-1
 151 497 l 1,50,-1
297 120 m 1,58,-1
 314 120 l 1,59,-1
 314 103 l 1,60,-1
 297 120 l 1,58,-1
EndSplineSet
EndChar

StartChar: eight
Encoding: 56 56 26
Width: 480
GlyphClass: 2
Flags: W
LayerCount: 2
Fore
SplineSet
202 1865 m 1,0,-1
 236 1865 l 2,1,2
 347 1865 347 1865 347 1635 c 2,3,-1
 347 1448 l 2,4,5
 347 1219 347 1219 278 1184 c 1,6,7
 355 1122 355 1122 355 988 c 1,8,-1
 364 979 l 1,9,-1
 372 979 l 1,10,-1
 364 971 l 1,11,-1
 364 954 l 1,12,13
 381 937 381 937 389 835 c 1,14,-1
 398 826 l 1,15,-1
 389 801 l 1,16,-1
 432 605 l 1,17,-1
 423 579 l 1,18,-1
 440 358 l 1,19,20
 416 0 416 0 278 0 c 1,21,-1
 236 9 l 1,22,-1
 227 0 l 1,23,-1
 219 0 l 1,24,25
 117 28 117 28 117 60 c 1,26,-1
 125 102 l 1,27,28
 108 102 108 102 108 153 c 1,29,30
 83 153 83 153 83 170 c 1,31,-1
 91 196 l 1,32,33
 40 368 40 368 40 588 c 2,34,-1
 40 707 l 2,35,36
 40 1037 40 1037 168 1201 c 1,37,38
 83 1201 83 1201 83 1490 c 0,39,40
 83 1821 83 1821 202 1865 c 1,0,-1
219 1831 m 1,41,42
 159 1693 159 1693 159 1524 c 2,43,-1
 159 1397 l 1,44,-1
 185 1414 l 1,45,-1
 202 1414 l 1,46,-1
 202 1371 l 1,47,-1
 193 1363 l 1,48,-1
 193 1354 l 1,49,-1
 185 1363 l 1,50,-1
 168 1363 l 1,51,-1
 168 1311 l 2,52,53
 168 1247 168 1247 210 1218 c 1,54,-1
 253 1218 l 2,55,56
 313 1218 313 1218 313 1627 c 0,57,58
 313 1831 313 1831 219 1831 c 1,41,42
159 1388 m 1,59,-1
 159 1371 l 1,60,-1
 168 1371 l 1,61,-1
 168 1388 l 1,62,-1
 159 1388 l 1,59,-1
176 1328 m 1,63,-1
 185 1328 l 1,64,-1
 202 1311 l 1,65,-1
 185 1294 l 1,66,-1
 176 1303 l 1,67,-1
 176 1328 l 1,63,-1
210 1158 m 1,68,69
 117 992 117 992 117 494 c 2,70,-1
 117 409 l 2,71,72
 117 380 117 380 142 349 c 1,73,-1
 125 324 l 1,74,-1
 125 315 l 2,75,76
 125 125 125 125 261 77 c 1,77,-1
 278 77 l 1,78,79
 347 131 347 131 347 230 c 1,80,81
 302 1158 302 1158 227 1158 c 2,82,-1
 210 1158 l 1,68,69
432 758 m 1,83,-1
 440 749 l 1,84,-1
 440 741 l 1,85,-1
 423 724 l 1,86,-1
 415 724 l 1,87,-1
 415 741 l 1,88,-1
 432 758 l 1,83,-1
66 196 m 1,89,-1
 74 187 l 1,90,-1
 74 179 l 1,91,-1
 66 170 l 1,92,-1
 57 170 l 1,93,-1
 49 179 l 1,94,-1
 49 187 l 1,95,-1
 57 196 l 1,96,-1
 66 196 l 1,89,-1
EndSplineSet
EndChar

StartChar: nine
Encoding: 57 57 27
Width: 485
GlyphClass: 2
Flags: W
LayerCount: 2
Fore
SplineSet
243 1858 m 2,0,1
 378 1858 378 1858 412 1292 c 1,2,-1
 412 1267 l 1,3,-1
 445 1199 l 1,4,-1
 428 1149 l 1,5,-1
 445 1089 l 1,6,-1
 428 1064 l 1,7,-1
 428 861 l 2,8,9
 428 8 428 8 293 8 c 1,10,-1
 268 0 l 1,11,12
 133 7 133 7 133 101 c 2,13,-1
 133 110 l 1,14,15
 162 169 162 169 175 169 c 1,16,-1
 192 135 l 1,17,-1
 175 93 l 1,18,19
 217 42 217 42 251 42 c 0,20,21
 268 42 268 42 268 93 c 1,22,23
 293 93 293 93 293 118 c 1,24,-1
 302 118 l 1,25,-1
 293 127 l 1,26,-1
 336 448 l 1,27,-1
 310 456 l 1,28,29
 310 541 310 541 344 541 c 1,30,-1
 344 836 l 1,31,-1
 336 836 l 1,32,33
 336 809 336 809 276 777 c 1,34,-1
 251 777 l 1,35,36
 66 842 66 842 40 1233 c 1,37,-1
 40 1292 l 1,38,39
 62 1850 62 1850 226 1850 c 1,40,-1
 234 1858 l 1,41,-1
 243 1858 l 2,0,1
209 1774 m 1,42,43
 133 1648 133 1648 133 1385 c 0,44,45
 133 889 133 889 217 853 c 1,46,-1
 251 819 l 1,47,-1
 260 819 l 1,48,49
 336 844 336 844 336 997 c 1,50,-1
 344 1022 l 1,51,52
 319 1622 319 1622 285 1622 c 1,53,-1
 276 1630 l 1,54,-1
 293 1647 l 1,55,56
 260 1691 260 1691 260 1731 c 1,57,58
 217 1754 217 1754 217 1774 c 1,59,-1
 209 1774 l 1,42,43
234 1740 m 1,60,-1
 243 1731 l 1,61,-1
 243 1723 l 1,62,-1
 217 1723 l 1,63,-1
 234 1740 l 1,60,-1
EndSplineSet
EndChar

StartChar: colon
Encoding: 58 58 28
Width: 267
GlyphClass: 2
Flags: W
LayerCount: 2
Fore
SplineSet
144 1235 m 2,0,-1
 166 1235 l 2,1,2
 234 1235 234 1235 246 1127 c 1,3,-1
 246 1120 l 1,4,5
 232 1012 232 1012 152 1012 c 0,6,7
 58 1012 58 1012 58 1141 c 2,8,-1
 58 1149 l 1,9,10
 76 1235 76 1235 144 1235 c 2,0,-1
134 689 m 2,11,-1
 156 689 l 2,12,13
 224 689 224 689 236 581 c 1,14,-1
 236 574 l 1,15,16
 222 466 222 466 142 466 c 0,17,18
 48 466 48 466 48 595 c 2,19,-1
 48 603 l 1,20,21
 66 689 66 689 134 689 c 2,11,-1
EndSplineSet
EndChar

StartChar: semicolon
Encoding: 59 59 29
AltUni2: 00037e.ffffffff.0
Width: 282
GlyphClass: 2
Flags: W
LayerCount: 2
Fore
SplineSet
155 611 m 2,0,-1
 177 611 l 2,1,2
 244 611 244 611 256 503 c 1,3,-1
 256 496 l 1,4,5
 242 388 242 388 163 388 c 0,6,7
 69 388 69 388 69 517 c 2,8,-1
 69 525 l 1,9,10
 86 611 86 611 155 611 c 2,0,-1
145 205 m 1,11,12
 242 183 242 183 242 116 c 1,13,14
 199 -135 199 -135 80 -135 c 1,15,-1
 56 -118 l 1,16,-1
 89 -21 l 1,17,18
 40 7 40 7 40 51 c 1,19,20
 54 205 54 205 145 205 c 1,11,12
EndSplineSet
EndChar

StartChar: question
Encoding: 63 63 33
Width: 508
GlyphClass: 2
Flags: W
LayerCount: 2
Fore
SplineSet
258 1453 m 1,0,-1
 278 1453 l 2,1,2
 436 1453 436 1453 468 1161 c 1,3,-1
 468 1133 l 2,4,5
 468 1028 468 1028 373 821 c 1,6,7
 341 692 341 692 305 692 c 1,8,-1
 285 671 l 1,9,-1
 278 651 l 1,10,-1
 292 651 l 1,11,-1
 292 630 l 1,12,-1
 190 474 l 1,13,-1
 169 372 l 1,14,15
 169 261 169 261 190 175 c 1,16,-1
 149 155 l 1,17,18
 101 155 101 155 101 297 c 0,19,20
 101 552 101 552 360 998 c 1,21,-1
 387 1154 l 1,22,23
 369 1399 369 1399 285 1399 c 2,24,-1
 271 1399 l 1,25,26
 203 1351 203 1351 203 1297 c 1,27,28
 108 1235 108 1235 108 1032 c 2,29,-1
 108 1004 l 2,30,31
 108 900 108 900 176 821 c 1,32,-1
 176 807 l 2,33,34
 176 778 176 778 135 760 c 1,35,36
 40 880 40 880 40 1079 c 2,37,-1
 40 1086 l 1,38,39
 58 1358 58 1358 210 1433 c 1,40,41
 211 1446 211 1446 258 1453 c 1,0,-1
237 1331 m 1,42,-1
 237 1310 l 1,43,-1
 230 1310 l 1,44,-1
 217 1324 l 1,45,-1
 224 1331 l 1,46,-1
 237 1331 l 1,42,-1
332 685 m 1,47,-1
 346 671 l 1,48,-1
 326 658 l 1,49,-1
 319 664 l 1,50,-1
 319 671 l 1,51,-1
 332 685 l 1,47,-1
190 121 m 1,52,53
 258 121 258 121 271 19 c 1,54,-1
 271 5 l 2,55,56
 271 -97 271 -97 162 -97 c 1,57,58
 94 -71 94 -71 94 -8 c 2,59,-1
 94 32 l 2,60,61
 94 102 94 102 190 121 c 1,52,53
EndSplineSet
EndChar

StartChar: at
Encoding: 64 64 34
Width: 627
GlyphClass: 2
Flags: W
LayerCount: 2
Fore
SplineSet
297 1468 m 2,0,-1
 337 1468 l 1,1,2
 475 1396 475 1396 533 1225 c 1,3,4
 587 1047 587 1047 587 819 c 0,5,6
 587 479 587 479 486 387 c 1,7,-1
 418 387 l 1,8,9
 344 438 344 438 344 522 c 1,10,-1
 337 522 l 1,11,12
 284 434 284 434 229 434 c 1,13,14
 121 510 121 510 121 691 c 0,15,16
 121 877 121 877 263 1009 c 1,17,-1
 270 1009 l 2,18,19
 374 1009 374 1009 418 921 c 1,20,21
 429 853 429 853 445 853 c 0,22,23
 472 853 472 853 472 813 c 0,24,25
 472 771 472 771 412 671 c 1,26,-1
 391 556 l 1,27,-1
 425 441 l 1,28,-1
 466 441 l 1,29,-1
 459 448 l 1,30,-1
 459 475 l 1,31,-1
 499 542 l 1,32,33
 466 542 466 542 466 563 c 1,34,-1
 479 576 l 1,35,-1
 493 576 l 1,36,-1
 513 563 l 1,37,-1
 520 624 l 1,38,-1
 513 651 l 1,39,40
 526 651 526 651 526 684 c 1,41,-1
 533 684 l 1,42,43
 506 1193 506 1193 452 1252 c 1,44,45
 389 1400 389 1400 351 1400 c 1,46,47
 277 1380 277 1380 249 1326 c 1,48,-1
 249 1313 l 1,49,-1
 243 1313 l 1,50,-1
 249 1306 l 1,51,-1
 249 1299 l 1,52,53
 216 1299 216 1299 148 1056 c 1,54,55
 87 719 87 719 87 502 c 0,56,57
 87 435 87 435 114 387 c 1,58,-1
 108 380 l 1,59,-1
 108 374 l 1,60,-1
 114 347 l 1,61,-1
 108 326 l 1,62,-1
 121 313 l 1,63,-1
 121 286 l 1,64,-1
 114 279 l 1,65,-1
 121 272 l 1,66,-1
 121 266 l 1,67,-1
 114 259 l 1,68,-1
 189 70 l 1,69,70
 209 29 209 29 249 29 c 0,71,72
 314 29 314 29 371 164 c 1,73,74
 386 164 386 164 405 320 c 1,75,-1
 445 347 l 1,76,77
 479 337 479 337 479 299 c 0,78,79
 479 54 479 54 270 -52 c 1,80,-1
 236 -52 l 2,81,82
 125 -52 125 -52 74 157 c 1,83,84
 47 280 47 280 40 502 c 1,85,86
 113 1468 113 1468 297 1468 c 2,0,-1
128 1313 m 1,87,-1
 135 1313 l 1,88,-1
 155 1292 l 1,89,-1
 135 1272 l 1,90,-1
 128 1272 l 1,91,-1
 108 1292 l 1,92,-1
 128 1313 l 1,87,-1
202 630 m 1,93,-1
 202 624 l 1,94,95
 216 563 216 563 236 563 c 2,96,-1
 243 563 l 1,97,98
 324 690 324 690 324 819 c 1,99,100
 315 925 315 925 290 934 c 1,101,102
 236 934 236 934 202 630 c 1,93,-1
364 286 m 1,103,-1
 378 272 l 1,104,-1
 364 259 l 1,105,-1
 351 272 l 1,106,-1
 364 286 l 1,103,-1
EndSplineSet
EndChar

StartChar: A
Encoding: 65 65 35
Width: 648
GlyphClass: 2
Flags: W
LayerCount: 2
Fore
SplineSet
254 1861 m 1,0,-1
 279 1861 l 2,1,2
 340 1861 340 1861 345 1836 c 1,3,-1
 336 1812 l 1,4,5
 363 1579 363 1579 411 1350 c 1,6,-1
 402 1342 l 1,7,-1
 402 1334 l 1,8,9
 427 1334 427 1334 427 1301 c 1,10,-1
 419 1276 l 1,11,-1
 435 1136 l 1,12,-1
 435 1128 l 1,13,14
 460 1093 460 1093 460 1062 c 1,15,-1
 443 1013 l 1,16,-1
 443 996 l 1,17,-1
 493 741 l 1,18,-1
 493 733 l 1,19,-1
 476 716 l 1,20,-1
 501 527 l 1,21,22
 526 527 526 527 526 511 c 2,23,-1
 526 494 l 1,24,-1
 509 478 l 1,25,26
 561 86 561 86 575 74 c 1,27,28
 608 62 608 62 608 49 c 2,29,-1
 608 33 l 2,30,31
 608 8 608 8 476 8 c 1,32,33
 419 20 419 20 419 41 c 2,34,-1
 419 49 l 1,35,36
 435 69 435 69 443 132 c 1,37,-1
 394 502 l 1,38,-1
 386 502 l 2,39,40
 311 502 311 502 229 527 c 1,41,-1
 205 527 l 1,42,-1
 196 346 l 1,43,-1
 196 66 l 1,44,-1
 238 66 l 1,45,-1
 262 41 l 1,46,-1
 262 33 l 2,47,48
 262 6 262 6 139 0 c 1,49,50
 40 11 40 11 40 41 c 2,51,-1
 40 49 l 2,52,53
 40 63 40 63 114 107 c 1,54,55
 180 1342 180 1342 213 1597 c 1,56,-1
 205 1639 l 1,57,-1
 213 1647 l 1,58,-1
 213 1655 l 1,59,-1
 205 1663 l 1,60,-1
 205 1672 l 1,61,-1
 221 1795 l 1,62,63
 196 1795 196 1795 196 1812 c 2,64,-1
 196 1820 l 1,65,-1
 254 1861 l 1,0,-1
271 1606 m 1,66,-1
 271 1581 l 1,67,-1
 279 1581 l 1,68,-1
 279 1606 l 1,69,-1
 271 1606 l 1,66,-1
279 1548 m 1,70,71
 254 915 254 915 213 585 c 1,72,-1
 271 593 l 1,73,-1
 378 593 l 1,74,75
 346 765 346 765 312 1375 c 1,76,77
 300 1375 300 1375 287 1548 c 1,78,-1
 279 1548 l 1,70,71
336 634 m 1,79,-1
 353 618 l 1,80,-1
 345 609 l 1,81,-1
 336 609 l 1,82,-1
 328 618 l 1,83,-1
 320 618 l 1,84,-1
 312 609 l 1,85,-1
 304 618 l 1,86,-1
 304 626 l 1,87,-1
 312 634 l 1,88,-1
 336 634 l 1,79,-1
EndSplineSet
EndChar

StartChar: B
Encoding: 66 66 36
Width: 814
GlyphClass: 2
Flags: W
LayerCount: 2
Fore
SplineSet
133 1873 m 1,0,1
 399 1816 399 1816 462 1721 c 1,2,3
 496 1683 496 1683 512 1586 c 1,4,-1
 521 1578 l 1,5,6
 521 1329 521 1329 361 1215 c 1,7,-1
 302 1164 l 1,8,9
 559 1052 559 1052 681 818 c 1,10,11
 774 626 774 626 774 489 c 0,12,13
 774 194 774 194 521 42 c 1,14,-1
 192 0 l 1,15,16
 142 0 142 0 107 1519 c 1,17,-1
 107 1789 l 1,18,19
 40 1789 40 1789 40 1822 c 2,20,-1
 40 1839 l 2,21,22
 40 1865 40 1865 133 1873 c 1,0,1
242 1780 m 1,23,-1
 259 1257 l 1,24,-1
 268 1232 l 1,25,26
 445 1360 445 1360 445 1569 c 2,27,-1
 445 1611 l 2,28,29
 445 1690 445 1690 293 1772 c 1,30,-1
 242 1780 l 1,23,-1
268 1114 m 1,31,-1
 268 1105 l 1,32,-1
 276 641 l 1,33,34
 302 576 302 576 327 93 c 1,35,-1
 361 93 l 1,36,-1
 504 135 l 1,37,38
 715 244 715 244 715 472 c 2,39,-1
 715 489 l 2,40,41
 715 649 715 649 614 793 c 1,42,43
 588 793 588 793 588 818 c 1,44,-1
 597 844 l 1,45,-1
 588 844 l 1,46,47
 509 983 509 983 369 1038 c 1,48,-1
 268 1114 l 1,31,-1
656 127 m 1,49,-1
 673 110 l 1,50,-1
 673 101 l 1,51,-1
 639 59 l 1,52,-1
 622 59 l 1,53,-1
 605 76 l 1,54,-1
 656 127 l 1,49,-1
EndSplineSet
EndChar

StartChar: C
Encoding: 67 67 37
Width: 577
GlyphClass: 2
Flags: W
LayerCount: 2
Fore
SplineSet
280 1858 m 2,0,-1
 288 1858 l 2,1,2
 377 1858 377 1858 434 1764 c 1,3,-1
 434 1755 l 2,4,5
 434 1653 434 1653 400 1653 c 2,6,-1
 382 1653 l 2,7,8
 368 1653 368 1653 357 1704 c 1,9,-1
 365 1738 l 1,10,-1
 365 1747 l 1,11,-1
 323 1755 l 1,12,13
 224 1673 224 1673 211 1558 c 1,14,-1
 186 1421 l 1,15,-1
 194 1387 l 1,16,17
 151 1203 151 1203 151 1036 c 0,18,19
 151 383 151 383 391 111 c 1,20,21
 442 204 442 204 442 240 c 2,22,-1
 442 257 l 1,23,24
 408 257 408 257 408 274 c 2,25,-1
 408 300 l 1,26,-1
 434 325 l 1,27,-1
 468 325 l 2,28,29
 511 325 511 325 511 223 c 1,30,-1
 519 231 l 1,31,-1
 528 231 l 1,32,-1
 537 223 l 1,33,-1
 537 214 l 1,34,35
 485 214 485 214 485 128 c 1,36,37
 440 28 440 28 391 0 c 1,38,-1
 365 0 l 2,39,40
 282 0 282 0 220 103 c 1,41,-1
 203 86 l 1,42,43
 168 122 168 122 168 154 c 1,44,-1
 186 171 l 1,45,46
 40 469 40 469 40 1036 c 0,47,48
 40 1397 40 1397 160 1738 c 1,49,50
 222 1858 222 1858 280 1858 c 2,0,-1
194 163 m 1,51,-1
 194 154 l 1,52,-1
 203 128 l 1,53,-1
 211 128 l 1,54,-1
 211 137 l 1,55,-1
 203 163 l 1,56,-1
 194 163 l 1,51,-1
EndSplineSet
EndChar

StartChar: D
Encoding: 68 68 38
Width: 704
GlyphClass: 2
Flags: W
LayerCount: 2
Fore
SplineSet
124 1873 m 1,0,-1
 175 1856 l 1,1,-1
 209 1865 l 1,2,3
 435 1764 435 1764 555 1544 c 1,4,5
 664 1264 664 1264 664 979 c 0,6,7
 664 446 664 446 496 169 c 1,8,9
 346 0 346 0 183 0 c 2,10,-1
 65 0 l 1,11,-1
 40 25 l 1,12,-1
 40 34 l 2,13,14
 40 61 40 61 99 67 c 1,15,-1
 99 93 l 1,16,17
 65 93 65 93 65 110 c 2,18,-1
 65 127 l 1,19,-1
 91 127 l 1,20,-1
 99 118 l 1,21,-1
 107 118 l 1,22,-1
 107 127 l 1,23,-1
 99 219 l 1,24,25
 116 499 116 499 124 1746 c 1,26,27
 91 1746 91 1746 91 1763 c 1,28,-1
 107 1780 l 1,29,-1
 116 1772 l 1,30,-1
 124 1772 l 1,31,-1
 124 1780 l 1,32,-1
 74 1814 l 1,33,-1
 74 1831 l 1,34,35
 90 1861 90 1861 124 1873 c 1,0,-1
259 1730 m 1,36,37
 226 1241 226 1241 226 346 c 2,38,-1
 226 169 l 1,39,-1
 217 135 l 1,40,-1
 226 84 l 1,41,42
 428 166 428 166 428 245 c 1,43,-1
 453 253 l 1,44,-1
 479 245 l 1,45,-1
 479 253 l 1,46,47
 605 487 605 487 605 987 c 0,48,49
 605 1255 605 1255 496 1519 c 1,50,-1
 487 1510 l 1,51,-1
 479 1510 l 1,52,-1
 462 1527 l 1,53,-1
 462 1536 l 1,54,-1
 479 1552 l 1,55,56
 479 1614 479 1614 259 1730 c 1,36,37
EndSplineSet
EndChar

StartChar: E
Encoding: 69 69 39
Width: 493
GlyphClass: 2
Flags: W
LayerCount: 2
Fore
SplineSet
271 1884 m 1,0,1
 395 1884 395 1884 395 1768 c 2,2,-1
 395 1744 l 1,3,-1
 371 1727 l 1,4,-1
 354 1727 l 2,5,6
 336 1727 336 1727 329 1810 c 1,7,-1
 247 1818 l 1,8,-1
 164 1818 l 1,9,-1
 139 1793 l 1,10,-1
 139 1496 l 2,11,12
 139 1215 139 1215 164 1215 c 1,13,-1
 156 1173 l 1,14,-1
 156 1116 l 1,15,-1
 172 1049 l 1,16,-1
 172 1025 l 1,17,18
 205 1025 205 1025 205 934 c 1,19,20
 245 934 245 934 263 983 c 1,21,-1
 271 983 l 1,22,23
 337 920 337 920 337 892 c 2,24,-1
 337 884 l 1,25,-1
 313 868 l 1,26,-1
 304 876 l 1,27,28
 304 843 304 843 288 843 c 2,29,-1
 271 843 l 2,30,31
 251 843 251 843 247 876 c 1,32,-1
 189 868 l 1,33,-1
 164 876 l 1,34,-1
 164 868 l 2,35,36
 164 611 164 611 222 91 c 1,37,-1
 247 91 l 1,38,-1
 271 107 l 1,39,40
 296 66 296 66 387 66 c 1,41,-1
 395 74 l 1,42,-1
 395 83 l 1,43,-1
 387 140 l 1,44,-1
 395 149 l 1,45,-1
 428 149 l 1,46,47
 453 140 453 140 453 99 c 0,48,49
 453 8 453 8 337 8 c 1,50,-1
 263 0 l 1,51,52
 108 0 108 0 90 41 c 1,53,-1
 90 58 l 1,54,55
 65 461 65 461 40 1512 c 1,56,-1
 40 1669 l 2,57,58
 40 1851 40 1851 81 1851 c 1,59,60
 128 1874 128 1874 271 1884 c 1,0,1
EndSplineSet
EndChar

StartChar: F
Encoding: 70 70 40
Width: 433
GlyphClass: 2
Flags: W
LayerCount: 2
Fore
SplineSet
254 1865 m 2,0,-1
 303 1865 l 2,1,2
 393 1865 393 1865 393 1750 c 2,3,-1
 393 1734 l 1,4,-1
 377 1717 l 1,5,-1
 352 1717 l 2,6,7
 336 1717 336 1717 336 1742 c 1,8,-1
 328 1734 l 1,9,-1
 319 1734 l 1,10,-1
 303 1750 l 1,11,-1
 303 1758 l 1,12,-1
 319 1775 l 1,13,-1
 328 1766 l 1,14,-1
 336 1766 l 1,15,-1
 336 1775 l 2,16,17
 336 1796 336 1796 270 1807 c 1,18,-1
 147 1799 l 1,19,-1
 139 1668 l 1,20,-1
 163 928 l 1,21,-1
 245 928 l 1,22,23
 245 978 245 978 270 978 c 1,24,-1
 303 945 l 1,25,-1
 303 846 l 1,26,-1
 286 830 l 1,27,-1
 278 830 l 1,28,-1
 237 871 l 1,29,-1
 163 846 l 1,30,-1
 196 805 l 1,31,-1
 196 764 l 1,32,-1
 171 731 l 1,33,34
 171 596 171 596 221 66 c 1,35,-1
 229 58 l 1,36,-1
 270 66 l 1,37,-1
 278 66 l 1,38,-1
 303 41 l 1,39,-1
 270 8 l 1,40,-1
 245 16 l 1,41,-1
 229 0 l 1,42,-1
 196 8 l 1,43,-1
 106 0 l 1,44,-1
 81 0 l 1,45,-1
 65 16 l 1,46,-1
 65 41 l 1,47,-1
 89 74 l 1,48,-1
 40 1610 l 1,49,-1
 48 1816 l 1,50,51
 118 1865 118 1865 254 1865 c 2,0,-1
EndSplineSet
EndChar

StartChar: G
Encoding: 71 71 41
Width: 544
GlyphClass: 2
Flags: W
LayerCount: 2
Fore
SplineSet
217 1858 m 2,0,-1
 259 1858 l 1,1,2
 420 1841 420 1841 420 1765 c 0,3,4
 420 1708 420 1708 378 1681 c 1,5,6
 357 1681 357 1681 352 1714 c 1,7,-1
 361 1774 l 1,8,9
 328 1799 328 1799 268 1799 c 0,10,11
 219 1799 219 1799 175 1613 c 1,12,-1
 175 1596 l 1,13,-1
 184 1596 l 1,14,-1
 184 1630 l 1,15,-1
 192 1630 l 2,16,17
 209 1630 209 1630 209 1605 c 1,18,19
 200 1554 200 1554 184 1554 c 1,20,-1
 175 1588 l 1,21,-1
 167 1588 l 1,22,-1
 150 1377 l 1,23,-1
 150 1166 l 1,24,-1
 167 1090 l 1,25,-1
 158 1081 l 1,26,-1
 175 980 l 1,27,-1
 167 972 l 1,28,-1
 167 963 l 1,29,-1
 184 912 l 1,30,-1
 184 887 l 2,31,32
 184 845 184 845 167 845 c 1,33,-1
 175 837 l 1,34,-1
 175 828 l 1,35,-1
 158 744 l 1,36,37
 197 102 197 102 293 102 c 1,38,-1
 335 94 l 1,39,-1
 352 94 l 1,40,-1
 344 136 l 1,41,-1
 361 153 l 1,42,-1
 369 153 l 1,43,-1
 395 136 l 1,44,-1
 361 575 l 1,45,-1
 369 583 l 1,46,-1
 369 592 l 1,47,-1
 361 600 l 1,48,-1
 361 609 l 1,49,-1
 369 642 l 1,50,51
 369 657 369 657 310 693 c 1,52,-1
 310 710 l 1,53,54
 319 735 319 735 361 735 c 2,55,-1
 454 735 l 1,56,-1
 479 718 l 1,57,-1
 462 533 l 1,58,-1
 504 34 l 1,59,60
 504 9 504 9 454 -16 c 1,61,-1
 403 18 l 1,62,-1
 327 1 l 1,63,-1
 293 1 l 2,64,65
 176 1 176 1 91 203 c 1,66,67
 40 405 40 405 40 946 c 1,68,69
 62 1655 62 1655 99 1655 c 1,70,71
 145 1858 145 1858 217 1858 c 2,0,-1
EndSplineSet
EndChar

StartChar: H
Encoding: 72 72 42
Width: 636
GlyphClass: 2
Flags: W
LayerCount: 2
Fore
SplineSet
375 1865 m 2,0,-1
 465 1865 l 2,1,2
 484 1865 484 1865 490 1824 c 1,3,-1
 449 1808 l 1,4,5
 452 1644 452 1644 465 1644 c 1,6,-1
 457 1611 l 1,7,8
 498 223 498 223 531 65 c 1,9,-1
 572 65 l 1,10,-1
 596 41 l 1,11,12
 596 8 596 8 490 0 c 1,13,14
 376 11 376 11 367 41 c 1,15,-1
 367 49 l 1,16,-1
 400 74 l 1,17,-1
 367 474 l 1,18,-1
 375 532 l 1,19,-1
 367 728 l 1,20,-1
 367 818 l 1,21,-1
 326 810 l 1,22,-1
 318 818 l 1,23,-1
 318 826 l 1,24,-1
 343 851 l 1,25,-1
 351 843 l 1,26,-1
 359 843 l 1,27,-1
 359 859 l 1,28,-1
 351 859 l 2,29,30
 261 859 261 859 130 883 c 1,31,32
 151 434 151 434 179 434 c 1,33,-1
 171 393 l 1,34,-1
 187 376 l 1,35,36
 181 254 181 254 163 254 c 1,37,-1
 187 74 l 1,38,-1
 236 74 l 1,39,-1
 253 57 l 1,40,-1
 253 41 l 2,41,42
 253 27 253 27 155 8 c 1,43,-1
 146 16 l 1,44,-1
 138 8 l 1,45,-1
 130 8 l 1,46,-1
 97 33 l 1,47,-1
 97 41 l 1,48,-1
 130 65 l 1,49,50
 99 65 99 65 56 1628 c 1,51,-1
 65 1800 l 1,52,-1
 40 1824 l 1,53,-1
 40 1832 l 1,54,-1
 65 1857 l 1,55,-1
 97 1857 l 2,56,57
 160 1857 160 1857 171 1824 c 1,58,59
 154 1791 154 1791 130 1791 c 1,60,-1
 130 1693 l 1,61,-1
 122 1587 l 1,62,-1
 130 1546 l 1,63,-1
 122 1464 l 1,64,-1
 122 1448 l 1,65,-1
 130 1448 l 1,66,-1
 122 1391 l 1,67,-1
 122 1170 l 2,68,69
 122 1119 122 1119 155 1006 c 1,70,-1
 155 941 l 1,71,-1
 163 941 l 1,72,-1
 359 924 l 1,73,-1
 351 933 l 1,74,-1
 351 941 l 1,75,76
 318 1360 318 1360 318 1652 c 2,77,-1
 318 1816 l 1,78,79
 285 1816 285 1816 285 1832 c 2,80,-1
 285 1840 l 2,81,82
 285 1865 285 1865 375 1865 c 2,0,-1
EndSplineSet
EndChar

StartChar: I
Encoding: 73 73 43
Width: 276
GlyphClass: 2
Flags: W
LayerCount: 2
Fore
SplineSet
122 1865 m 1,0,1
 212 1859 212 1859 212 1840 c 2,2,-1
 212 1832 l 1,3,4
 195 1800 195 1800 171 1800 c 1,5,6
 194 1571 194 1571 204 90 c 0,7,8
 204 65 204 65 228 65 c 1,9,-1
 236 57 l 1,10,-1
 236 33 l 2,11,12
 236 13 236 13 89 0 c 1,13,-1
 73 82 l 1,14,-1
 81 90 l 1,15,-1
 89 90 l 1,16,-1
 97 65 l 1,17,-1
 105 65 l 1,18,-1
 105 82 l 2,19,20
 105 401 105 401 73 401 c 1,21,-1
 81 499 l 1,22,-1
 65 556 l 1,23,24
 89 602 89 602 89 663 c 1,25,-1
 48 1652 l 1,26,-1
 65 1775 l 1,27,-1
 40 1800 l 1,28,-1
 40 1832 l 2,29,30
 40 1857 40 1857 122 1865 c 1,0,1
EndSplineSet
EndChar

StartChar: J
Encoding: 74 74 44
Width: 387
GlyphClass: 2
Flags: W
LayerCount: 2
Fore
SplineSet
177 1850 m 2,0,-1
 279 1850 l 1,1,-1
 313 1816 l 1,2,-1
 304 1807 l 1,3,4
 339 1705 339 1705 347 766 c 1,5,-1
 339 127 l 1,6,7
 339 -48 339 -48 91 -78 c 1,8,9
 40 -60 40 -60 40 -44 c 2,10,-1
 40 16 l 1,11,-1
 57 33 l 1,12,-1
 66 33 l 1,13,-1
 91 16 l 1,14,-1
 108 33 l 1,15,-1
 108 7 l 1,16,-1
 91 7 l 1,17,-1
 91 -1 l 1,18,-1
 100 -26 l 1,19,-1
 125 -26 l 1,20,21
 253 9 253 9 253 272 c 1,22,-1
 262 493 l 1,23,-1
 262 545 l 1,24,-1
 245 707 l 1,25,-1
 262 724 l 1,26,-1
 262 801 l 2,27,28
 262 843 262 843 245 843 c 1,29,-1
 253 886 l 1,30,31
 237 1782 237 1782 202 1782 c 1,32,33
 100 1790 100 1790 100 1807 c 2,34,-1
 100 1816 l 1,35,36
 111 1850 111 1850 177 1850 c 2,0,-1
133 852 m 1,37,-1
 145 852 l 1,38,-1
 156 840 l 1,39,-1
 156 834 l 1,40,-1
 145 834 l 1,41,-1
 133 846 l 1,42,-1
 133 852 l 1,37,-1
EndSplineSet
EndChar

StartChar: K
Encoding: 75 75 45
Width: 604
GlyphClass: 2
Flags: W
LayerCount: 2
Fore
SplineSet
514 1880 m 1,0,-1
 531 1855 l 1,1,-1
 531 1830 l 1,2,-1
 522 1822 l 1,3,4
 448 1805 448 1805 448 1722 c 1,5,6
 356 1502 356 1502 281 1081 c 1,7,-1
 290 1090 l 1,8,-1
 306 1090 l 1,9,-1
 323 1073 l 1,10,-1
 306 1056 l 1,11,-1
 298 1065 l 1,12,-1
 290 1065 l 1,13,-1
 290 1048 l 1,14,-1
 439 241 l 1,15,16
 456 241 456 241 456 200 c 2,17,-1
 456 191 l 1,18,-1
 448 183 l 1,19,20
 475 67 475 67 489 67 c 1,21,-1
 556 75 l 1,22,-1
 564 67 l 1,23,-1
 564 50 l 2,24,25
 564 23 564 23 481 0 c 1,26,27
 364 11 364 11 364 42 c 2,28,-1
 364 50 l 1,29,-1
 381 75 l 1,30,31
 315 292 315 292 231 948 c 1,32,-1
 223 948 l 1,33,34
 223 895 223 895 198 890 c 1,35,-1
 206 807 l 1,36,-1
 198 491 l 1,37,-1
 198 316 l 1,38,-1
 206 266 l 1,39,-1
 198 225 l 1,40,-1
 198 116 l 1,41,42
 231 116 231 116 231 100 c 2,43,-1
 231 92 l 1,44,-1
 215 67 l 1,45,-1
 240 42 l 1,46,-1
 215 17 l 1,47,-1
 123 17 l 1,48,-1
 107 33 l 1,49,-1
 107 42 l 1,50,-1
 132 67 l 1,51,-1
 115 408 l 1,52,-1
 115 857 l 1,53,-1
 90 1639 l 1,54,-1
 98 1805 l 1,55,56
 45 1805 45 1805 40 1830 c 1,57,-1
 40 1847 l 1,58,59
 45 1872 45 1872 107 1872 c 2,60,-1
 190 1872 l 1,61,-1
 215 1847 l 1,62,-1
 215 1838 l 1,63,64
 206 1813 206 1813 165 1813 c 1,65,66
 181 1751 181 1751 181 1630 c 1,67,-1
 173 1581 l 1,68,69
 198 1398 198 1398 198 1065 c 2,70,-1
 198 1015 l 1,71,-1
 206 1015 l 1,72,-1
 364 1755 l 1,73,74
 339 1755 339 1755 339 1772 c 2,75,-1
 339 1788 l 1,76,-1
 348 1788 l 2,77,78
 364 1788 364 1788 364 1764 c 1,79,-1
 373 1764 l 1,80,-1
 381 1805 l 1,81,82
 339 1816 339 1816 339 1830 c 2,83,-1
 339 1838 l 2,84,85
 339 1880 339 1880 514 1880 c 1,0,-1
EndSplineSet
EndChar

StartChar: L
Encoding: 76 76 46
Width: 558
GlyphClass: 2
Flags: W
LayerCount: 2
Fore
SplineSet
149 1880 m 1,0,1
 250 1868 250 1868 250 1821 c 1,2,3
 214 1796 214 1796 183 1796 c 1,4,-1
 208 1662 l 1,5,-1
 191 1595 l 1,6,-1
 191 1578 l 1,7,-1
 199 1578 l 1,8,-1
 191 1444 l 1,9,-1
 216 487 l 1,10,-1
 199 210 l 1,11,-1
 216 59 l 1,12,13
 443 80 443 80 443 101 c 2,14,-1
 443 168 l 1,15,16
 448 218 448 218 468 218 c 2,17,-1
 485 218 l 2,18,19
 508 218 508 218 518 34 c 1,20,21
 518 12 518 12 132 0 c 1,22,23
 94 16 94 16 90 34 c 1,24,25
 90 62 90 62 116 92 c 1,26,-1
 99 193 l 1,27,28
 116 328 116 328 124 797 c 1,29,30
 103 1821 103 1821 82 1821 c 0,31,32
 40 1821 40 1821 40 1846 c 2,33,-1
 40 1855 l 2,34,35
 40 1874 40 1874 149 1880 c 1,0,1
241 118 m 1,36,-1
 250 118 l 1,37,-1
 250 101 l 1,38,-1
 233 84 l 1,39,-1
 225 92 l 1,40,-1
 225 101 l 1,41,-1
 241 118 l 1,36,-1
EndSplineSet
EndChar

StartChar: M
Encoding: 77 77 47
Width: 899
GlyphClass: 2
Flags: W
LayerCount: 2
Fore
SplineSet
199 1880 m 1,0,1
 257 1875 257 1875 257 1830 c 1,2,3
 230 1805 230 1805 207 1805 c 1,4,5
 316 1228 316 1228 433 719 c 1,6,-1
 441 719 l 1,7,8
 533 1405 533 1405 650 1813 c 1,9,-1
 642 1813 l 2,10,11
 617 1813 617 1813 617 1830 c 2,12,-1
 617 1847 l 2,13,14
 617 1872 617 1872 717 1872 c 1,15,16
 792 1867 792 1867 792 1847 c 2,17,-1
 792 1838 l 2,18,19
 792 1819 792 1819 750 1813 c 1,20,-1
 742 1629 l 1,21,-1
 759 1320 l 1,22,-1
 750 1245 l 1,23,-1
 800 284 l 1,24,-1
 792 259 l 1,25,-1
 809 242 l 1,26,-1
 809 217 l 1,27,-1
 800 159 l 1,28,29
 817 159 817 159 825 100 c 1,30,-1
 817 92 l 1,31,-1
 817 84 l 2,32,33
 817 58 817 58 850 58 c 1,34,-1
 859 50 l 1,35,-1
 859 33 l 1,36,-1
 834 8 l 1,37,-1
 692 8 l 1,38,-1
 633 0 l 1,39,-1
 617 25 l 1,40,-1
 617 33 l 2,41,42
 617 50 617 50 667 58 c 1,43,-1
 658 242 l 1,44,-1
 658 292 l 1,45,-1
 633 343 l 1,46,47
 650 413 650 413 650 526 c 2,48,-1
 650 1604 l 1,49,-1
 642 1604 l 1,50,-1
 525 978 l 1,51,-1
 533 936 l 1,52,53
 500 847 500 847 474 643 c 1,54,55
 452 588 452 588 424 577 c 1,56,-1
 416 577 l 1,57,-1
 399 593 l 1,58,-1
 391 585 l 1,59,-1
 374 585 l 1,60,-1
 358 602 l 1,61,-1
 358 618 l 1,62,-1
 383 643 l 1,63,64
 383 683 383 683 324 769 c 1,65,-1
 324 777 l 1,66,-1
 332 785 l 1,67,68
 224 1277 224 1277 224 1337 c 1,69,-1
 215 1337 l 1,70,-1
 215 1303 l 1,71,-1
 232 301 l 1,72,-1
 224 84 l 1,73,74
 299 72 299 72 299 50 c 2,75,-1
 299 42 l 2,76,77
 299 11 299 11 174 0 c 1,78,-1
 90 0 l 1,79,-1
 65 25 l 1,80,-1
 65 33 l 1,81,-1
 98 58 l 1,82,-1
 98 75 l 1,83,-1
 90 827 l 1,84,-1
 115 1245 l 1,85,-1
 107 1462 l 1,86,-1
 115 1471 l 1,87,-1
 115 1479 l 1,88,89
 107 1550 107 1550 73 1579 c 1,90,-1
 73 1596 l 1,91,-1
 90 1613 l 1,92,-1
 73 1654 l 1,93,-1
 98 1671 l 1,94,-1
 90 1679 l 1,95,-1
 90 1688 l 1,96,-1
 98 1721 l 1,97,-1
 90 1730 l 1,98,-1
 98 1771 l 1,99,-1
 98 1805 l 1,100,101
 40 1816 40 1816 40 1838 c 0,102,103
 40 1863 40 1863 199 1880 c 1,0,1
EndSplineSet
EndChar

StartChar: N
Encoding: 78 78 48
Width: 766
GlyphClass: 2
Flags: W
LayerCount: 2
Fore
SplineSet
90 1891 m 1,0,-1
 132 1891 l 2,1,2
 243 1891 243 1891 266 1849 c 1,3,-1
 266 1841 l 1,4,5
 254 1807 254 1807 199 1807 c 1,6,7
 341 1472 341 1472 492 996 c 1,8,9
 509 996 509 996 509 946 c 1,10,-1
 534 962 l 1,11,-1
 542 962 l 1,12,-1
 559 946 l 1,13,-1
 559 937 l 2,14,15
 559 920 559 920 525 920 c 1,16,-1
 525 912 l 1,17,18
 553 854 553 854 576 853 c 1,19,-1
 576 1054 l 1,20,-1
 567 1088 l 1,21,-1
 576 1096 l 1,22,-1
 567 1180 l 1,23,-1
 567 1673 l 1,24,-1
 576 1765 l 1,25,26
 576 1818 576 1818 509 1824 c 1,27,-1
 500 1832 l 1,28,-1
 500 1849 l 2,29,30
 500 1876 500 1876 584 1883 c 1,31,32
 726 1883 726 1883 726 1858 c 2,33,-1
 726 1841 l 1,34,-1
 701 1816 l 1,35,-1
 701 1807 l 1,36,-1
 693 1807 l 1,37,-1
 684 1816 l 1,38,-1
 676 1816 l 1,39,-1
 651 1765 l 1,40,-1
 659 1682 l 1,41,-1
 668 1029 l 1,42,-1
 659 820 l 1,43,-1
 676 117 l 1,44,-1
 684 126 l 1,45,-1
 693 126 l 1,46,-1
 709 109 l 1,47,-1
 693 92 l 1,48,-1
 668 109 l 1,49,-1
 668 75 l 1,50,51
 726 67 726 67 726 50 c 2,52,-1
 726 42 l 2,53,54
 726 17 726 17 617 0 c 1,55,56
 517 21 517 21 517 42 c 1,57,58
 531 75 531 75 576 75 c 1,59,-1
 567 84 l 1,60,-1
 567 100 l 1,61,-1
 576 100 l 1,62,-1
 567 184 l 1,63,-1
 567 243 l 1,64,-1
 576 653 l 1,65,66
 492 793 492 793 308 1322 c 1,67,68
 291 1322 291 1322 283 1406 c 1,69,-1
 266 1422 l 1,70,-1
 274 1464 l 1,71,72
 254 1464 254 1464 224 1556 c 1,73,-1
 199 1556 l 1,74,75
 216 1125 216 1125 216 310 c 2,76,-1
 216 276 l 2,77,78
 216 84 216 84 274 84 c 1,79,-1
 283 75 l 1,80,-1
 283 67 l 2,81,82
 283 17 283 17 149 17 c 0,83,84
 48 17 48 17 48 75 c 1,85,-1
 99 100 l 1,86,-1
 90 142 l 1,87,-1
 90 594 l 1,88,-1
 65 619 l 1,89,90
 107 753 107 753 107 1222 c 1,91,-1
 73 1824 l 1,92,93
 40 1824 40 1824 40 1849 c 1,94,-1
 90 1891 l 1,0,-1
EndSplineSet
EndChar

StartChar: O
Encoding: 79 79 49
Width: 548
GlyphClass: 2
Flags: W
LayerCount: 2
Fore
SplineSet
244 1873 m 0,0,1
 348 1873 348 1873 440 1601 c 1,2,-1
 432 1592 l 1,3,4
 508 1338 508 1338 508 902 c 2,5,-1
 508 741 l 1,6,7
 483 127 483 127 398 43 c 1,8,9
 398 20 398 20 355 0 c 1,10,-1
 304 0 l 1,11,12
 103 31 103 31 49 639 c 1,13,-1
 40 962 l 1,14,-1
 40 1013 l 2,15,16
 40 1426 40 1426 142 1813 c 1,17,18
 179 1873 179 1873 244 1873 c 0,0,1
244 1788 m 1,19,20
 134 1473 134 1473 134 1175 c 1,21,-1
 108 919 l 1,22,23
 129 601 129 601 151 536 c 1,24,-1
 142 511 l 1,25,-1
 151 511 l 2,26,27
 185 511 185 511 185 417 c 1,28,-1
 176 417 l 1,29,-1
 185 409 l 1,30,-1
 185 383 l 1,31,-1
 168 383 l 1,32,33
 273 111 273 111 295 111 c 1,34,-1
 304 119 l 1,35,-1
 321 119 l 1,36,37
 327 68 327 68 364 68 c 1,38,-1
 364 77 l 1,39,-1
 346 102 l 1,40,-1
 346 111 l 1,41,42
 398 180 398 180 398 221 c 1,43,-1
 389 247 l 1,44,45
 429 264 429 264 457 860 c 1,46,47
 457 1314 457 1314 355 1635 c 1,48,-1
 312 1754 l 1,49,-1
 287 1737 l 1,50,-1
 270 1788 l 1,51,-1
 244 1788 l 1,19,20
EndSplineSet
EndChar

StartChar: P
Encoding: 80 80 50
Width: 580
GlyphClass: 2
Flags: W
LayerCount: 2
Fore
SplineSet
108 1888 m 1,0,-1
 150 1880 l 1,1,-1
 192 1880 l 2,2,3
 444 1880 444 1880 523 1702 c 1,4,-1
 540 1515 l 1,5,6
 540 1036 540 1036 472 889 c 1,7,-1
 345 770 l 1,8,-1
 319 779 l 1,9,10
 319 754 319 754 286 754 c 1,11,-1
 260 762 l 1,12,13
 260 745 260 745 209 745 c 1,14,15
 209 720 209 720 184 703 c 1,16,17
 184 557 184 557 209 347 c 1,18,-1
 201 288 l 1,19,-1
 209 127 l 1,20,-1
 209 85 l 2,21,22
 209 68 209 68 277 59 c 1,23,-1
 286 51 l 1,24,-1
 286 42 l 1,25,-1
 209 0 l 1,26,27
 82 6 82 6 82 34 c 1,28,-1
 108 68 l 1,29,-1
 99 102 l 1,30,-1
 116 186 l 1,31,32
 91 832 91 832 74 923 c 1,33,-1
 82 974 l 1,34,35
 48 1433 48 1433 48 1651 c 1,36,-1
 65 1837 l 1,37,38
 40 1837 40 1837 40 1854 c 1,39,-1
 48 1863 l 1,40,41
 48 1880 48 1880 108 1880 c 1,42,-1
 108 1888 l 1,0,-1
159 1769 m 1,43,-1
 175 855 l 1,44,-1
 201 855 l 2,45,46
 429 855 429 855 438 957 c 1,47,-1
 429 982 l 1,48,-1
 438 974 l 1,49,-1
 446 974 l 2,50,51
 470 974 470 974 489 1422 c 1,52,-1
 489 1524 l 2,53,54
 489 1769 489 1769 362 1769 c 1,55,56
 362 1786 362 1786 294 1786 c 1,57,-1
 159 1769 l 1,43,-1
EndSplineSet
EndChar

StartChar: Q
Encoding: 81 81 51
Width: 575
GlyphClass: 2
Flags: W
LayerCount: 2
Fore
SplineSet
262 1858 m 1,0,1
 407 1773 407 1773 407 1679 c 1,2,3
 486 1527 486 1527 527 842 c 1,4,-1
 527 791 l 1,5,-1
 518 748 l 1,6,-1
 535 731 l 1,7,8
 516 731 516 731 493 355 c 1,9,10
 432 -11 432 -11 382 -11 c 1,11,-1
 424 -80 l 1,12,-1
 450 -80 l 1,13,14
 456 -37 456 -37 475 -37 c 2,15,-1
 493 -37 l 1,16,-1
 518 -63 l 1,17,18
 501 -124 501 -124 450 -157 c 1,19,-1
 416 -157 l 2,20,21
 370 -157 370 -157 305 -71 c 1,22,-1
 296 -71 l 1,23,-1
 271 -80 l 1,24,-1
 262 -71 l 1,25,-1
 262 -37 l 1,26,-1
 279 -11 l 1,27,28
 40 88 40 88 40 1021 c 1,29,30
 82 1858 82 1858 219 1858 c 2,31,-1
 262 1858 l 1,0,1
262 1738 m 1,32,-1
 262 1713 l 1,33,34
 197 1668 197 1668 168 1482 c 1,35,-1
 117 919 l 1,36,37
 117 697 117 697 160 577 c 1,38,39
 160 509 160 509 177 509 c 1,40,-1
 168 466 l 1,41,-1
 168 458 l 1,42,-1
 185 364 l 1,43,-1
 177 355 l 1,44,-1
 177 347 l 1,45,46
 286 48 286 48 364 48 c 1,47,48
 458 396 458 396 458 808 c 2,49,-1
 458 893 l 1,50,51
 433 1509 433 1509 373 1559 c 1,52,53
 327 1781 327 1781 271 1781 c 1,54,55
 236 1773 236 1773 236 1738 c 1,56,-1
 262 1738 l 1,32,-1
EndSplineSet
EndChar

StartChar: R
Encoding: 82 82 52
Width: 769
GlyphClass: 2
Flags: W
LayerCount: 2
Fore
SplineSet
149 1865 m 1,0,-1
 200 1857 l 1,1,-1
 242 1865 l 1,2,3
 503 1865 503 1865 586 1663 c 1,4,5
 620 1557 620 1557 620 1504 c 2,6,-1
 620 1403 l 2,7,8
 620 1172 620 1172 384 815 c 1,9,-1
 611 76 l 1,10,-1
 611 67 l 1,11,-1
 636 67 l 2,12,13
 729 67 729 67 729 42 c 1,14,15
 707 0 707 0 603 0 c 1,16,17
 494 11 494 11 494 34 c 0,18,19
 494 46 494 46 527 59 c 1,20,21
 393 413 393 413 334 756 c 1,22,23
 311 756 311 756 208 622 c 1,24,-1
 225 277 l 1,25,-1
 216 185 l 1,26,-1
 225 101 l 1,27,-1
 216 59 l 1,28,-1
 300 67 l 1,29,-1
 326 42 l 1,30,-1
 326 34 l 2,31,32
 326 6 326 6 191 0 c 1,33,-1
 166 0 l 2,34,35
 102 0 102 0 90 34 c 1,36,-1
 90 50 l 1,37,-1
 124 50 l 1,38,-1
 116 59 l 1,39,-1
 116 126 l 1,40,-1
 107 193 l 1,41,-1
 116 235 l 1,42,-1
 107 319 l 1,43,-1
 116 571 l 1,44,-1
 116 655 l 2,45,46
 116 1049 116 1049 65 1428 c 1,47,-1
 74 1462 l 1,48,-1
 65 1638 l 1,49,-1
 65 1773 l 1,50,-1
 40 1806 l 1,51,-1
 40 1823 l 2,52,53
 40 1857 40 1857 149 1865 c 1,0,-1
233 1781 m 1,54,-1
 216 1781 l 2,55,56
 198 1781 198 1781 191 1689 c 1,57,-1
 208 1378 l 1,58,-1
 200 1327 l 1,59,-1
 208 1235 l 1,60,-1
 191 756 l 1,61,62
 258 756 258 756 300 874 c 1,63,-1
 443 1117 l 1,64,65
 536 1191 536 1191 536 1311 c 1,66,-1
 561 1336 l 1,67,-1
 561 1420 l 2,68,69
 561 1688 561 1688 443 1756 c 1,70,-1
 351 1789 l 1,71,-1
 233 1781 l 1,54,-1
611 1193 m 1,72,-1
 620 1193 l 1,73,-1
 620 1176 l 1,74,-1
 611 1176 l 1,75,-1
 611 1193 l 1,72,-1
EndSplineSet
EndChar

StartChar: S
Encoding: 83 83 53
Width: 490
GlyphClass: 2
Flags: W
LayerCount: 2
Fore
SplineSet
182 1865 m 0,0,1
 330 1865 330 1865 400 1740 c 1,2,3
 400 1659 400 1659 349 1622 c 1,4,-1
 341 1622 l 1,5,-1
 324 1639 l 1,6,-1
 324 1656 l 1,7,-1
 341 1681 l 1,8,-1
 324 1698 l 1,9,-1
 308 1681 l 1,10,-1
 291 1698 l 1,11,-1
 291 1723 l 1,12,-1
 308 1723 l 1,13,14
 273 1765 273 1765 207 1765 c 2,15,-1
 140 1765 l 1,16,17
 90 1736 90 1736 90 1681 c 0,18,19
 90 1426 90 1426 308 912 c 1,20,21
 450 485 450 485 450 335 c 1,22,23
 407 17 407 17 274 17 c 1,24,25
 274 0 274 0 207 0 c 0,26,27
 136 0 136 0 82 92 c 1,28,29
 93 234 93 234 124 234 c 1,30,-1
 140 217 l 1,31,-1
 140 201 l 1,32,-1
 132 159 l 1,33,34
 177 109 177 109 257 109 c 1,35,36
 375 167 375 167 375 284 c 2,37,-1
 375 410 l 2,38,39
 375 592 375 592 216 995 c 1,40,41
 192 1019 192 1019 132 1229 c 1,42,43
 40 1479 40 1479 40 1681 c 1,44,45
 60 1865 60 1865 182 1865 c 0,0,1
191 167 m 1,46,-1
 199 159 l 1,47,-1
 199 134 l 1,48,-1
 191 134 l 1,49,-1
 174 151 l 1,50,-1
 191 167 l 1,46,-1
EndSplineSet
EndChar

StartChar: T
Encoding: 84 84 54
Width: 616
GlyphClass: 2
Flags: W
LayerCount: 2
Fore
SplineSet
417 1918 m 1,0,-1
 425 1910 l 1,1,-1
 425 1901 l 1,2,-1
 417 1893 l 1,3,-1
 409 1893 l 1,4,-1
 400 1901 l 1,5,-1
 400 1910 l 1,6,-1
 409 1918 l 1,7,-1
 417 1918 l 1,0,-1
174 1884 m 1,8,-1
 375 1868 l 1,9,-1
 417 1876 l 1,10,-1
 492 1859 l 1,11,-1
 543 1868 l 1,12,-1
 551 1868 l 2,13,14
 571 1868 571 1868 576 1801 c 1,15,16
 566 1717 566 1717 543 1717 c 2,17,-1
 526 1717 l 2,18,19
 509 1717 509 1717 501 1801 c 1,20,-1
 417 1792 l 1,21,-1
 375 1792 l 1,22,-1
 383 1784 l 1,23,-1
 383 1776 l 1,24,-1
 367 1583 l 1,25,-1
 367 1173 l 2,26,27
 367 1143 367 1143 400 1114 c 1,28,-1
 392 1106 l 1,29,-1
 392 1097 l 1,30,-1
 400 1089 l 1,31,32
 390 871 390 871 375 871 c 1,33,-1
 383 821 l 1,34,35
 400 216 400 216 434 67 c 1,36,37
 476 61 476 61 476 42 c 2,38,-1
 476 34 l 1,39,-1
 459 17 l 1,40,-1
 400 17 l 1,41,-1
 333 0 l 1,42,-1
 300 0 l 1,43,-1
 283 17 l 1,44,-1
 283 34 l 2,45,46
 283 53 283 53 325 59 c 1,47,-1
 266 1600 l 1,48,-1
 275 1792 l 1,49,-1
 249 1792 l 1,50,51
 249 1759 249 1759 233 1759 c 1,52,53
 233 1809 233 1809 99 1809 c 1,54,-1
 99 1725 l 1,55,-1
 82 1709 l 1,56,-1
 74 1709 l 2,57,58
 46 1709 46 1709 40 1843 c 1,59,60
 60 1865 60 1865 166 1876 c 1,61,-1
 174 1884 l 1,8,-1
275 779 m 1,62,-1
 291 779 l 1,63,-1
 291 771 l 1,64,-1
 275 771 l 1,65,-1
 275 779 l 1,62,-1
EndSplineSet
EndChar

StartChar: U
Encoding: 85 85 55
Width: 769
GlyphClass: 2
Flags: W
LayerCount: 2
Fore
SplineSet
90 1876 m 1,0,1
 256 1861 256 1861 256 1818 c 0,2,3
 256 1801 256 1801 231 1801 c 1,4,-1
 231 1793 l 1,5,6
 256 1793 256 1793 256 1776 c 1,7,-1
 239 1760 l 1,8,-1
 231 1760 l 1,9,-1
 223 1768 l 1,10,-1
 214 1768 l 1,11,-1
 223 1776 l 1,12,-1
 223 1793 l 1,13,-1
 198 1793 l 1,14,-1
 206 1751 l 1,15,-1
 198 1453 l 1,16,17
 198 457 198 457 355 208 c 1,18,-1
 414 141 l 1,19,-1
 414 149 l 1,20,-1
 397 174 l 1,21,-1
 414 191 l 1,22,-1
 455 141 l 1,23,-1
 430 133 l 1,24,25
 430 110 430 110 513 100 c 1,26,27
 513 131 513 131 580 133 c 1,28,-1
 580 174 l 1,29,-1
 596 191 l 1,30,-1
 604 191 l 1,31,-1
 613 183 l 1,32,-1
 621 183 l 1,33,-1
 621 191 l 1,34,-1
 613 266 l 1,35,-1
 621 274 l 1,36,-1
 629 274 l 1,37,-1
 638 266 l 1,38,-1
 663 548 l 1,39,40
 663 1261 663 1261 613 1635 c 1,41,-1
 621 1660 l 1,42,-1
 613 1710 l 1,43,-1
 613 1801 l 1,44,45
 576 1801 576 1801 563 1834 c 1,46,-1
 563 1859 l 1,47,-1
 571 1868 l 1,48,-1
 571 1876 l 1,49,-1
 654 1868 l 1,50,-1
 729 1868 l 1,51,-1
 729 1843 l 1,52,-1
 687 1785 l 1,53,-1
 671 1801 l 1,54,55
 671 1628 671 1628 712 1096 c 1,56,-1
 712 664 l 1,57,-1
 721 415 l 1,58,59
 706 415 706 415 679 216 c 1,60,61
 626 0 626 0 521 0 c 0,62,63
 290 0 290 0 189 324 c 1,64,-1
 156 623 l 1,65,-1
 165 656 l 1,66,67
 98 1577 98 1577 98 1776 c 1,68,-1
 40 1834 l 1,69,-1
 90 1876 l 1,0,1
EndSplineSet
EndChar

StartChar: V
Encoding: 86 86 56
Width: 746
GlyphClass: 2
Flags: W
LayerCount: 2
Fore
SplineSet
689 1888 m 1,0,-1
 706 1863 l 1,1,-1
 706 1846 l 1,2,3
 652 1846 652 1846 596 1197 c 1,4,5
 520 775 520 775 478 261 c 1,6,-1
 495 244 l 1,7,-1
 495 236 l 1,8,9
 470 205 470 205 470 118 c 1,10,-1
 478 126 l 1,11,-1
 487 126 l 1,12,-1
 495 118 l 1,13,-1
 495 67 l 1,14,15
 529 63 529 63 529 42 c 0,16,17
 529 0 529 0 360 0 c 1,18,19
 335 36 335 36 335 67 c 1,20,-1
 369 93 l 1,21,22
 362 248 362 248 234 548 c 1,23,-1
 234 573 l 1,24,-1
 242 582 l 1,25,26
 225 620 225 620 225 691 c 2,27,-1
 225 700 l 1,28,-1
 234 733 l 1,29,-1
 91 1821 l 1,30,31
 40 1832 40 1832 40 1846 c 1,32,-1
 65 1880 l 1,33,-1
 183 1880 l 2,34,35
 242 1880 242 1880 242 1829 c 1,36,-1
 183 1812 l 1,37,38
 219 1281 219 1281 259 1281 c 1,39,-1
 259 1247 l 1,40,-1
 251 1247 l 1,41,-1
 259 1239 l 1,42,-1
 259 1121 l 1,43,-1
 268 1045 l 1,44,-1
 259 1037 l 1,45,-1
 259 1028 l 1,46,47
 293 797 293 797 419 219 c 1,48,-1
 428 219 l 1,49,50
 428 526 428 526 605 1778 c 1,51,-1
 579 1778 l 1,52,-1
 579 1795 l 1,53,-1
 596 1812 l 1,54,-1
 605 1804 l 1,55,-1
 613 1804 l 1,56,-1
 613 1821 l 1,57,58
 588 1821 588 1821 571 1854 c 1,59,60
 571 1888 571 1888 689 1888 c 1,0,-1
57 1812 m 1,61,-1
 65 1812 l 1,62,-1
 65 1795 l 1,63,-1
 57 1795 l 1,64,-1
 57 1812 l 1,61,-1
EndSplineSet
EndChar

StartChar: W
Encoding: 87 87 57
Width: 892
GlyphClass: 2
Flags: W
LayerCount: 2
Fore
SplineSet
148 1880 m 1,0,-1
 181 1880 l 1,1,-1
 197 1863 l 1,2,-1
 197 1839 l 1,3,-1
 189 1830 l 1,4,-1
 189 1822 l 1,5,6
 222 1818 222 1818 222 1797 c 0,7,8
 222 1781 222 1781 189 1781 c 1,9,-1
 346 836 l 1,10,-1
 438 306 l 1,11,-1
 446 306 l 1,12,-1
 446 422 l 2,13,14
 446 616 446 616 496 944 c 1,15,-1
 487 944 l 1,16,-1
 462 969 l 1,17,-1
 462 977 l 2,18,19
 462 994 462 994 504 994 c 1,20,21
 504 1143 504 1143 545 1143 c 1,22,-1
 562 1126 l 1,23,-1
 553 1101 l 1,24,25
 588 813 588 813 620 696 c 1,26,-1
 620 588 l 2,27,28
 620 536 620 536 661 439 c 1,29,-1
 669 315 l 1,30,-1
 661 315 l 1,31,-1
 686 174 l 1,32,-1
 694 174 l 1,33,-1
 694 464 l 1,34,-1
 711 1814 l 1,35,36
 669 1824 669 1824 669 1839 c 0,37,38
 669 1867 669 1867 727 1880 c 1,39,-1
 736 1872 l 1,40,-1
 777 1880 l 1,41,-1
 835 1880 l 1,42,-1
 852 1863 l 1,43,-1
 852 1855 l 1,44,45
 847 1830 847 1830 794 1830 c 1,46,-1
 802 1805 l 1,47,48
 769 1805 769 1805 744 373 c 1,49,-1
 744 356 l 1,50,-1
 752 356 l 1,51,52
 752 414 752 414 769 414 c 1,53,-1
 777 406 l 1,54,-1
 777 389 l 2,55,56
 777 346 777 346 752 340 c 1,57,-1
 744 348 l 1,58,-1
 744 340 l 1,59,-1
 736 83 l 1,60,61
 785 83 785 83 785 50 c 1,62,63
 768 0 768 0 719 0 c 0,64,65
 674 0 674 0 653 41 c 1,66,-1
 669 58 l 1,67,68
 611 144 611 144 545 679 c 1,69,-1
 537 795 l 1,70,-1
 529 795 l 1,71,72
 504 443 504 443 504 66 c 1,73,74
 545 60 545 60 545 41 c 2,75,-1
 545 33 l 1,76,-1
 529 17 l 1,77,-1
 471 17 l 2,78,79
 410 17 410 17 404 41 c 1,80,-1
 404 50 l 1,81,-1
 421 66 l 1,82,83
 297 487 297 487 214 1010 c 1,84,-1
 206 1019 l 1,85,-1
 214 1052 l 1,86,87
 199 1090 199 1090 164 1466 c 1,88,89
 106 1814 106 1814 65 1814 c 1,90,-1
 40 1839 l 1,91,-1
 40 1847 l 2,92,93
 40 1874 40 1874 148 1880 c 1,0,-1
EndSplineSet
EndChar

StartChar: X
Encoding: 88 88 58
Width: 630
GlyphClass: 2
Flags: W
LayerCount: 2
Fore
SplineSet
455 1895 m 1,0,-1
 497 1895 l 2,1,2
 542 1895 542 1895 556 1861 c 1,3,-1
 556 1844 l 1,4,5
 548 1819 548 1819 505 1819 c 2,6,-1
 471 1819 l 1,7,-1
 480 1760 l 1,8,-1
 488 1768 l 1,9,-1
 505 1768 l 1,10,-1
 522 1751 l 1,11,-1
 505 1734 l 1,12,-1
 497 1734 l 1,13,-1
 488 1743 l 1,14,-1
 480 1743 l 1,15,-1
 438 1557 l 1,16,17
 414 1508 414 1508 387 1337 c 1,18,-1
 395 1244 l 1,19,-1
 328 905 l 1,20,-1
 463 389 l 1,21,22
 463 290 463 290 531 85 c 1,23,24
 577 85 577 85 590 42 c 1,25,-1
 590 34 l 1,26,-1
 565 8 l 1,27,-1
 446 8 l 2,28,29
 401 8 401 8 387 42 c 1,30,-1
 387 51 l 2,31,32
 387 71 387 71 455 85 c 1,33,34
 361 389 361 389 302 736 c 1,35,-1
 294 736 l 1,36,-1
 285 626 l 1,37,-1
 294 618 l 1,38,-1
 235 93 l 1,39,40
 243 59 243 59 285 59 c 1,41,-1
 302 34 l 1,42,-1
 302 25 l 1,43,-1
 277 0 l 1,44,-1
 125 17 l 1,45,-1
 125 34 l 1,46,47
 201 85 201 85 201 338 c 1,48,-1
 218 423 l 1,49,-1
 209 431 l 1,50,-1
 209 440 l 1,51,-1
 268 939 l 1,52,53
 184 1248 184 1248 133 1684 c 1,54,55
 102 1827 102 1827 40 1827 c 1,56,-1
 40 1853 l 1,57,58
 57 1887 57 1887 91 1887 c 1,59,-1
 125 1878 l 1,60,-1
 201 1887 l 1,61,62
 251 1878 251 1878 251 1861 c 2,63,-1
 251 1853 l 2,64,65
 251 1836 251 1836 226 1836 c 1,66,-1
 192 1827 l 1,67,-1
 184 1819 l 1,68,-1
 184 1810 l 1,69,-1
 235 1523 l 1,70,-1
 243 1514 l 1,71,-1
 251 1514 l 1,72,-1
 243 1455 l 1,73,-1
 294 1108 l 1,74,-1
 302 1108 l 1,75,76
 302 1202 302 1202 412 1810 c 1,77,78
 370 1810 370 1810 370 1836 c 2,79,-1
 370 1853 l 2,80,81
 370 1878 370 1878 455 1895 c 1,0,-1
EndSplineSet
EndChar

StartChar: Y
Encoding: 89 89 59
Width: 777
GlyphClass: 2
Flags: W
LayerCount: 2
Fore
SplineSet
149 1880 m 1,0,-1
 158 1880 l 2,1,2
 222 1880 222 1880 233 1846 c 1,3,-1
 233 1830 l 2,4,5
 233 1804 233 1804 183 1804 c 1,6,7
 347 1343 347 1343 393 1343 c 1,8,-1
 426 1267 l 1,9,-1
 409 1251 l 1,10,-1
 443 1158 l 1,11,12
 463 1158 463 1158 476 1318 c 1,13,14
 538 1606 538 1606 602 1821 c 1,15,-1
 594 1821 l 1,16,-1
 544 1813 l 1,17,-1
 527 1830 l 1,18,-1
 527 1846 l 1,19,-1
 552 1872 l 1,20,-1
 711 1872 l 1,21,-1
 737 1846 l 1,22,23
 737 1788 737 1788 678 1788 c 1,24,-1
 518 1032 l 1,25,-1
 518 663 l 2,26,27
 518 260 518 260 552 260 c 1,28,-1
 569 243 l 1,29,30
 569 205 569 205 544 168 c 1,31,-1
 544 76 l 1,32,-1
 552 84 l 1,33,-1
 560 84 l 1,34,-1
 594 50 l 1,35,-1
 594 34 l 2,36,37
 594 17 594 17 418 0 c 1,38,-1
 409 8 l 1,39,-1
 409 42 l 1,40,41
 443 71 443 71 443 101 c 2,42,-1
 443 806 l 2,43,44
 443 902 443 902 418 965 c 1,45,46
 418 1024 418 1024 434 1024 c 1,47,48
 384 1121 384 1121 384 1158 c 1,49,-1
 393 1158 l 1,50,51
 141 1741 141 1741 141 1813 c 2,52,-1
 141 1821 l 1,53,-1
 107 1813 l 1,54,55
 40 1823 40 1823 40 1846 c 0,56,57
 40 1874 40 1874 149 1880 c 1,0,-1
208 1788 m 1,58,-1
 225 1788 l 1,59,-1
 225 1771 l 1,60,-1
 208 1788 l 1,58,-1
EndSplineSet
EndChar

StartChar: Z
Encoding: 90 90 60
Width: 588
GlyphClass: 2
Flags: W
LayerCount: 2
Fore
SplineSet
387 1880 m 1,0,1
 523 1880 523 1880 523 1812 c 2,2,-1
 523 1787 l 1,3,-1
 260 610 l 1,4,-1
 243 576 l 1,5,-1
 252 550 l 1,6,-1
 243 550 l 2,7,8
 229 550 229 550 218 483 c 1,9,-1
 235 483 l 1,10,-1
 235 440 l 1,11,-1
 209 440 l 1,12,13
 209 380 209 380 192 347 c 1,14,-1
 201 313 l 1,15,-1
 192 288 l 1,16,-1
 201 263 l 1,17,18
 184 263 184 263 167 169 c 1,19,-1
 167 135 l 1,20,-1
 175 93 l 1,21,-1
 150 85 l 1,22,-1
 150 68 l 1,23,-1
 269 68 l 2,24,25
 472 68 472 68 472 119 c 1,26,27
 480 220 480 220 497 220 c 2,28,-1
 514 220 l 2,29,30
 538 220 538 220 548 34 c 1,31,-1
 523 17 l 1,32,-1
 65 0 l 1,33,-1
 40 51 l 1,34,35
 116 491 116 491 235 915 c 1,36,-1
 370 1609 l 1,37,-1
 362 1617 l 1,38,-1
 353 1617 l 1,39,-1
 362 1626 l 1,40,-1
 362 1643 l 1,41,42
 336 1643 336 1643 336 1660 c 1,43,44
 380 1686 380 1686 421 1804 c 1,45,-1
 396 1804 l 1,46,-1
 260 1787 l 1,47,-1
 192 1804 l 1,48,49
 150 1804 150 1804 150 1761 c 1,50,-1
 159 1761 l 1,51,-1
 175 1745 l 1,52,53
 167 1719 167 1719 125 1719 c 0,54,55
 97 1719 97 1719 91 1821 c 1,56,-1
 116 1863 l 1,57,-1
 142 1855 l 1,58,-1
 328 1872 l 1,59,-1
 336 1863 l 1,60,-1
 345 1863 l 1,61,-1
 387 1880 l 1,0,1
463 246 m 1,62,-1
 480 246 l 1,63,-1
 480 237 l 1,64,-1
 463 237 l 1,65,-1
 463 246 l 1,62,-1
446 186 m 1,66,-1
 455 186 l 1,67,-1
 472 169 l 1,68,-1
 455 152 l 1,69,-1
 446 161 l 1,70,-1
 446 186 l 1,66,-1
EndSplineSet
EndChar

StartChar: grave
Encoding: 96 96 66
Width: 310
GlyphClass: 2
Flags: W
LayerCount: 2
Fore
SplineSet
90 1844 m 1,0,-1
 96 1844 l 2,1,2
 165 1844 165 1844 270 1639 c 1,3,-1
 270 1608 l 1,4,-1
 251 1589 l 1,5,6
 231 1589 231 1589 90 1701 c 1,7,8
 61 1701 61 1701 40 1775 c 1,9,10
 40 1803 40 1803 90 1844 c 1,0,-1
EndSplineSet
EndChar

StartChar: a
Encoding: 97 97 67
Width: 644
GlyphClass: 2
Flags: W
LayerCount: 2
Fore
SplineSet
327 1416 m 1,0,1
 434 1416 434 1416 495 1297 c 1,2,-1
 525 1297 l 1,3,-1
 525 1277 l 1,4,-1
 495 1277 l 1,5,6
 515 1239 515 1239 515 1168 c 1,7,-1
 476 386 l 1,8,-1
 476 228 l 1,9,-1
 486 228 l 1,10,-1
 495 238 l 1,11,-1
 505 238 l 1,12,-1
 515 228 l 1,13,-1
 515 218 l 1,14,-1
 486 208 l 1,15,-1
 486 198 l 2,16,17
 486 144 486 144 535 119 c 1,18,19
 535 158 535 158 555 158 c 256,20,21
 575 158 575 158 575 109 c 1,22,-1
 604 79 l 1,23,-1
 604 40 l 1,24,25
 588 0 588 0 535 0 c 2,26,-1
 505 0 l 1,27,28
 406 53 406 53 406 109 c 1,29,30
 301 20 301 20 248 20 c 2,31,-1
 238 20 l 2,32,33
 154 20 154 20 109 208 c 1,34,35
 60 208 60 208 60 228 c 2,36,-1
 60 238 l 2,37,38
 60 262 60 262 99 267 c 1,39,-1
 99 277 l 2,40,41
 99 548 99 548 228 683 c 1,42,43
 277 799 277 799 446 990 c 1,44,-1
 446 1129 l 1,45,46
 387 1347 387 1347 297 1347 c 2,47,-1
 179 1347 l 2,48,49
 153 1347 153 1347 139 1267 c 1,50,-1
 139 1258 l 1,51,-1
 149 1267 l 1,52,-1
 159 1267 l 1,53,-1
 179 1248 l 1,54,-1
 169 1238 l 1,55,-1
 189 1178 l 1,56,57
 189 1115 189 1115 99 1099 c 1,58,-1
 50 1168 l 1,59,60
 50 1406 50 1406 218 1406 c 1,61,-1
 327 1416 l 1,0,1
60 1109 m 1,62,-1
 80 1089 l 1,63,-1
 60 1069 l 1,64,-1
 40 1069 l 1,65,-1
 40 1089 l 1,66,-1
 60 1109 l 1,62,-1
387 792 m 1,67,-1
 307 614 l 1,68,69
 307 584 307 584 288 584 c 1,70,-1
 297 535 l 1,71,72
 274 465 274 465 248 465 c 1,73,-1
 248 446 l 1,74,75
 218 313 218 313 218 149 c 1,76,77
 248 149 248 149 248 99 c 1,78,-1
 268 99 l 1,79,-1
 307 158 l 1,80,-1
 317 158 l 1,81,-1
 337 139 l 1,82,83
 337 178 337 178 377 178 c 1,84,-1
 377 188 l 1,85,86
 347 188 347 188 347 208 c 1,87,-1
 367 228 l 1,88,-1
 387 228 l 1,89,-1
 387 198 l 1,90,-1
 396 198 l 1,91,-1
 396 792 l 1,92,-1
 387 792 l 1,67,-1
EndSplineSet
EndChar

StartChar: b
Encoding: 98 98 68
Width: 586
GlyphClass: 2
Flags: W
LayerCount: 2
Fore
SplineSet
150 1865 m 0,0,1
 209 1865 209 1865 209 1646 c 1,2,-1
 192 1089 l 1,3,-1
 192 1072 l 1,4,-1
 200 1072 l 1,5,6
 200 1127 200 1127 302 1181 c 1,7,-1
 378 1190 l 1,8,-1
 394 1173 l 1,9,-1
 411 1173 l 1,10,-1
 420 1181 l 1,11,-1
 428 1181 l 1,12,-1
 420 1190 l 1,13,-1
 420 1198 l 1,14,15
 436 1237 436 1237 454 1241 c 1,16,-1
 462 1241 l 1,17,-1
 487 1215 l 1,18,-1
 487 1190 l 1,19,-1
 462 1156 l 1,20,-1
 462 1148 l 1,21,22
 529 1070 529 1070 529 911 c 2,23,-1
 529 768 l 1,24,-1
 546 633 l 1,25,-1
 529 616 l 1,26,-1
 529 574 l 1,27,-1
 538 532 l 1,28,29
 522 25 522 25 420 25 c 0,30,31
 330 25 330 25 259 76 c 1,32,-1
 251 76 l 1,33,-1
 251 68 l 1,34,-1
 276 25 l 1,35,36
 276 0 276 0 108 0 c 1,37,-1
 99 8 l 1,38,-1
 99 25 l 2,39,40
 99 48 99 48 141 51 c 1,41,-1
 141 84 l 1,42,-1
 133 76 l 1,43,-1
 116 76 l 1,44,-1
 116 84 l 1,45,-1
 133 110 l 1,46,47
 114 506 114 506 99 506 c 1,48,-1
 108 582 l 1,49,-1
 108 599 l 1,50,-1
 91 616 l 1,51,-1
 108 760 l 1,52,-1
 108 1089 l 1,53,-1
 116 1173 l 1,54,-1
 99 1190 l 1,55,-1
 99 1291 l 1,56,-1
 116 1291 l 1,57,-1
 91 1789 l 1,58,59
 40 1789 40 1789 40 1814 c 1,60,61
 66 1865 66 1865 150 1865 c 0,0,1
192 920 m 2,62,-1
 192 650 l 1,63,64
 215 152 215 152 243 152 c 1,65,-1
 243 118 l 1,66,-1
 361 76 l 1,67,-1
 386 76 l 1,68,69
 411 81 411 81 411 143 c 2,70,-1
 411 743 l 1,71,72
 391 1065 391 1065 327 1080 c 1,73,-1
 310 1080 l 1,74,75
 192 999 192 999 192 920 c 2,62,-1
EndSplineSet
EndChar

StartChar: c
Encoding: 99 99 69
Width: 505
GlyphClass: 2
Flags: W
LayerCount: 2
Fore
SplineSet
303 1408 m 1,0,1
 374 1408 374 1408 425 1165 c 1,2,-1
 435 1165 l 1,3,4
 425 1064 425 1064 405 1064 c 2,5,-1
 354 1064 l 1,6,-1
 324 1094 l 1,7,-1
 324 1135 l 1,8,9
 326 1185 326 1185 344 1185 c 1,10,11
 334 1347 334 1347 303 1347 c 2,12,-1
 283 1347 l 1,13,14
 202 1196 202 1196 202 1023 c 2,15,-1
 202 851 l 1,16,-1
 192 658 l 1,17,-1
 202 628 l 1,18,-1
 192 618 l 1,19,-1
 192 608 l 1,20,-1
 202 567 l 1,21,-1
 192 537 l 1,22,-1
 202 476 l 1,23,-1
 202 456 l 1,24,-1
 192 446 l 1,25,-1
 212 415 l 1,26,-1
 192 314 l 1,27,28
 211 71 211 71 324 71 c 2,29,-1
 334 71 l 1,30,31
 377 87 377 87 415 203 c 1,32,-1
 405 233 l 1,33,-1
 415 243 l 1,34,35
 381 243 381 243 364 294 c 1,36,37
 385 355 385 355 405 355 c 2,38,-1
 435 355 l 1,39,40
 465 344 465 344 465 294 c 2,41,-1
 465 253 l 2,42,43
 465 45 465 45 313 0 c 1,44,-1
 243 0 l 1,45,46
 40 129 40 129 40 739 c 2,47,-1
 40 810 l 2,48,49
 40 1249 40 1249 212 1378 c 1,50,-1
 303 1408 l 1,0,1
EndSplineSet
EndChar

StartChar: d
Encoding: 100 100 70
Width: 567
GlyphClass: 2
Flags: W
LayerCount: 2
Fore
SplineSet
339 1873 m 1,0,-1
 416 1873 l 1,1,-1
 433 1856 l 1,2,-1
 442 1753 l 1,3,-1
 433 1386 l 1,4,-1
 433 1009 l 1,5,-1
 425 889 l 1,6,7
 425 508 425 508 485 94 c 1,8,9
 519 94 519 94 519 77 c 2,10,-1
 519 68 l 1,11,-1
 510 60 l 1,12,-1
 510 51 l 1,13,-1
 527 34 l 1,14,-1
 527 26 l 2,15,16
 527 5 527 5 442 0 c 1,17,18
 382 0 382 0 382 86 c 0,19,20
 382 120 382 120 365 120 c 1,21,22
 291 0 291 0 237 0 c 0,23,24
 113 0 113 0 66 214 c 1,25,-1
 40 624 l 1,26,27
 40 792 40 792 66 872 c 1,28,-1
 66 1009 l 1,29,30
 101 1189 101 1189 185 1189 c 0,31,32
 290 1189 290 1189 348 1086 c 1,33,-1
 356 1086 l 1,34,-1
 356 1249 l 1,35,-1
 348 1796 l 1,36,-1
 356 1830 l 1,37,-1
 348 1822 l 1,38,-1
 322 1822 l 1,39,-1
 305 1839 l 1,40,-1
 339 1873 l 1,0,-1
134 778 m 1,41,-1
 143 753 l 1,42,-1
 126 718 l 1,43,-1
 143 667 l 1,44,-1
 134 624 l 1,45,-1
 143 573 l 1,46,-1
 126 556 l 1,47,-1
 126 479 l 1,48,-1
 168 205 l 1,49,50
 205 121 205 121 220 120 c 1,51,-1
 228 120 l 1,52,53
 353 210 353 210 365 274 c 1,54,-1
 374 949 l 1,55,-1
 365 949 l 1,56,-1
 348 966 l 1,57,-1
 356 992 l 1,58,-1
 331 1009 l 1,59,-1
 322 1001 l 1,60,-1
 305 1026 l 1,61,-1
 314 1035 l 1,62,-1
 314 1043 l 1,63,64
 271 1043 271 1043 271 1103 c 1,65,-1
 254 1103 l 1,66,-1
 254 1112 l 1,67,68
 143 1112 143 1112 143 787 c 1,69,-1
 134 778 l 1,41,-1
EndSplineSet
EndChar

StartChar: e
Encoding: 101 101 71
Width: 455
GlyphClass: 2
Flags: W
LayerCount: 2
Fore
SplineSet
208 1401 m 1,0,1
 243 1401 243 1401 297 1312 c 1,2,-1
 326 1332 l 1,3,-1
 336 1332 l 1,4,-1
 356 1312 l 1,5,-1
 356 1283 l 1,6,-1
 346 1283 l 1,7,-1
 316 1292 l 1,8,-1
 316 1283 l 1,9,10
 354 1236 354 1236 375 799 c 1,11,12
 375 681 375 681 277 681 c 2,13,-1
 139 681 l 1,14,15
 139 59 139 59 237 59 c 0,16,17
 297 59 297 59 336 247 c 1,18,-1
 316 266 l 1,19,20
 316 286 316 286 346 286 c 1,21,-1
 346 316 l 1,22,-1
 356 365 l 1,23,24
 326 365 326 365 326 385 c 2,25,-1
 326 395 l 1,26,-1
 346 414 l 1,27,-1
 366 414 l 1,28,-1
 415 405 l 1,29,-1
 415 385 l 1,30,-1
 366 148 l 1,31,32
 284 0 284 0 208 0 c 0,33,34
 65 0 65 0 40 720 c 1,35,36
 81 1352 81 1352 129 1352 c 1,37,38
 129 1377 129 1377 208 1401 c 1,0,1
218 1342 m 1,39,40
 139 1012 139 1012 139 809 c 2,41,-1
 139 730 l 1,42,-1
 149 730 l 1,43,-1
 218 760 l 1,44,-1
 227 750 l 1,45,-1
 237 750 l 2,46,47
 289 750 289 750 316 809 c 1,48,-1
 316 996 l 2,49,50
 316 1188 316 1188 237 1342 c 1,51,-1
 218 1342 l 1,39,40
EndSplineSet
EndChar

StartChar: f
Encoding: 102 102 72
Width: 361
GlyphClass: 2
Flags: W
LayerCount: 2
Fore
SplineSet
185 1873 m 1,0,-1
 202 1873 l 1,1,2
 321 1845 321 1845 321 1762 c 2,3,-1
 321 1754 l 2,4,5
 321 1733 321 1733 244 1728 c 1,6,-1
 236 1754 l 1,7,-1
 253 1805 l 1,8,-1
 219 1813 l 1,9,10
 176 1813 176 1813 176 1456 c 2,11,-1
 176 1243 l 1,12,-1
 185 1234 l 1,13,-1
 185 1226 l 1,14,-1
 193 1234 l 1,15,-1
 253 1234 l 1,16,17
 253 1286 253 1286 270 1286 c 2,18,-1
 287 1286 l 2,19,20
 304 1286 304 1286 312 1217 c 1,21,22
 292 1158 292 1158 278 1158 c 2,23,-1
 270 1158 l 2,24,25
 253 1158 253 1158 253 1183 c 1,26,-1
 244 1183 l 1,27,28
 176 1162 176 1162 176 1115 c 1,29,-1
 151 511 l 1,30,-1
 168 153 l 1,31,-1
 176 153 l 1,32,-1
 176 128 l 1,33,-1
 159 128 l 1,34,-1
 168 94 l 1,35,-1
 159 60 l 1,36,-1
 159 51 l 1,37,-1
 210 51 l 1,38,-1
 227 34 l 1,39,-1
 227 26 l 2,40,41
 227 9 227 9 185 9 c 1,42,-1
 185 0 l 1,43,-1
 125 9 l 1,44,-1
 66 9 l 1,45,-1
 49 26 l 1,46,47
 66 60 66 60 91 60 c 1,48,-1
 91 85 l 1,49,-1
 83 119 l 1,50,-1
 91 128 l 1,51,-1
 91 136 l 1,52,-1
 83 162 l 1,53,-1
 83 179 l 1,54,-1
 91 179 l 1,55,-1
 83 238 l 1,56,-1
 83 502 l 1,57,-1
 74 621 l 1,58,-1
 83 656 l 1,59,-1
 74 664 l 1,60,-1
 74 673 l 1,61,-1
 83 724 l 1,62,-1
 74 749 l 1,63,-1
 91 851 l 1,64,-1
 83 860 l 1,65,-1
 91 928 l 1,66,-1
 100 1192 l 1,67,68
 86 1192 86 1192 57 1132 c 1,69,-1
 49 1132 l 1,70,-1
 40 1141 l 1,71,-1
 40 1226 l 1,72,-1
 57 1243 l 1,73,-1
 100 1234 l 1,74,-1
 100 1243 l 1,75,-1
 108 1422 l 1,76,-1
 100 1498 l 1,77,-1
 108 1498 l 1,78,-1
 100 1507 l 1,79,80
 103 1843 103 1843 185 1873 c 1,0,-1
210 1149 m 1,81,-1
 227 1149 l 1,82,-1
 227 1141 l 1,83,-1
 210 1141 l 1,84,-1
 210 1149 l 1,81,-1
EndSplineSet
EndChar

StartChar: g
Encoding: 103 103 73
Width: 432
GlyphClass: 2
Flags: W
LayerCount: 2
Fore
SplineSet
328 1472 m 1,0,-1
 337 1472 l 1,1,2
 392 1466 392 1466 392 1445 c 2,3,-1
 392 1427 l 2,4,5
 392 1355 392 1355 319 1355 c 1,6,-1
 283 1382 l 1,7,-1
 274 1373 l 1,8,-1
 274 1355 l 1,9,10
 314 1355 314 1355 365 1075 c 1,11,-1
 355 850 l 1,12,-1
 365 661 l 1,13,14
 337 228 337 228 301 228 c 1,15,-1
 310 219 l 1,16,-1
 310 201 l 2,17,18
 310 183 310 183 256 165 c 1,19,-1
 238 138 l 1,20,21
 365 118 365 118 365 12 c 1,22,-1
 374 -96 l 1,23,24
 374 -475 374 -475 193 -475 c 2,25,-1
 175 -475 l 1,26,27
 58 -451 58 -451 58 -366 c 1,28,29
 103 -123 103 -123 211 -123 c 2,30,-1
 229 -123 l 1,31,32
 248 -127 248 -127 265 -168 c 1,33,34
 247 -222 247 -222 229 -222 c 2,35,-1
 202 -222 l 1,36,-1
 175 -204 l 1,37,-1
 166 -249 l 1,38,-1
 193 -312 l 1,39,-1
 184 -321 l 1,40,-1
 175 -321 l 1,41,-1
 148 -303 l 1,42,-1
 148 -312 l 1,43,-1
 166 -402 l 1,44,-1
 229 -402 l 2,45,46
 301 -402 301 -402 301 -51 c 2,47,-1
 301 -6 l 1,48,-1
 283 84 l 1,49,-1
 184 84 l 1,50,-1
 166 102 l 1,51,-1
 166 156 l 1,52,53
 87 156 87 156 40 562 c 1,54,-1
 40 625 l 1,55,-1
 49 697 l 1,56,-1
 40 769 l 1,57,-1
 40 778 l 2,58,59
 40 1260 40 1260 184 1409 c 1,60,-1
 211 1409 l 1,61,-1
 238 1391 l 1,62,63
 238 1452 238 1452 328 1472 c 1,0,-1
184 1355 m 1,64,65
 121 1083 121 1083 121 706 c 1,66,-1
 139 688 l 1,67,68
 121 688 121 688 121 661 c 1,69,-1
 130 553 l 1,70,71
 157 553 157 553 157 535 c 2,72,-1
 157 517 l 1,73,-1
 148 517 l 1,74,-1
 121 535 l 1,75,-1
 121 508 l 1,76,77
 148 468 148 468 148 426 c 1,78,-1
 130 408 l 1,79,-1
 130 390 l 2,80,81
 130 313 130 313 166 210 c 1,82,83
 184 210 184 210 193 264 c 1,84,-1
 211 264 l 2,85,86
 229 264 229 264 229 210 c 1,87,-1
 238 210 l 1,88,89
 274 597 274 597 274 814 c 2,90,-1
 274 958 l 2,91,92
 274 1088 274 1088 247 1256 c 1,93,-1
 238 1247 l 1,94,-1
 229 1247 l 1,95,-1
 211 1265 l 1,96,-1
 211 1310 l 1,97,-1
 220 1319 l 1,98,99
 207 1355 207 1355 193 1355 c 2,100,-1
 184 1355 l 1,64,65
EndSplineSet
EndChar

StartChar: h
Encoding: 104 104 74
Width: 480
GlyphClass: 2
Flags: W
LayerCount: 2
Fore
SplineSet
125 1865 m 1,0,-1
 202 1865 l 1,1,-1
 227 1831 l 1,2,3
 202 1738 202 1738 202 1294 c 2,4,-1
 202 1116 l 1,5,6
 293 1235 293 1235 347 1235 c 1,7,8
 398 1217 398 1217 398 1167 c 2,9,-1
 398 1124 l 1,10,-1
 364 528 l 1,11,-1
 364 417 l 2,12,13
 364 373 364 373 389 341 c 1,14,-1
 389 324 l 1,15,-1
 372 298 l 1,16,17
 372 51 372 51 406 51 c 256,18,19
 440 51 440 51 440 34 c 2,20,-1
 440 26 l 1,21,-1
 423 9 l 1,22,-1
 304 9 l 1,23,-1
 287 26 l 1,24,25
 287 53 287 53 321 102 c 1,26,-1
 321 170 l 1,27,-1
 313 324 l 1,28,-1
 338 1030 l 1,29,30
 313 1030 313 1030 313 1047 c 1,31,-1
 330 1073 l 1,32,-1
 330 1090 l 1,33,-1
 321 1150 l 1,34,-1
 295 1150 l 1,35,36
 185 991 185 991 185 519 c 1,37,-1
 176 349 l 1,38,-1
 185 213 l 1,39,-1
 176 77 l 1,40,-1
 176 51 l 1,41,42
 219 45 219 45 219 26 c 1,43,-1
 202 0 l 1,44,-1
 159 9 l 1,45,-1
 66 9 l 1,46,-1
 40 34 l 1,47,48
 40 60 40 60 91 60 c 1,49,-1
 83 111 l 1,50,-1
 108 494 l 1,51,-1
 100 554 l 1,52,-1
 117 673 l 1,53,54
 74 673 74 673 74 690 c 1,55,-1
 91 707 l 1,56,-1
 100 698 l 1,57,-1
 108 698 l 1,58,-1
 117 741 l 1,59,-1
 108 775 l 1,60,-1
 125 801 l 1,61,-1
 117 809 l 1,62,-1
 125 869 l 1,63,-1
 117 928 l 1,64,-1
 134 928 l 1,65,-1
 134 971 l 1,66,-1
 125 996 l 1,67,-1
 134 1022 l 1,68,-1
 142 1567 l 1,69,-1
 142 1652 l 1,70,-1
 125 1678 l 1,71,-1
 125 1703 l 1,72,-1
 142 1729 l 1,73,-1
 142 1831 l 1,74,75
 108 1831 108 1831 108 1848 c 1,76,-1
 125 1865 l 1,0,-1
415 136 m 1,77,-1
 423 136 l 1,78,-1
 423 119 l 1,79,-1
 415 119 l 1,80,-1
 415 136 l 1,77,-1
EndSplineSet
EndChar

StartChar: i
Encoding: 105 105 75
Width: 273
GlyphClass: 2
Flags: W
LayerCount: 2
Fore
SplineSet
156 1820 m 1,0,-1
 184 1820 l 1,1,2
 233 1798 233 1798 233 1724 c 1,3,4
 211 1608 211 1608 194 1608 c 1,5,6
 98 1658 98 1658 98 1685 c 1,7,-1
 88 1753 l 1,8,9
 88 1779 88 1779 156 1820 c 1,0,-1
69 1396 m 1,10,-1
 98 1396 l 2,11,12
 166 1396 166 1396 204 1377 c 1,13,-1
 213 1387 l 1,14,-1
 223 1377 l 1,15,-1
 223 1358 l 1,16,-1
 204 1339 l 1,17,-1
 213 1223 l 1,18,-1
 194 732 l 1,19,-1
 213 713 l 1,20,-1
 194 684 l 1,21,-1
 204 549 l 1,22,-1
 194 491 l 1,23,-1
 204 433 l 1,24,25
 175 433 175 433 175 327 c 2,26,-1
 175 221 l 1,27,-1
 184 183 l 1,28,-1
 175 173 l 1,29,-1
 184 106 l 1,30,-1
 184 58 l 1,31,32
 233 55 233 55 233 29 c 2,33,-1
 233 19 l 1,34,-1
 213 0 l 1,35,-1
 184 0 l 1,36,-1
 175 10 l 1,37,-1
 165 0 l 1,38,-1
 98 0 l 2,39,40
 48 0 48 0 40 29 c 1,41,-1
 40 39 l 2,42,43
 40 58 40 58 98 58 c 1,44,-1
 98 67 l 1,45,-1
 88 193 l 1,46,-1
 98 289 l 1,47,-1
 88 385 l 1,48,-1
 98 520 l 1,49,-1
 88 636 l 1,50,51
 107 636 107 636 107 664 c 2,52,-1
 117 1290 l 2,53,54
 117 1316 117 1316 50 1329 c 1,55,-1
 50 1377 l 1,56,-1
 69 1396 l 1,10,-1
EndSplineSet
EndChar

StartChar: j
Encoding: 106 106 76
Width: 497
GlyphClass: 2
Flags: W
LayerCount: 2
Fore
SplineSet
358 1850 m 1,0,1
 421 1823 421 1823 421 1768 c 0,2,3
 421 1687 421 1687 349 1687 c 2,4,-1
 321 1687 l 1,5,-1
 312 1696 l 1,6,-1
 303 1696 l 1,7,-1
 285 1678 l 1,8,-1
 267 1696 l 1,9,10
 267 1714 267 1714 294 1714 c 1,11,-1
 285 1723 l 1,12,-1
 285 1777 l 2,13,14
 285 1850 285 1850 358 1850 c 1,0,1
276 1487 m 0,15,16
 338 1487 338 1487 412 1451 c 1,17,-1
 430 697 l 1,18,19
 448 697 448 697 448 652 c 1,20,-1
 457 652 l 1,21,22
 444 543 444 543 430 543 c 1,23,-1
 439 534 l 1,24,-1
 394 -192 l 1,25,-1
 385 -201 l 1,26,-1
 385 -210 l 1,27,-1
 394 -246 l 1,28,29
 370 -249 370 -249 258 -400 c 1,30,-1
 203 -419 l 1,31,-1
 158 -419 l 2,32,33
 83 -419 83 -419 40 -355 c 1,34,-1
 40 -346 l 1,35,-1
 58 -328 l 1,36,-1
 94 -364 l 1,37,38
 303 -364 303 -364 303 35 c 2,39,-1
 303 234 l 1,40,-1
 312 407 l 1,41,-1
 303 416 l 1,42,-1
 303 425 l 1,43,44
 321 536 321 536 321 852 c 2,45,-1
 321 924 l 1,46,-1
 312 1069 l 1,47,-1
 321 1079 l 1,48,-1
 321 1088 l 1,49,-1
 312 1187 l 1,50,-1
 312 1278 l 1,51,-1
 321 1360 l 1,52,53
 321 1405 321 1405 240 1405 c 1,54,-1
 231 1414 l 1,55,-1
 231 1451 l 1,56,57
 249 1487 249 1487 276 1487 c 0,15,16
412 -264 m 1,58,-1
 430 -282 l 1,59,-1
 412 -301 l 1,60,-1
 394 -282 l 1,61,-1
 412 -264 l 1,58,-1
67 -273 m 1,62,-1
 94 -301 l 1,63,-1
 76 -319 l 1,64,-1
 67 -319 l 1,65,-1
 49 -301 l 1,66,-1
 49 -291 l 1,67,-1
 67 -273 l 1,62,-1
EndSplineSet
EndChar

StartChar: k
Encoding: 107 107 77
Width: 572
GlyphClass: 2
Flags: W
LayerCount: 2
Fore
SplineSet
125 1865 m 1,0,-1
 193 1848 l 1,1,-1
 176 693 l 1,2,-1
 176 685 l 1,3,-1
 184 685 l 1,4,-1
 397 1177 l 1,5,6
 371 1177 371 1177 371 1194 c 2,7,-1
 371 1203 l 2,8,9
 371 1226 371 1226 482 1237 c 1,10,11
 520 1220 520 1220 524 1203 c 1,12,13
 524 1186 524 1186 499 1186 c 1,14,15
 462 1126 462 1126 431 1126 c 1,16,17
 371 1007 371 1007 337 889 c 1,18,19
 371 889 371 889 371 872 c 1,20,-1
 346 846 l 1,21,-1
 337 855 l 1,22,-1
 329 855 l 1,23,-1
 320 829 l 1,24,-1
 329 821 l 1,25,-1
 329 812 l 1,26,-1
 295 710 l 1,27,-1
 295 668 l 1,28,29
 347 399 347 399 405 345 c 1,30,-1
 397 311 l 1,31,-1
 422 235 l 1,32,-1
 414 235 l 1,33,34
 427 175 427 175 456 175 c 1,35,-1
 448 133 l 1,36,-1
 473 39 l 1,37,-1
 516 39 l 1,38,-1
 532 22 l 1,39,-1
 532 14 l 1,40,-1
 516 -3 l 1,41,-1
 397 -3 l 1,42,-1
 414 -28 l 1,43,-1
 405 -37 l 1,44,-1
 371 -37 l 1,45,-1
 371 -11 l 1,46,-1
 380 -3 l 1,47,-1
 380 5 l 1,48,49
 346 5 346 5 346 22 c 256,50,51
 346 39 346 39 388 39 c 1,52,53
 295 377 295 377 252 685 c 1,54,-1
 244 685 l 1,55,56
 197 593 197 593 184 481 c 1,57,-1
 176 472 l 1,58,-1
 176 56 l 1,59,60
 227 48 227 48 227 31 c 1,61,62
 213 -3 213 -3 167 -3 c 2,63,-1
 99 -3 l 2,64,65
 54 -3 54 -3 40 31 c 1,66,-1
 40 39 l 2,67,68
 40 65 40 65 91 65 c 1,69,-1
 91 73 l 1,70,-1
 108 1092 l 1,71,-1
 99 1101 l 1,72,-1
 108 1143 l 1,73,-1
 108 1237 l 1,74,-1
 99 1271 l 1,75,-1
 116 1313 l 1,76,-1
 108 1406 l 1,77,-1
 116 1415 l 1,78,-1
 125 1415 l 1,79,80
 108 1501 108 1501 108 1687 c 1,81,-1
 116 1797 l 1,82,-1
 108 1789 l 1,83,-1
 99 1789 l 1,84,-1
 91 1797 l 1,85,-1
 91 1806 l 1,86,-1
 99 1814 l 1,87,88
 65 1827 65 1827 65 1840 c 2,89,-1
 65 1857 l 1,90,-1
 125 1865 l 1,0,-1
193 489 m 1,91,-1
 201 489 l 1,92,-1
 218 472 l 1,93,-1
 210 464 l 1,94,-1
 201 464 l 1,95,-1
 193 472 l 1,96,-1
 193 489 l 1,91,-1
EndSplineSet
EndChar

StartChar: l
Encoding: 108 108 78
Width: 333
GlyphClass: 2
Flags: W
LayerCount: 2
Fore
SplineSet
65 1865 m 1,0,-1
 141 1857 l 1,1,-1
 166 1865 l 1,2,-1
 209 1848 l 1,3,-1
 200 1789 l 1,4,-1
 200 1536 l 1,5,-1
 192 1148 l 1,6,-1
 200 1106 l 1,7,-1
 192 1106 l 1,8,-1
 200 1098 l 1,9,-1
 200 1072 l 1,10,-1
 192 1064 l 1,11,-1
 192 1055 l 1,12,-1
 200 1047 l 1,13,-1
 209 1047 l 1,14,-1
 200 1005 l 1,15,-1
 200 963 l 1,16,-1
 209 929 l 1,17,-1
 200 895 l 1,18,-1
 200 836 l 1,19,-1
 192 828 l 1,20,-1
 200 819 l 1,21,-1
 192 769 l 1,22,-1
 209 254 l 1,23,-1
 209 212 l 1,24,25
 234 212 234 212 234 195 c 2,26,-1
 234 179 l 1,27,-1
 200 170 l 1,28,-1
 217 119 l 1,29,-1
 217 69 l 1,30,-1
 268 69 l 1,31,-1
 293 44 l 1,32,-1
 293 27 l 2,33,34
 293 7 293 7 251 1 c 1,35,-1
 226 10 l 1,36,-1
 107 -7 l 1,37,-1
 99 1 l 1,38,-1
 99 27 l 1,39,-1
 141 69 l 1,40,-1
 133 77 l 1,41,-1
 133 86 l 1,42,-1
 141 94 l 1,43,-1
 141 103 l 1,44,-1
 133 111 l 1,45,-1
 133 119 l 1,46,-1
 141 128 l 1,47,-1
 133 153 l 1,48,-1
 124 625 l 1,49,-1
 133 803 l 1,50,-1
 124 828 l 1,51,-1
 133 996 l 1,52,-1
 116 1722 l 1,53,-1
 124 1781 l 1,54,-1
 65 1814 l 1,55,-1
 40 1840 l 1,56,-1
 65 1865 l 1,0,-1
EndSplineSet
EndChar

StartChar: m
Encoding: 109 109 79
Width: 1095
GlyphClass: 2
Flags: W
LayerCount: 2
Fore
SplineSet
70 1431 m 1,0,1
 231 1431 231 1431 247 1392 c 1,2,-1
 237 1342 l 1,3,-1
 237 1185 l 1,4,-1
 247 1185 l 1,5,6
 327 1411 327 1411 493 1411 c 0,7,8
 564 1411 564 1411 601 1195 c 1,9,-1
 611 1195 l 1,10,11
 670 1421 670 1421 828 1421 c 2,12,-1
 897 1421 l 2,13,14
 963 1421 963 1421 986 1067 c 1,15,-1
 1005 988 l 1,16,-1
 995 682 l 1,17,-1
 995 446 l 1,18,-1
 1005 52 l 1,19,20
 1055 52 1055 52 1055 32 c 0,21,22
 1055 3 1055 3 907 -7 c 1,23,-1
 877 32 l 1,24,25
 877 52 877 52 907 52 c 1,26,-1
 907 190 l 1,27,-1
 926 1017 l 1,28,29
 926 1131 926 1131 897 1165 c 1,30,-1
 917 1234 l 1,31,32
 890 1362 890 1362 848 1362 c 1,33,-1
 789 1372 l 1,34,35
 702 1372 702 1372 601 1067 c 1,36,-1
 631 91 l 1,37,38
 653 91 653 91 710 32 c 1,39,-1
 680 3 l 1,40,-1
 641 13 l 1,41,-1
 611 3 l 1,42,43
 523 11 523 11 523 32 c 1,44,-1
 532 42 l 1,45,-1
 562 52 l 1,46,-1
 562 62 l 2,47,48
 562 455 562 455 532 801 c 1,49,-1
 513 820 l 1,50,51
 513 840 513 840 542 840 c 1,52,-1
 542 860 l 1,53,-1
 532 860 l 1,54,-1
 542 929 l 1,55,-1
 542 978 l 1,56,-1
 532 1047 l 1,57,-1
 542 1047 l 1,58,-1
 532 1057 l 1,59,-1
 542 1096 l 1,60,-1
 523 1175 l 1,61,-1
 532 1254 l 1,62,63
 507 1313 507 1313 464 1313 c 0,64,65
 335 1313 335 1313 257 1096 c 1,66,-1
 267 1067 l 1,67,-1
 247 1047 l 1,68,-1
 247 889 l 1,69,-1
 257 525 l 1,70,-1
 247 180 l 1,71,-1
 247 111 l 1,72,-1
 276 111 l 1,73,-1
 276 91 l 1,74,-1
 247 91 l 1,75,-1
 247 72 l 1,76,77
 286 67 286 67 286 42 c 1,78,-1
 257 13 l 1,79,-1
 129 13 l 1,80,-1
 109 32 l 1,81,82
 113 53 113 53 158 72 c 1,83,-1
 148 131 l 1,84,-1
 129 1303 l 1,85,-1
 138 1342 l 1,86,-1
 60 1342 l 1,87,-1
 40 1362 l 1,88,-1
 40 1401 l 1,89,-1
 70 1431 l 1,0,1
867 1333 m 1,90,-1
 877 1323 l 1,91,-1
 877 1313 l 1,92,-1
 867 1303 l 1,93,-1
 858 1303 l 1,94,-1
 848 1313 l 1,95,-1
 848 1323 l 1,96,-1
 858 1333 l 1,97,-1
 867 1333 l 1,90,-1
995 1273 m 1,98,-1
 1015 1254 l 1,99,-1
 995 1234 l 1,100,-1
 976 1254 l 1,101,-1
 995 1273 l 1,98,-1
EndSplineSet
EndChar

StartChar: n
Encoding: 110 110 80
Width: 771
GlyphClass: 2
Flags: W
LayerCount: 2
Fore
SplineSet
150 1423 m 2,0,-1
 190 1423 l 2,1,2
 220 1423 220 1423 220 1243 c 1,3,-1
 230 1243 l 1,4,5
 317 1413 317 1413 451 1413 c 0,6,7
 549 1413 549 1413 651 1152 c 1,8,-1
 641 1142 l 1,9,-1
 651 1132 l 1,10,-1
 641 1102 l 1,11,-1
 661 872 l 1,12,-1
 651 541 l 1,13,-1
 661 80 l 1,14,-1
 641 60 l 1,15,16
 681 60 681 60 701 20 c 1,17,-1
 681 0 l 1,18,-1
 631 0 l 1,19,-1
 571 10 l 1,20,-1
 531 0 l 1,21,-1
 521 10 l 1,22,-1
 521 20 l 1,23,24
 542 60 542 60 571 60 c 1,25,-1
 581 1062 l 1,26,-1
 581 1102 l 1,27,28
 538 1343 538 1343 411 1343 c 1,29,-1
 311 1303 l 1,30,31
 311 1263 311 1263 270 1263 c 1,32,33
 270 1232 270 1232 230 1203 c 1,34,-1
 240 1142 l 1,35,-1
 230 1082 l 1,36,-1
 250 1012 l 1,37,-1
 220 852 l 1,38,-1
 220 842 l 1,39,40
 250 842 250 842 250 822 c 1,41,-1
 240 812 l 1,42,-1
 230 812 l 1,43,-1
 220 822 l 1,44,-1
 220 812 l 1,45,-1
 240 391 l 1,46,-1
 240 170 l 1,47,-1
 230 100 l 1,48,49
 301 95 301 95 301 40 c 1,50,-1
 260 10 l 1,51,-1
 100 10 l 1,52,-1
 80 30 l 1,53,-1
 80 60 l 1,54,-1
 130 120 l 1,55,-1
 130 140 l 1,56,-1
 100 120 l 1,57,-1
 90 130 l 1,58,-1
 90 140 l 1,59,-1
 110 160 l 1,60,-1
 120 150 l 1,61,-1
 130 150 l 1,62,-1
 140 411 l 1,63,-1
 120 1333 l 1,64,65
 40 1343 40 1343 40 1373 c 2,66,-1
 40 1393 l 2,67,68
 40 1423 40 1423 150 1423 c 2,0,-1
391 1313 m 1,69,-1
 401 1313 l 1,70,-1
 421 1293 l 1,71,-1
 411 1283 l 1,72,-1
 391 1283 l 1,73,-1
 391 1313 l 1,69,-1
EndSplineSet
EndChar

StartChar: o
Encoding: 111 111 81
Width: 496
GlyphClass: 2
Flags: W
LayerCount: 2
Fore
SplineSet
223 1423 m 1,0,1
 416 1357 416 1357 416 1027 c 1,2,3
 426 708 426 708 456 499 c 1,4,-1
 446 469 l 1,5,-1
 456 408 l 1,6,7
 456 102 456 102 284 -29 c 1,8,9
 70 -29 70 -29 70 235 c 1,10,11
 50 341 50 341 40 661 c 1,12,13
 40 1413 40 1413 202 1413 c 1,14,-1
 213 1423 l 1,15,-1
 223 1423 l 1,0,1
101 733 m 1,16,17
 131 73 131 73 182 73 c 1,18,19
 189 42 189 42 243 22 c 1,20,21
 314 42 314 42 314 103 c 2,22,-1
 314 123 l 1,23,-1
 304 133 l 1,24,-1
 304 144 l 1,25,26
 348 144 348 144 355 1007 c 1,27,28
 306 1362 306 1362 223 1362 c 2,29,-1
 213 1362 l 2,30,31
 130 1362 130 1362 101 733 c 1,16,17
EndSplineSet
EndChar

StartChar: p
Encoding: 112 112 82
Width: 590
GlyphClass: 2
Flags: W
LayerCount: 2
Fore
SplineSet
198 1393 m 1,0,1
 216 1376 216 1376 216 1300 c 1,2,-1
 309 1384 l 1,3,-1
 355 1384 l 2,4,5
 452 1384 452 1384 541 836 c 1,6,-1
 550 642 l 1,7,-1
 550 456 l 1,8,9
 519 76 519 76 393 76 c 2,10,-1
 355 76 l 2,11,12
 310 76 310 76 226 150 c 1,13,-1
 235 57 l 1,14,-1
 235 38 l 2,15,16
 235 -253 235 -253 207 -416 c 1,17,18
 226 -443 226 -443 226 -490 c 1,19,-1
 281 -490 l 1,20,-1
 300 -508 l 1,21,-1
 300 -518 l 1,22,23
 290 -546 290 -546 244 -546 c 2,24,-1
 123 -546 l 1,25,-1
 105 -527 l 1,26,27
 105 -508 105 -508 133 -508 c 1,28,-1
 123 -481 l 1,29,-1
 142 -425 l 1,30,-1
 142 -351 l 1,31,-1
 123 -332 l 1,32,-1
 133 -267 l 1,33,-1
 123 -184 l 1,34,-1
 133 -184 l 1,35,-1
 123 -174 l 1,36,-1
 123 -156 l 1,37,-1
 133 -100 l 1,38,-1
 123 -72 l 1,39,-1
 133 -63 l 1,40,-1
 133 -54 l 1,41,-1
 123 -45 l 1,42,-1
 133 1 l 1,43,-1
 114 243 l 1,44,-1
 133 790 l 1,45,-1
 123 1096 l 1,46,-1
 114 1105 l 1,47,-1
 114 1115 l 1,48,-1
 123 1152 l 1,49,-1
 114 1161 l 1,50,-1
 114 1170 l 1,51,-1
 123 1180 l 1,52,-1
 114 1226 l 1,53,-1
 114 1319 l 1,54,55
 40 1330 40 1330 40 1356 c 1,56,-1
 68 1384 l 1,57,-1
 151 1384 l 1,58,-1
 198 1393 l 1,0,1
207 1096 m 1,59,-1
 226 1040 l 1,60,-1
 226 985 l 1,61,-1
 207 911 l 1,62,-1
 226 892 l 1,63,-1
 226 883 l 1,64,-1
 207 855 l 1,65,-1
 198 623 l 1,66,-1
 216 308 l 1,67,-1
 216 270 l 1,68,69
 311 150 311 150 374 150 c 1,70,71
 457 274 457 274 457 456 c 2,72,-1
 457 530 l 2,73,74
 457 821 457 821 430 873 c 1,75,-1
 439 911 l 1,76,77
 423 1004 423 1004 383 1040 c 1,78,-1
 411 1078 l 1,79,-1
 411 1124 l 1,80,81
 393 1139 393 1139 374 1272 c 1,82,-1
 337 1310 l 1,83,-1
 328 1310 l 1,84,85
 221 1202 221 1202 207 1096 c 1,59,-1
EndSplineSet
EndChar

StartChar: q
Encoding: 113 113 83
Width: 558
GlyphClass: 2
Flags: W
LayerCount: 2
Fore
SplineSet
500 1416 m 1,0,-1
 518 1389 l 1,1,-1
 518 1371 l 1,2,-1
 500 1353 l 1,3,-1
 455 1353 l 1,4,-1
 473 288 l 1,5,-1
 491 288 l 1,6,-1
 491 252 l 2,7,8
 491 234 491 234 464 234 c 1,9,-1
 464 189 l 1,10,-1
 455 -415 l 1,11,12
 509 -424 509 -424 509 -442 c 2,13,-1
 509 -451 l 1,14,-1
 482 -479 l 1,15,-1
 455 -479 l 2,16,17
 311 -479 311 -479 311 -451 c 0,18,19
 311 -424 311 -424 374 -424 c 1,20,-1
 374 -406 l 1,21,22
 347 -406 347 -406 347 -388 c 1,23,-1
 374 -379 l 1,24,-1
 392 207 l 1,25,-1
 392 216 l 1,26,-1
 383 216 l 1,27,28
 383 159 383 159 275 135 c 1,29,30
 102 135 102 135 49 423 c 1,31,-1
 40 532 l 1,32,33
 61 1272 61 1272 175 1380 c 1,34,-1
 230 1398 l 1,35,36
 347 1365 347 1365 347 1308 c 1,37,-1
 356 1308 l 1,38,39
 356 1407 356 1407 374 1407 c 2,40,-1
 410 1407 l 1,41,-1
 500 1416 l 1,0,-1
230 1353 m 1,42,43
 175 1252 175 1252 103 649 c 1,44,45
 139 649 139 649 139 595 c 1,46,-1
 121 577 l 1,47,-1
 121 550 l 1,48,-1
 139 514 l 1,49,-1
 121 487 l 1,50,-1
 148 423 l 1,51,-1
 148 387 l 1,52,-1
 139 342 l 1,53,-1
 148 333 l 1,54,-1
 157 333 l 1,55,56
 157 360 157 360 175 360 c 1,57,-1
 193 333 l 1,58,-1
 193 324 l 2,59,60
 193 306 193 306 166 306 c 1,61,-1
 166 297 l 1,62,63
 199 198 199 198 284 198 c 2,64,-1
 320 198 l 2,65,66
 353 198 353 198 392 360 c 1,67,68
 373 1326 373 1326 293 1326 c 1,69,70
 260 1353 260 1353 230 1353 c 1,42,43
473 1335 m 1,71,-1
 491 1317 l 1,72,-1
 491 1308 l 1,73,-1
 473 1308 l 1,74,-1
 473 1335 l 1,71,-1
464 -298 m 1,75,-1
 482 -298 l 1,76,-1
 482 -307 l 1,77,-1
 464 -307 l 1,78,-1
 464 -298 l 1,75,-1
EndSplineSet
EndChar

StartChar: r
Encoding: 114 114 84
Width: 479
GlyphClass: 2
Flags: W
LayerCount: 2
Fore
SplineSet
80 1423 m 1,0,1
 190 1423 190 1423 190 1353 c 2,2,-1
 190 1293 l 1,3,-1
 200 1293 l 1,4,5
 232 1413 232 1413 339 1413 c 1,6,7
 439 1379 439 1379 439 1273 c 2,8,-1
 439 1213 l 1,9,-1
 409 1184 l 1,10,-1
 389 1184 l 1,11,-1
 359 1213 l 1,12,-1
 359 1233 l 1,13,-1
 379 1313 l 1,14,-1
 369 1353 l 1,15,-1
 299 1353 l 2,16,17
 239 1353 239 1353 200 1114 c 1,18,-1
 210 465 l 1,19,-1
 200 226 l 1,20,-1
 210 216 l 1,21,-1
 220 216 l 1,22,-1
 210 146 l 1,23,-1
 210 126 l 1,24,-1
 230 86 l 1,25,-1
 220 76 l 1,26,-1
 220 56 l 1,27,-1
 230 56 l 1,28,-1
 230 76 l 1,29,-1
 240 66 l 1,30,-1
 250 66 l 1,31,-1
 240 56 l 1,32,-1
 250 6 l 1,33,-1
 240 -4 l 1,34,-1
 240 -14 l 1,35,-1
 190 -4 l 1,36,-1
 110 -4 l 1,37,-1
 80 26 l 1,38,39
 80 51 80 51 120 56 c 1,40,-1
 120 86 l 1,41,-1
 110 1184 l 1,42,43
 80 1184 80 1184 80 1203 c 0,44,45
 80 1223 80 1223 110 1223 c 1,46,-1
 110 1313 l 1,47,-1
 40 1373 l 1,48,-1
 40 1393 l 2,49,50
 40 1408 40 1408 80 1423 c 1,0,1
270 1303 m 1,51,-1
 299 1303 l 1,52,-1
 299 1273 l 1,53,-1
 289 1273 l 1,54,-1
 270 1293 l 1,55,-1
 270 1303 l 1,51,-1
EndSplineSet
EndChar

StartChar: s
Encoding: 115 115 85
Width: 463
GlyphClass: 2
Flags: W
LayerCount: 2
Fore
SplineSet
211 1421 m 1,0,-1
 332 1371 l 1,1,-1
 342 1381 l 1,2,-1
 362 1381 l 1,3,-1
 383 1361 l 1,4,-1
 383 1340 l 1,5,6
 344 1250 344 1250 312 1240 c 1,7,-1
 292 1240 l 1,8,-1
 272 1260 l 1,9,-1
 272 1290 l 1,10,-1
 282 1300 l 1,11,-1
 282 1310 l 1,12,-1
 201 1361 l 1,13,-1
 191 1361 l 2,14,15
 154 1361 154 1361 141 1230 c 1,16,17
 165 1230 165 1230 191 1099 c 1,18,-1
 181 1088 l 1,19,-1
 201 1068 l 1,20,-1
 191 1008 l 1,21,22
 423 513 423 513 423 373 c 0,23,24
 423 53 423 53 231 0 c 1,25,-1
 201 -10 l 1,26,27
 140 8 140 8 80 61 c 1,28,-1
 50 50 l 1,29,-1
 40 61 l 1,30,-1
 40 71 l 2,31,32
 40 132 40 132 111 181 c 1,33,-1
 121 181 l 2,34,35
 141 181 141 181 141 121 c 1,36,-1
 181 91 l 1,37,-1
 231 91 l 1,38,39
 231 131 231 131 252 131 c 1,40,-1
 282 121 l 1,41,-1
 282 131 l 2,42,43
 282 161 282 161 302 161 c 1,44,-1
 292 212 l 1,45,46
 292 232 292 232 342 232 c 1,47,-1
 352 272 l 1,48,49
 352 593 352 593 161 887 c 1,50,51
 90 1088 90 1088 90 1250 c 0,52,53
 90 1421 90 1421 211 1421 c 1,0,-1
EndSplineSet
EndChar

StartChar: t
Encoding: 116 116 86
Width: 460
GlyphClass: 2
Flags: W
LayerCount: 2
Fore
SplineSet
217 1918 m 1,0,-1
 226 1909 l 1,1,-1
 226 1900 l 1,2,-1
 199 1900 l 1,3,-1
 217 1918 l 1,0,-1
181 1865 m 1,4,-1
 208 1847 l 1,5,-1
 217 1476 l 1,6,-1
 217 1246 l 1,7,-1
 243 1246 l 2,8,9
 318 1246 318 1246 349 1273 c 1,10,-1
 358 1264 l 1,11,-1
 358 1167 l 1,12,-1
 332 1167 l 1,13,14
 332 1193 332 1193 270 1193 c 2,15,-1
 261 1193 l 1,16,-1
 243 1176 l 1,17,-1
 234 1184 l 1,18,-1
 217 1184 l 1,19,-1
 226 787 l 1,20,-1
 226 389 l 2,21,22
 226 53 226 53 323 53 c 1,23,-1
 349 62 l 1,24,-1
 341 106 l 1,25,-1
 367 124 l 1,26,-1
 385 124 l 1,27,-1
 420 88 l 1,28,29
 394 0 394 0 332 0 c 2,30,-1
 296 0 l 2,31,32
 192 0 192 0 155 168 c 1,33,34
 144 363 144 363 128 398 c 1,35,-1
 146 451 l 1,36,-1
 146 486 l 1,37,38
 111 486 111 486 111 504 c 1,39,-1
 146 557 l 1,40,-1
 146 575 l 1,41,-1
 137 575 l 1,42,-1
 146 681 l 1,43,-1
 146 1078 l 1,44,-1
 137 1114 l 1,45,-1
 146 1123 l 1,46,-1
 146 1131 l 1,47,-1
 137 1140 l 1,48,-1
 137 1149 l 1,49,-1
 146 1193 l 1,50,-1
 137 1193 l 1,51,-1
 111 1176 l 1,52,-1
 93 1193 l 1,53,-1
 75 1193 l 1,54,-1
 49 1176 l 1,55,-1
 40 1202 l 1,56,-1
 49 1211 l 1,57,-1
 49 1220 l 1,58,-1
 40 1255 l 1,59,-1
 67 1273 l 1,60,61
 84 1273 84 1273 84 1246 c 1,62,-1
 146 1246 l 1,63,-1
 137 1335 l 1,64,-1
 137 1503 l 1,65,-1
 146 1671 l 1,66,-1
 120 1768 l 1,67,68
 133 1768 133 1768 164 1856 c 1,69,-1
 173 1865 l 1,70,-1
 181 1865 l 1,4,-1
EndSplineSet
EndChar

StartChar: u
Encoding: 117 117 87
Width: 544
GlyphClass: 2
Flags: W
LayerCount: 2
Fore
SplineSet
79 1416 m 1,0,-1
 149 1416 l 1,1,-1
 188 1377 l 1,2,-1
 188 1367 l 2,3,4
 188 1347 188 1347 158 1347 c 1,5,-1
 168 1100 l 1,6,-1
 158 972 l 1,7,-1
 168 932 l 1,8,-1
 149 913 l 1,9,-1
 139 518 l 1,10,11
 139 44 139 44 208 44 c 1,12,-1
 247 34 l 1,13,14
 356 101 356 101 356 478 c 1,15,-1
 336 547 l 1,16,-1
 326 1041 l 1,17,-1
 336 1396 l 1,18,-1
 346 1406 l 1,19,-1
 425 1406 l 1,20,-1
 445 1386 l 1,21,-1
 445 1357 l 2,22,23
 445 1327 445 1327 405 1327 c 1,24,-1
 405 1100 l 1,25,-1
 395 1011 l 1,26,27
 415 782 415 782 425 44 c 1,28,-1
 435 34 l 1,29,-1
 445 34 l 1,30,-1
 494 44 l 1,31,-1
 504 34 l 1,32,-1
 504 4 l 1,33,-1
 484 -15 l 1,34,-1
 395 -15 l 2,35,36
 369 -15 369 -15 366 34 c 1,37,38
 303 -15 303 -15 247 -15 c 0,39,40
 126 -15 126 -15 99 143 c 1,41,42
 79 271 79 271 79 488 c 2,43,-1
 79 952 l 1,44,-1
 70 1100 l 1,45,-1
 79 1219 l 1,46,-1
 79 1327 l 2,47,48
 79 1347 79 1347 40 1347 c 1,49,50
 40 1400 40 1400 79 1416 c 1,0,-1
EndSplineSet
EndChar

StartChar: v
Encoding: 118 118 88
Width: 612
GlyphClass: 2
Flags: W
LayerCount: 2
Fore
SplineSet
190 1438 m 1,0,-1
 211 1408 l 1,1,-1
 211 1378 l 1,2,-1
 200 1368 l 1,3,-1
 200 1358 l 1,4,5
 231 1358 231 1358 231 1338 c 1,6,-1
 221 1328 l 1,7,-1
 211 1328 l 2,8,9
 190 1328 190 1328 190 1358 c 1,10,-1
 180 1348 l 1,11,-1
 170 1348 l 1,12,-1
 271 766 l 1,13,-1
 281 756 l 1,14,-1
 271 706 l 1,15,-1
 341 164 l 1,16,-1
 361 164 l 1,17,18
 381 226 381 226 431 1278 c 1,19,20
 451 1278 451 1278 451 1348 c 2,21,-1
 451 1358 l 1,22,23
 401 1358 401 1358 401 1388 c 0,24,25
 401 1408 401 1408 461 1428 c 1,26,27
 572 1418 572 1418 572 1398 c 2,28,-1
 572 1388 l 2,29,30
 572 1368 572 1368 521 1368 c 1,31,-1
 521 1298 l 1,32,33
 491 1207 491 1207 451 696 c 1,34,-1
 471 656 l 1,35,-1
 451 585 l 1,36,-1
 461 575 l 1,37,-1
 461 565 l 1,38,-1
 451 505 l 1,39,-1
 451 485 l 1,40,-1
 481 445 l 1,41,42
 481 425 481 425 451 425 c 1,43,44
 451 365 451 365 431 365 c 1,45,-1
 441 355 l 1,46,-1
 411 44 l 1,47,-1
 451 4 l 1,48,-1
 431 -16 l 1,49,-1
 321 -16 l 1,50,-1
 291 14 l 1,51,-1
 311 44 l 1,52,-1
 221 465 l 1,53,-1
 190 465 l 1,54,-1
 190 475 l 2,55,56
 190 495 190 495 221 495 c 1,57,-1
 221 555 l 1,58,-1
 200 585 l 1,59,-1
 211 626 l 1,60,61
 150 1128 150 1128 80 1358 c 1,62,63
 40 1358 40 1358 40 1388 c 2,64,-1
 40 1418 l 1,65,-1
 190 1438 l 1,0,-1
EndSplineSet
EndChar

StartChar: w
Encoding: 119 119 89
Width: 913
GlyphClass: 2
Flags: W
LayerCount: 2
Fore
SplineSet
119 1416 m 2,0,-1
 169 1416 l 1,1,-1
 209 1376 l 1,2,3
 209 1356 209 1356 159 1356 c 1,4,-1
 288 226 l 1,5,-1
 308 226 l 1,6,7
 360 796 360 796 397 930 c 1,8,-1
 387 940 l 1,9,-1
 387 960 l 1,10,-1
 407 980 l 1,11,-1
 457 980 l 1,12,-1
 486 950 l 1,13,14
 486 930 486 930 457 930 c 1,15,-1
 457 880 l 2,16,17
 457 753 457 753 595 365 c 1,18,-1
 605 355 l 1,19,-1
 595 325 l 1,20,-1
 615 276 l 1,21,-1
 605 276 l 1,22,-1
 615 236 l 1,23,-1
 625 236 l 1,24,-1
 764 1347 l 1,25,-1
 724 1356 l 1,26,-1
 724 1386 l 2,27,28
 724 1416 724 1416 833 1416 c 2,29,-1
 843 1416 l 1,30,-1
 873 1386 l 1,31,32
 873 1366 873 1366 843 1366 c 1,33,-1
 853 1297 l 1,34,35
 814 1297 814 1297 764 702 c 1,36,37
 714 406 714 406 714 256 c 2,38,-1
 714 147 l 2,39,40
 714 76 714 76 695 38 c 1,41,42
 734 38 734 38 734 18 c 256,43,44
 734 -2 734 -2 704 -2 c 1,45,-1
 695 -12 l 1,46,-1
 695 -22 l 1,47,48
 585 -12 585 -12 585 8 c 2,49,-1
 585 18 l 1,50,-1
 595 28 l 1,51,-1
 585 38 l 1,52,-1
 585 47 l 1,53,-1
 595 87 l 1,54,55
 476 470 476 470 417 841 c 1,56,-1
 407 841 l 1,57,-1
 387 613 l 1,58,-1
 397 603 l 1,59,-1
 397 593 l 1,60,-1
 387 583 l 1,61,-1
 407 494 l 1,62,63
 371 494 371 494 328 67 c 1,64,-1
 318 57 l 1,65,66
 387 44 387 44 387 18 c 1,67,68
 339 -12 339 -12 258 -12 c 1,69,70
 199 -2 199 -2 199 18 c 256,71,72
 199 38 199 38 228 38 c 1,73,74
 199 186 199 186 149 861 c 1,75,76
 106 1178 106 1178 90 1178 c 0,77,78
 60 1178 60 1178 60 1198 c 1,79,-1
 90 1198 l 1,80,-1
 90 1228 l 1,81,-1
 70 1257 l 1,82,-1
 80 1317 l 1,83,-1
 40 1376 l 1,84,-1
 40 1386 l 1,85,86
 46 1416 46 1416 119 1416 c 2,0,-1
605 424 m 1,87,-1
 605 395 l 1,88,-1
 585 395 l 1,89,-1
 585 404 l 1,90,-1
 605 424 l 1,87,-1
EndSplineSet
EndChar

StartChar: x
Encoding: 120 120 90
Width: 584
GlyphClass: 2
Flags: W
LayerCount: 2
Fore
SplineSet
168 1423 m 1,0,1
 218 1410 218 1410 218 1393 c 2,2,-1
 218 1354 l 1,3,4
 178 1354 178 1354 178 1304 c 1,5,6
 198 1304 198 1304 208 1186 c 1,7,-1
 198 1146 l 1,8,-1
 267 811 l 1,9,-1
 277 811 l 1,10,-1
 287 860 l 1,11,-1
 287 890 l 1,12,-1
 277 899 l 1,13,-1
 277 909 l 1,14,-1
 287 919 l 1,15,-1
 297 919 l 1,16,-1
 287 949 l 1,17,-1
 317 1117 l 1,18,-1
 307 1146 l 1,19,20
 346 1146 346 1146 346 1245 c 1,21,-1
 386 1354 l 1,22,-1
 376 1354 l 1,23,-1
 346 1383 l 1,24,25
 352 1413 352 1413 425 1413 c 2,26,-1
 435 1413 l 1,27,-1
 465 1383 l 1,28,29
 402 1340 402 1340 386 1196 c 1,30,-1
 307 633 l 1,31,-1
 425 238 l 1,32,-1
 445 238 l 1,33,-1
 445 129 l 1,34,35
 475 98 475 98 475 40 c 1,36,-1
 524 50 l 1,37,-1
 544 -9 l 1,38,-1
 534 -19 l 1,39,-1
 376 -19 l 1,40,-1
 356 1 l 1,41,-1
 376 80 l 1,42,43
 287 345 287 345 287 425 c 1,44,-1
 277 425 l 1,45,46
 238 176 238 176 238 50 c 1,47,-1
 257 30 l 1,48,-1
 257 11 l 2,49,50
 257 -16 257 -16 159 -29 c 1,51,52
 80 -13 80 -13 80 11 c 2,53,-1
 80 30 l 1,54,-1
 99 50 l 1,55,-1
 149 50 l 1,56,-1
 159 99 l 1,57,-1
 149 109 l 1,58,-1
 178 119 l 1,59,-1
 178 129 l 1,60,-1
 159 159 l 1,61,62
 192 159 192 159 247 564 c 1,63,-1
 89 1354 l 1,64,65
 40 1354 40 1354 40 1383 c 2,66,-1
 40 1403 l 1,67,-1
 168 1423 l 1,0,1
EndSplineSet
EndChar

StartChar: y
Encoding: 121 121 91
Width: 571
GlyphClass: 2
Flags: W
LayerCount: 2
Fore
SplineSet
60 1423 m 1,0,-1
 187 1423 l 1,1,-1
 207 1403 l 1,2,-1
 207 1394 l 2,3,4
 207 1364 207 1364 168 1364 c 1,5,-1
 187 1335 l 1,6,-1
 158 1335 l 1,7,-1
 158 1364 l 1,8,-1
 138 1364 l 1,9,-1
 138 1354 l 1,10,-1
 325 775 l 1,11,-1
 334 775 l 1,12,-1
 403 1364 l 1,13,-1
 374 1394 l 1,14,15
 374 1410 374 1410 442 1423 c 1,16,17
 531 1411 531 1411 531 1384 c 0,18,19
 531 1364 531 1364 482 1364 c 1,20,21
 442 1231 442 1231 423 991 c 1,22,-1
 442 972 l 1,23,-1
 442 962 l 1,24,-1
 413 962 l 1,25,-1
 383 667 l 1,26,-1
 393 599 l 1,27,-1
 383 363 l 1,28,-1
 383 353 l 2,29,30
 383 292 383 292 413 216 c 1,31,-1
 393 157 l 1,32,-1
 413 128 l 1,33,-1
 393 69 l 1,34,-1
 393 59 l 1,35,36
 433 59 433 59 433 39 c 2,37,-1
 433 20 l 1,38,-1
 413 0 l 1,39,-1
 325 0 l 2,40,41
 274 0 274 0 266 29 c 1,42,-1
 266 39 l 2,43,44
 266 59 266 59 295 59 c 1,45,-1
 305 69 l 1,46,-1
 305 79 l 1,47,-1
 315 481 l 1,48,-1
 325 530 l 1,49,-1
 295 530 l 1,50,-1
 295 540 l 2,51,52
 295 559 295 559 325 559 c 1,53,-1
 295 707 l 1,54,-1
 305 716 l 1,55,56
 290 719 290 719 148 1187 c 1,57,58
 111 1374 111 1374 40 1374 c 1,59,-1
 40 1403 l 1,60,-1
 60 1423 l 1,0,-1
EndSplineSet
EndChar

StartChar: z
Encoding: 122 122 92
Width: 506
GlyphClass: 2
Flags: W
LayerCount: 2
Fore
SplineSet
149 1416 m 2,0,-1
 367 1416 l 1,1,2
 466 1404 466 1404 466 1376 c 1,3,-1
 437 1327 l 1,4,-1
 447 1327 l 1,5,6
 347 1051 347 1051 278 732 c 1,7,-1
 308 732 l 1,8,-1
 288 712 l 1,9,-1
 278 722 l 1,10,-1
 119 57 l 1,11,12
 376 47 376 47 407 28 c 1,13,14
 407 107 407 107 427 107 c 2,15,-1
 457 107 l 1,16,-1
 457 8 l 2,17,18
 457 -22 457 -22 347 -22 c 1,19,-1
 119 8 l 1,20,-1
 50 -2 l 1,21,-1
 40 8 l 1,22,-1
 40 18 l 1,23,-1
 129 454 l 1,24,25
 155 575 155 575 179 593 c 1,26,-1
 169 603 l 1,27,-1
 169 613 l 1,28,29
 203 636 203 636 228 791 c 1,30,-1
 357 1297 l 1,31,-1
 347 1327 l 1,32,-1
 357 1356 l 1,33,-1
 347 1356 l 1,34,-1
 189 1366 l 1,35,-1
 169 1366 l 1,36,-1
 169 1307 l 1,37,38
 199 1307 199 1307 199 1287 c 0,39,40
 199 1264 199 1264 129 1257 c 1,41,-1
 109 1356 l 1,42,43
 130 1416 130 1416 149 1416 c 2,0,-1
EndSplineSet
EndChar

StartChar: braceleft
Encoding: 123 123 93
Width: 291
GlyphClass: 2
Flags: W
LayerCount: 2
Fore
SplineSet
234 -1 m 1,0,-1
 200 0 l 1,1,2
 41 73 41 73 44 255 c 1,3,-1
 83 533 l 1,4,-1
 89 846 l 2,5,6
 89 897 89 897 40 965 c 1,7,8
 109 1050 109 1050 112 1217 c 1,9,10
 98 1530 98 1530 76 1581 c 1,11,-1
 85 1589 l 1,12,-1
 77 1632 l 1,13,-1
 86 1657 l 1,14,-1
 79 1699 l 1,15,-1
 79 1750 l 1,16,17
 128 1851 128 1851 183 1850 c 1,18,-1
 191 1849 l 1,19,-1
 199 1841 l 1,20,-1
 208 1849 l 1,21,-1
 216 1849 l 1,22,-1
 233 1832 l 1,23,24
 165 1787 165 1787 161 1580 c 0,25,26
 155 1227 155 1227 212 1122 c 1,27,-1
 186 1115 l 1,28,-1
 186 1089 l 1,29,30
 185 1047 185 1047 108 972 c 1,31,32
 198 817 198 817 197 751 c 1,33,-1
 204 675 l 1,34,-1
 195 641 l 1,35,-1
 202 573 l 1,36,-1
 193 540 l 1,37,-1
 201 506 l 1,38,-1
 200 489 l 1,39,40
 200 456 200 456 148 405 c 1,41,-1
 148 397 l 1,42,-1
 157 405 l 1,43,-1
 174 405 l 1,44,-1
 173 380 l 2,45,46
 173 363 173 363 139 363 c 1,47,48
 135 128 135 128 251 23 c 1,49,-1
 251 15 l 1,50,-1
 234 -1 l 1,0,-1
EndSplineSet
EndChar

StartChar: braceright
Encoding: 125 125 95
Width: 308
GlyphClass: 2
Flags: W
LayerCount: 2
Fore
SplineSet
57 1850 m 1,0,-1
 91 1850 l 1,1,2
 251 1779 251 1779 251 1597 c 1,3,-1
 217 1318 l 1,4,-1
 217 1005 l 2,5,6
 217 954 217 954 268 887 c 1,7,8
 201 801 201 801 201 634 c 1,9,10
 221 321 221 321 243 270 c 1,11,-1
 234 262 l 1,12,-1
 243 220 l 1,13,-1
 234 194 l 1,14,-1
 243 152 l 1,15,-1
 243 101 l 1,16,17
 196 0 196 0 141 0 c 2,18,-1
 133 0 l 1,19,-1
 124 8 l 1,20,-1
 116 0 l 1,21,-1
 108 0 l 1,22,-1
 91 17 l 1,23,24
 158 63 158 63 158 270 c 0,25,26
 158 623 158 623 99 726 c 1,27,-1
 124 735 l 1,28,-1
 124 760 l 2,29,30
 124 803 124 803 201 879 c 1,31,32
 108 1032 108 1032 108 1098 c 1,33,-1
 99 1174 l 1,34,-1
 108 1208 l 1,35,-1
 99 1276 l 1,36,-1
 108 1309 l 1,37,-1
 99 1343 l 1,38,-1
 99 1360 l 2,39,40
 99 1393 99 1393 150 1445 c 1,41,-1
 150 1453 l 1,42,-1
 141 1445 l 1,43,-1
 124 1445 l 1,44,-1
 124 1470 l 2,45,46
 124 1487 124 1487 158 1487 c 1,47,48
 158 1722 158 1722 40 1825 c 1,49,-1
 40 1833 l 1,50,-1
 57 1850 l 1,0,-1
EndSplineSet
EndChar

StartChar: exclamdown
Encoding: 161 161 97
Width: 316
GlyphClass: 2
Flags: W
LayerCount: 2
Fore
SplineSet
173 -279 m 0,0,1
 63 -271 63 -271 70 -160 c 1,2,-1
 40 -125 l 1,3,4
 41 -112 41 -112 60 -114 c 1,5,-1
 62 -88 l 1,6,7
 161 674 161 674 172 833 c 1,8,-1
 179 839 l 1,9,-1
 198 838 l 2,10,11
 244 835 244 835 256 -121 c 1,12,13
 236 -283 236 -283 173 -279 c 0,0,1
220 778 m 1,14,-1
 221 784 l 1,15,-1
 235 796 l 1,16,-1
 241 789 l 1,17,-1
 240 783 l 1,18,-1
 233 777 l 1,19,-1
 220 778 l 1,14,-1
104 897 m 1,20,-1
 98 897 l 1,21,-1
 79 918 l 1,22,-1
 80 925 l 1,23,24
 81 940 81 940 114 942 c 1,25,-1
 125 922 l 1,26,-1
 125 915 l 1,27,-1
 104 897 l 1,20,-1
178 925 m 1,28,29
 88 946 88 946 93 1015 c 1,30,-1
 94 1042 l 1,31,32
 112 1152 112 1152 193 1146 c 1,33,34
 276 1107 276 1107 272 1049 c 1,35,-1
 269 1016 l 1,36,37
 250 920 250 920 178 925 c 1,28,29
EndSplineSet
EndChar

StartChar: copyright
Encoding: 169 169 105
Width: 507
GlyphClass: 2
Flags: W
LayerCount: 2
Fore
SplineSet
182 1865 m 0,0,1
 330 1865 330 1865 400 1740 c 1,2,3
 400 1659 400 1659 349 1622 c 1,4,-1
 341 1622 l 1,5,-1
 324 1639 l 1,6,-1
 324 1656 l 1,7,-1
 341 1681 l 1,8,-1
 324 1698 l 1,9,-1
 308 1681 l 1,10,-1
 291 1698 l 1,11,-1
 291 1723 l 1,12,-1
 308 1723 l 1,13,14
 273 1765 273 1765 207 1765 c 2,15,-1
 140 1765 l 1,16,17
 90 1736 90 1736 90 1681 c 0,18,19
 90 1426 90 1426 308 912 c 1,20,21
 450 485 450 485 450 335 c 1,22,23
 407 17 407 17 274 17 c 1,24,25
 274 0 274 0 207 0 c 0,26,27
 136 0 136 0 82 92 c 1,28,29
 93 234 93 234 124 234 c 1,30,-1
 140 217 l 1,31,-1
 140 201 l 1,32,-1
 132 159 l 1,33,34
 177 109 177 109 257 109 c 1,35,36
 375 167 375 167 375 284 c 2,37,-1
 375 410 l 2,38,39
 375 592 375 592 216 995 c 1,40,41
 192 1019 192 1019 132 1229 c 1,42,43
 40 1479 40 1479 40 1681 c 1,44,45
 60 1865 60 1865 182 1865 c 0,0,1
191 167 m 1,46,-1
 199 159 l 1,47,-1
 199 134 l 1,48,-1
 191 134 l 1,49,-1
 174 151 l 1,50,-1
 191 167 l 1,46,-1
108 2021 m 1,51,-1
 156 1966 l 1,52,-1
 219 1919 l 1,53,-1
 288 1918 l 1,54,-1
 333 1919 l 1,55,-1
 391 1966 l 1,56,57
 441 2011 441 2011 431 2051 c 0,58,59
 422 2087 422 2087 390 2052 c 1,60,-1
 324 2005 l 1,61,62
 304 2003 304 2003 264 1999 c 1,63,-1
 189 2046 l 1,64,65
 166 2071 166 2071 110 2105 c 0,66,67
 62 2135 62 2135 108 2021 c 1,51,-1
EndSplineSet
EndChar

StartChar: guillemotleft
Encoding: 171 171 107
Width: 616
GlyphClass: 2
Flags: W
LayerCount: 2
Fore
SplineSet
417 1918 m 1,0,-1
 425 1910 l 1,1,-1
 425 1901 l 1,2,-1
 417 1893 l 1,3,-1
 409 1893 l 1,4,-1
 400 1901 l 1,5,-1
 400 1910 l 1,6,-1
 409 1918 l 1,7,-1
 417 1918 l 1,0,-1
174 1884 m 1,8,-1
 375 1868 l 1,9,-1
 417 1876 l 1,10,-1
 492 1859 l 1,11,-1
 543 1868 l 1,12,-1
 551 1868 l 2,13,14
 571 1868 571 1868 576 1801 c 1,15,16
 566 1717 566 1717 543 1717 c 2,17,-1
 526 1717 l 2,18,19
 509 1717 509 1717 501 1801 c 1,20,-1
 417 1792 l 1,21,-1
 375 1792 l 1,22,-1
 383 1784 l 1,23,-1
 383 1776 l 1,24,-1
 367 1583 l 1,25,-1
 367 1173 l 2,26,27
 367 1143 367 1143 400 1114 c 1,28,-1
 392 1106 l 1,29,-1
 392 1097 l 1,30,-1
 400 1089 l 1,31,32
 390 871 390 871 375 871 c 1,33,-1
 383 821 l 1,34,35
 400 216 400 216 434 67 c 1,36,37
 476 61 476 61 476 42 c 2,38,-1
 476 34 l 1,39,-1
 459 17 l 1,40,-1
 400 17 l 1,41,-1
 333 0 l 1,42,-1
 300 0 l 1,43,-1
 283 17 l 1,44,-1
 283 34 l 2,45,46
 283 53 283 53 325 59 c 1,47,-1
 266 1600 l 1,48,-1
 275 1792 l 1,49,-1
 249 1792 l 1,50,51
 249 1759 249 1759 233 1759 c 1,52,53
 233 1809 233 1809 99 1809 c 1,54,-1
 99 1725 l 1,55,-1
 82 1709 l 1,56,-1
 74 1709 l 2,57,58
 46 1709 46 1709 40 1843 c 1,59,60
 60 1865 60 1865 166 1876 c 1,61,-1
 174 1884 l 1,8,-1
275 779 m 1,62,-1
 291 779 l 1,63,-1
 291 771 l 1,64,-1
 275 771 l 1,65,-1
 275 779 l 1,62,-1
134 2045 m 1,66,-1
 182 1990 l 1,67,-1
 245 1943 l 1,68,-1
 314 1942 l 1,69,-1
 359 1943 l 1,70,-1
 417 1990 l 1,71,72
 467 2035 467 2035 457 2075 c 0,73,74
 448 2111 448 2111 416 2076 c 1,75,-1
 350 2029 l 1,76,77
 330 2027 330 2027 290 2023 c 1,78,-1
 215 2070 l 1,79,80
 192 2095 192 2095 136 2129 c 0,81,82
 88 2159 88 2159 134 2045 c 1,66,-1
EndSplineSet
EndChar

StartChar: registered
Encoding: 174 174 109
Width: 596
GlyphClass: 2
Flags: W
LayerCount: 2
Fore
SplineSet
387 1880 m 1,0,1
 523 1880 523 1880 523 1812 c 2,2,-1
 523 1787 l 1,3,-1
 260 610 l 1,4,-1
 243 576 l 1,5,-1
 252 550 l 1,6,-1
 243 550 l 2,7,8
 229 550 229 550 218 483 c 1,9,-1
 235 483 l 1,10,-1
 235 440 l 1,11,-1
 209 440 l 1,12,13
 209 380 209 380 192 347 c 1,14,-1
 201 313 l 1,15,-1
 192 288 l 1,16,-1
 201 263 l 1,17,18
 184 263 184 263 167 169 c 1,19,-1
 167 135 l 1,20,-1
 175 93 l 1,21,-1
 150 85 l 1,22,-1
 150 68 l 1,23,-1
 269 68 l 2,24,25
 472 68 472 68 472 119 c 1,26,27
 480 220 480 220 497 220 c 2,28,-1
 514 220 l 2,29,30
 538 220 538 220 548 34 c 1,31,-1
 523 17 l 1,32,-1
 65 0 l 1,33,-1
 40 51 l 1,34,35
 116 491 116 491 235 915 c 1,36,-1
 370 1609 l 1,37,-1
 362 1617 l 1,38,-1
 353 1617 l 1,39,-1
 362 1626 l 1,40,-1
 362 1643 l 1,41,42
 336 1643 336 1643 336 1660 c 1,43,44
 380 1686 380 1686 421 1804 c 1,45,-1
 396 1804 l 1,46,-1
 260 1787 l 1,47,-1
 192 1804 l 1,48,49
 150 1804 150 1804 150 1761 c 1,50,-1
 159 1761 l 1,51,-1
 175 1745 l 1,52,53
 167 1719 167 1719 125 1719 c 0,54,55
 97 1719 97 1719 91 1821 c 1,56,-1
 116 1863 l 1,57,-1
 142 1855 l 1,58,-1
 328 1872 l 1,59,-1
 336 1863 l 1,60,-1
 345 1863 l 1,61,-1
 387 1880 l 1,0,1
463 246 m 1,62,-1
 480 246 l 1,63,-1
 480 237 l 1,64,-1
 463 237 l 1,65,-1
 463 246 l 1,62,-1
446 186 m 1,66,-1
 455 186 l 1,67,-1
 472 169 l 1,68,-1
 455 152 l 1,69,-1
 446 161 l 1,70,-1
 446 186 l 1,66,-1
134 2045 m 1,71,-1
 182 1990 l 1,72,-1
 245 1943 l 1,73,-1
 314 1942 l 1,74,-1
 359 1943 l 1,75,-1
 417 1990 l 1,76,77
 467 2035 467 2035 457 2075 c 0,78,79
 448 2111 448 2111 416 2076 c 1,80,-1
 350 2029 l 1,81,82
 330 2027 330 2027 290 2023 c 1,83,-1
 215 2070 l 1,84,85
 192 2095 192 2095 136 2129 c 0,86,87
 88 2159 88 2159 134 2045 c 1,71,-1
EndSplineSet
EndChar

StartChar: onesuperior
Encoding: 185 185 120
Width: 475
GlyphClass: 2
Flags: W
LayerCount: 2
Fore
SplineSet
211 1421 m 1,0,-1
 332 1371 l 1,1,-1
 342 1381 l 1,2,-1
 362 1381 l 1,3,-1
 383 1361 l 1,4,-1
 383 1340 l 1,5,6
 344 1250 344 1250 312 1240 c 1,7,-1
 292 1240 l 1,8,-1
 272 1260 l 1,9,-1
 272 1290 l 1,10,-1
 282 1300 l 1,11,-1
 282 1310 l 1,12,-1
 201 1361 l 1,13,-1
 191 1361 l 2,14,15
 154 1361 154 1361 141 1230 c 1,16,17
 165 1230 165 1230 191 1099 c 1,18,-1
 181 1088 l 1,19,-1
 201 1068 l 1,20,-1
 191 1008 l 1,21,22
 423 513 423 513 423 373 c 0,23,24
 423 53 423 53 231 0 c 1,25,-1
 201 -10 l 1,26,27
 140 8 140 8 80 61 c 1,28,-1
 50 50 l 1,29,-1
 40 61 l 1,30,-1
 40 71 l 2,31,32
 40 132 40 132 111 181 c 1,33,-1
 121 181 l 2,34,35
 141 181 141 181 141 121 c 1,36,-1
 181 91 l 1,37,-1
 231 91 l 1,38,39
 231 131 231 131 252 131 c 1,40,-1
 282 121 l 1,41,-1
 282 131 l 2,42,43
 282 161 282 161 302 161 c 1,44,-1
 292 212 l 1,45,46
 292 232 292 232 342 232 c 1,47,-1
 352 272 l 1,48,49
 352 593 352 593 161 887 c 1,50,51
 90 1088 90 1088 90 1250 c 0,52,53
 90 1421 90 1421 211 1421 c 1,0,-1
119 1579 m 1,54,-1
 167 1524 l 1,55,-1
 230 1477 l 1,56,-1
 299 1476 l 1,57,-1
 344 1477 l 1,58,-1
 402 1524 l 1,59,60
 452 1569 452 1569 442 1609 c 0,61,62
 433 1645 433 1645 401 1610 c 1,63,-1
 335 1563 l 1,64,65
 315 1561 315 1561 275 1557 c 1,66,-1
 200 1604 l 1,67,68
 177 1629 177 1629 121 1663 c 0,69,70
 73 1693 73 1693 119 1579 c 1,54,-1
EndSplineSet
EndChar

StartChar: guillemotright
Encoding: 187 187 122
Width: 514
GlyphClass: 2
Flags: W
LayerCount: 2
Fore
SplineSet
217 1918 m 1,0,-1
 226 1909 l 1,1,-1
 226 1900 l 1,2,-1
 199 1900 l 1,3,-1
 217 1918 l 1,0,-1
181 1865 m 1,4,-1
 208 1847 l 1,5,-1
 217 1476 l 1,6,-1
 217 1246 l 1,7,-1
 243 1246 l 2,8,9
 318 1246 318 1246 349 1273 c 1,10,-1
 358 1264 l 1,11,-1
 358 1167 l 1,12,-1
 332 1167 l 1,13,14
 332 1193 332 1193 270 1193 c 2,15,-1
 261 1193 l 1,16,-1
 243 1176 l 1,17,-1
 234 1184 l 1,18,-1
 217 1184 l 1,19,-1
 226 787 l 1,20,-1
 226 389 l 2,21,22
 226 53 226 53 323 53 c 1,23,-1
 349 62 l 1,24,-1
 341 106 l 1,25,-1
 367 124 l 1,26,-1
 385 124 l 1,27,-1
 420 88 l 1,28,29
 394 0 394 0 332 0 c 2,30,-1
 296 0 l 2,31,32
 192 0 192 0 155 168 c 1,33,34
 144 363 144 363 128 398 c 1,35,-1
 146 451 l 1,36,-1
 146 486 l 1,37,38
 111 486 111 486 111 504 c 1,39,-1
 146 557 l 1,40,-1
 146 575 l 1,41,-1
 137 575 l 1,42,-1
 146 681 l 1,43,-1
 146 1078 l 1,44,-1
 137 1114 l 1,45,-1
 146 1123 l 1,46,-1
 146 1131 l 1,47,-1
 137 1140 l 1,48,-1
 137 1149 l 1,49,-1
 146 1193 l 1,50,-1
 137 1193 l 1,51,-1
 111 1176 l 1,52,-1
 93 1193 l 1,53,-1
 75 1193 l 1,54,-1
 49 1176 l 1,55,-1
 40 1202 l 1,56,-1
 49 1211 l 1,57,-1
 49 1220 l 1,58,-1
 40 1255 l 1,59,-1
 67 1273 l 1,60,61
 84 1273 84 1273 84 1246 c 1,62,-1
 146 1246 l 1,63,-1
 137 1335 l 1,64,-1
 137 1503 l 1,65,-1
 146 1671 l 1,66,-1
 120 1768 l 1,67,68
 133 1768 133 1768 164 1856 c 1,69,-1
 173 1865 l 1,70,-1
 181 1865 l 1,4,-1
445 1802 m 1,71,-1
 444 1796 l 1,72,73
 428 1729 428 1729 405 1660 c 1,74,-1
 388 1628 l 1,75,-1
 357 1582 l 1,76,77
 346 1582 346 1582 341 1595 c 1,78,79
 330 1598 330 1598 340 1631 c 1,80,81
 339 1637 339 1637 345 1646 c 1,82,83
 353 1672 353 1672 364 1682 c 0,84,85
 402 1715 402 1715 403 1774 c 1,86,87
 358 1748 358 1748 328 1777 c 1,88,89
 304 1795 304 1795 313 1825 c 1,90,91
 320 1853 320 1853 390 1866 c 1,92,93
 417 1860 417 1860 445 1802 c 1,71,-1
EndSplineSet
EndChar

StartChar: threequarters
Encoding: 190 190 125
Width: 523
GlyphClass: 2
Flags: W
LayerCount: 2
Fore
SplineSet
149 1416 m 2,0,-1
 367 1416 l 1,1,2
 466 1404 466 1404 466 1376 c 1,3,-1
 437 1327 l 1,4,-1
 447 1327 l 1,5,6
 347 1051 347 1051 278 732 c 1,7,-1
 308 732 l 1,8,-1
 288 712 l 1,9,-1
 278 722 l 1,10,-1
 119 57 l 1,11,12
 376 47 376 47 407 28 c 1,13,14
 407 107 407 107 427 107 c 2,15,-1
 457 107 l 1,16,-1
 457 8 l 2,17,18
 457 -22 457 -22 347 -22 c 1,19,-1
 119 8 l 1,20,-1
 50 -2 l 1,21,-1
 40 8 l 1,22,-1
 40 18 l 1,23,-1
 129 454 l 1,24,25
 155 575 155 575 179 593 c 1,26,-1
 169 603 l 1,27,-1
 169 613 l 1,28,29
 203 636 203 636 228 791 c 1,30,-1
 357 1297 l 1,31,-1
 347 1327 l 1,32,-1
 357 1356 l 1,33,-1
 347 1356 l 1,34,-1
 189 1366 l 1,35,-1
 169 1366 l 1,36,-1
 169 1307 l 1,37,38
 199 1307 199 1307 199 1287 c 0,39,40
 199 1264 199 1264 129 1257 c 1,41,-1
 109 1356 l 1,42,43
 130 1416 130 1416 149 1416 c 2,0,-1
119 1579 m 1,44,-1
 167 1524 l 1,45,-1
 230 1477 l 1,46,-1
 299 1476 l 1,47,-1
 344 1477 l 1,48,-1
 402 1524 l 1,49,50
 452 1569 452 1569 442 1609 c 0,51,52
 433 1645 433 1645 401 1610 c 1,53,-1
 335 1563 l 1,54,55
 315 1561 315 1561 275 1557 c 1,56,-1
 200 1604 l 1,57,58
 177 1629 177 1629 121 1663 c 0,59,60
 73 1693 73 1693 119 1579 c 1,44,-1
EndSplineSet
EndChar

StartChar: questiondown
Encoding: 191 191 126
Width: 509
GlyphClass: 2
Flags: W
LayerCount: 2
Fore
SplineSet
257 -373 m 1,0,-1
 237 -374 l 1,1,2
 79 -376 79 -376 42 -84 c 1,3,-1
 42 -57 l 1,4,5
 40 48 40 48 132 256 c 1,6,7
 162 386 162 386 198 387 c 1,8,-1
 218 407 l 1,9,-1
 225 428 l 1,10,-1
 211 428 l 1,11,-1
 211 448 l 1,12,-1
 310 606 l 1,13,-1
 329 708 l 1,14,15
 327 819 327 819 306 905 c 1,16,-1
 346 926 l 1,17,18
 394 927 394 927 396 784 c 0,19,20
 400 530 400 530 148 80 c 1,21,-1
 124 -76 l 1,22,23
 145 -321 145 -321 229 -319 c 1,24,-1
 243 -319 l 1,25,26
 310 -271 310 -271 309 -216 c 1,27,28
 403 -154 403 -154 400 50 c 1,29,-1
 400 77 l 1,30,31
 398 181 398 181 329 259 c 1,32,-1
 329 273 l 1,33,34
 328 302 328 302 369 321 c 1,35,36
 466 202 466 202 469 3 c 1,37,-1
 469 -3 l 1,38,39
 456 -275 456 -275 305 -352 c 1,40,41
 303 -366 303 -366 257 -373 c 1,0,-1
276 -251 m 1,42,-1
 275 -230 l 1,43,-1
 282 -230 l 1,44,-1
 296 -244 l 1,45,-1
 289 -251 l 1,46,-1
 276 -251 l 1,42,-1
171 393 m 1,47,-1
 157 406 l 1,48,-1
 177 420 l 1,49,-1
 184 414 l 1,50,-1
 184 407 l 1,51,-1
 171 393 l 1,47,-1
305 959 m 1,52,53
 236 958 236 958 222 1060 c 1,54,-1
 221 1074 l 1,55,56
 220 1176 220 1176 329 1177 c 1,57,58
 397 1153 397 1153 398 1090 c 2,59,-1
 399 1049 l 2,60,61
 400 979 400 979 305 959 c 1,52,53
EndSplineSet
EndChar

StartChar: Agrave
Encoding: 192 192 127
Width: 648
GlyphClass: 2
Flags: W
LayerCount: 2
Fore
SplineSet
152 2132 m 1,0,-1
 158 2134 l 1,1,2
 225 2151 225 2151 379 1979 c 1,3,-1
 386 1949 l 1,4,-1
 373 1926 l 1,5,6
 353 1921 353 1921 188 1994 c 1,7,8
 160 1986 160 1986 121 2053 c 1,9,10
 114 2080 114 2080 152 2132 c 1,0,-1
254 1861 m 1,11,-1
 279 1861 l 2,12,13
 340 1861 340 1861 345 1836 c 1,14,-1
 336 1812 l 1,15,16
 363 1579 363 1579 411 1350 c 1,17,-1
 402 1342 l 1,18,-1
 402 1334 l 1,19,20
 427 1334 427 1334 427 1301 c 1,21,-1
 419 1276 l 1,22,-1
 435 1136 l 1,23,-1
 435 1128 l 1,24,25
 460 1093 460 1093 460 1062 c 1,26,-1
 443 1013 l 1,27,-1
 443 996 l 1,28,-1
 493 741 l 1,29,-1
 493 733 l 1,30,-1
 476 716 l 1,31,-1
 501 527 l 1,32,33
 526 527 526 527 526 511 c 2,34,-1
 526 494 l 1,35,-1
 509 478 l 1,36,37
 561 86 561 86 575 74 c 1,38,39
 608 62 608 62 608 49 c 2,40,-1
 608 33 l 2,41,42
 608 8 608 8 476 8 c 1,43,44
 419 20 419 20 419 41 c 2,45,-1
 419 49 l 1,46,47
 435 69 435 69 443 132 c 1,48,-1
 394 502 l 1,49,-1
 386 502 l 2,50,51
 311 502 311 502 229 527 c 1,52,-1
 205 527 l 1,53,-1
 196 346 l 1,54,-1
 196 66 l 1,55,-1
 238 66 l 1,56,-1
 262 41 l 1,57,-1
 262 33 l 2,58,59
 262 6 262 6 139 0 c 1,60,61
 40 11 40 11 40 41 c 2,62,-1
 40 49 l 2,63,64
 40 63 40 63 114 107 c 1,65,66
 180 1342 180 1342 213 1597 c 1,67,-1
 205 1639 l 1,68,-1
 213 1647 l 1,69,-1
 213 1655 l 1,70,-1
 205 1663 l 1,71,-1
 205 1672 l 1,72,-1
 221 1795 l 1,73,74
 196 1795 196 1795 196 1812 c 2,75,-1
 196 1820 l 1,76,-1
 254 1861 l 1,11,-1
271 1606 m 1,77,-1
 271 1581 l 1,78,-1
 279 1581 l 1,79,-1
 279 1606 l 1,80,-1
 271 1606 l 1,77,-1
279 1548 m 1,81,82
 254 915 254 915 213 585 c 1,83,-1
 271 593 l 1,84,-1
 378 593 l 1,85,86
 346 765 346 765 312 1375 c 1,87,88
 300 1375 300 1375 287 1548 c 1,89,-1
 279 1548 l 1,81,82
336 634 m 1,90,-1
 353 618 l 1,91,-1
 345 609 l 1,92,-1
 336 609 l 1,93,-1
 328 618 l 1,94,-1
 320 618 l 1,95,-1
 312 609 l 1,96,-1
 304 618 l 1,97,-1
 304 626 l 1,98,-1
 312 634 l 1,99,-1
 336 634 l 1,90,-1
EndSplineSet
EndChar

StartChar: Aacute
Encoding: 193 193 128
Width: 648
GlyphClass: 2
Flags: W
LayerCount: 2
Fore
SplineSet
393 2063 m 1,0,-1
 391 2057 l 1,1,2
 371 1991 371 1991 144 1951 c 1,3,-1
 114 1960 l 1,4,-1
 102 1983 l 1,5,6
 108 2002 108 2002 256 2105 c 1,7,8
 264 2133 264 2133 342 2131 c 1,9,10
 369 2123 369 2123 393 2063 c 1,0,-1
254 1861 m 1,11,-1
 279 1861 l 2,12,13
 340 1861 340 1861 345 1836 c 1,14,-1
 336 1812 l 1,15,16
 363 1579 363 1579 411 1350 c 1,17,-1
 402 1342 l 1,18,-1
 402 1334 l 1,19,20
 427 1334 427 1334 427 1301 c 1,21,-1
 419 1276 l 1,22,-1
 435 1136 l 1,23,-1
 435 1128 l 1,24,25
 460 1093 460 1093 460 1062 c 1,26,-1
 443 1013 l 1,27,-1
 443 996 l 1,28,-1
 493 741 l 1,29,-1
 493 733 l 1,30,-1
 476 716 l 1,31,-1
 501 527 l 1,32,33
 526 527 526 527 526 511 c 2,34,-1
 526 494 l 1,35,-1
 509 478 l 1,36,37
 561 86 561 86 575 74 c 1,38,39
 608 62 608 62 608 49 c 2,40,-1
 608 33 l 2,41,42
 608 8 608 8 476 8 c 1,43,44
 419 20 419 20 419 41 c 2,45,-1
 419 49 l 1,46,47
 435 69 435 69 443 132 c 1,48,-1
 394 502 l 1,49,-1
 386 502 l 2,50,51
 311 502 311 502 229 527 c 1,52,-1
 205 527 l 1,53,-1
 196 346 l 1,54,-1
 196 66 l 1,55,-1
 238 66 l 1,56,-1
 262 41 l 1,57,-1
 262 33 l 2,58,59
 262 6 262 6 139 0 c 1,60,61
 40 11 40 11 40 41 c 2,62,-1
 40 49 l 2,63,64
 40 63 40 63 114 107 c 1,65,66
 180 1342 180 1342 213 1597 c 1,67,-1
 205 1639 l 1,68,-1
 213 1647 l 1,69,-1
 213 1655 l 1,70,-1
 205 1663 l 1,71,-1
 205 1672 l 1,72,-1
 221 1795 l 1,73,74
 196 1795 196 1795 196 1812 c 2,75,-1
 196 1820 l 1,76,-1
 254 1861 l 1,11,-1
271 1606 m 1,77,-1
 271 1581 l 1,78,-1
 279 1581 l 1,79,-1
 279 1606 l 1,80,-1
 271 1606 l 1,77,-1
279 1548 m 1,81,82
 254 915 254 915 213 585 c 1,83,-1
 271 593 l 1,84,-1
 378 593 l 1,85,86
 346 765 346 765 312 1375 c 1,87,88
 300 1375 300 1375 287 1548 c 1,89,-1
 279 1548 l 1,81,82
336 634 m 1,90,-1
 353 618 l 1,91,-1
 345 609 l 1,92,-1
 336 609 l 1,93,-1
 328 618 l 1,94,-1
 320 618 l 1,95,-1
 312 609 l 1,96,-1
 304 618 l 1,97,-1
 304 626 l 1,98,-1
 312 634 l 1,99,-1
 336 634 l 1,90,-1
EndSplineSet
EndChar

StartChar: Acircumflex
Encoding: 194 194 129
Width: 648
GlyphClass: 2
Flags: W
LayerCount: 2
Fore
SplineSet
254 1861 m 1,0,-1
 279 1861 l 2,1,2
 340 1861 340 1861 345 1836 c 1,3,-1
 336 1812 l 1,4,5
 363 1579 363 1579 411 1350 c 1,6,-1
 402 1342 l 1,7,-1
 402 1334 l 1,8,9
 427 1334 427 1334 427 1301 c 1,10,-1
 419 1276 l 1,11,-1
 435 1136 l 1,12,-1
 435 1128 l 1,13,14
 460 1093 460 1093 460 1062 c 1,15,-1
 443 1013 l 1,16,-1
 443 996 l 1,17,-1
 493 741 l 1,18,-1
 493 733 l 1,19,-1
 476 716 l 1,20,-1
 501 527 l 1,21,22
 526 527 526 527 526 511 c 2,23,-1
 526 494 l 1,24,-1
 509 478 l 1,25,26
 561 86 561 86 575 74 c 1,27,28
 608 62 608 62 608 49 c 2,29,-1
 608 33 l 2,30,31
 608 8 608 8 476 8 c 1,32,33
 419 20 419 20 419 41 c 2,34,-1
 419 49 l 1,35,36
 435 69 435 69 443 132 c 1,37,-1
 394 502 l 1,38,-1
 386 502 l 2,39,40
 311 502 311 502 229 527 c 1,41,-1
 205 527 l 1,42,-1
 196 346 l 1,43,-1
 196 66 l 1,44,-1
 238 66 l 1,45,-1
 262 41 l 1,46,-1
 262 33 l 2,47,48
 262 6 262 6 139 0 c 1,49,50
 40 11 40 11 40 41 c 2,51,-1
 40 49 l 2,52,53
 40 63 40 63 114 107 c 1,54,55
 180 1342 180 1342 213 1597 c 1,56,-1
 205 1639 l 1,57,-1
 213 1647 l 1,58,-1
 213 1655 l 1,59,-1
 205 1663 l 1,60,-1
 205 1672 l 1,61,-1
 221 1795 l 1,62,63
 196 1795 196 1795 196 1812 c 2,64,-1
 196 1820 l 1,65,-1
 254 1861 l 1,0,-1
271 1606 m 1,66,-1
 271 1581 l 1,67,-1
 279 1581 l 1,68,-1
 279 1606 l 1,69,-1
 271 1606 l 1,66,-1
279 1548 m 1,70,71
 254 915 254 915 213 585 c 1,72,-1
 271 593 l 1,73,-1
 378 593 l 1,74,75
 346 765 346 765 312 1375 c 1,76,77
 300 1375 300 1375 287 1548 c 1,78,-1
 279 1548 l 1,70,71
336 634 m 1,79,-1
 353 618 l 1,80,-1
 345 609 l 1,81,-1
 336 609 l 1,82,-1
 328 618 l 1,83,-1
 320 618 l 1,84,-1
 312 609 l 1,85,-1
 304 618 l 1,86,-1
 304 626 l 1,87,-1
 312 634 l 1,88,-1
 336 634 l 1,79,-1
164 2033 m 1,89,-1
 194 2062 l 1,90,-1
 240 2109 l 1,91,-1
 290 2167 l 1,92,-1
 343 2103 l 1,93,-1
 386 2058 l 1,94,95
 422 2028 422 2028 422 2006 c 1,96,97
 442 1996 442 1996 426 1973 c 1,98,99
 408 1961 408 1961 378 1982 c 1,100,-1
 336 2033 l 1,101,102
 304 2059 304 2059 288 2073 c 1,103,-1
 255 2042 l 1,104,105
 192 1969 192 1969 166 1971 c 1,106,107
 158 1964 158 1964 140 1990 c 1,108,109
 148 1997 148 1997 164 2033 c 1,89,-1
EndSplineSet
EndChar

StartChar: Adieresis
Encoding: 196 196 131
Width: 648
GlyphClass: 2
Flags: W
LayerCount: 2
Fore
SplineSet
254 1861 m 1,0,-1
 279 1861 l 2,1,2
 340 1861 340 1861 345 1836 c 1,3,-1
 336 1812 l 1,4,5
 363 1579 363 1579 411 1350 c 1,6,-1
 402 1342 l 1,7,-1
 402 1334 l 1,8,9
 427 1334 427 1334 427 1301 c 1,10,-1
 419 1276 l 1,11,-1
 435 1136 l 1,12,-1
 435 1128 l 1,13,14
 460 1093 460 1093 460 1062 c 1,15,-1
 443 1013 l 1,16,-1
 443 996 l 1,17,-1
 493 741 l 1,18,-1
 493 733 l 1,19,-1
 476 716 l 1,20,-1
 501 527 l 1,21,22
 526 527 526 527 526 511 c 2,23,-1
 526 494 l 1,24,-1
 509 478 l 1,25,26
 561 86 561 86 575 74 c 1,27,28
 608 62 608 62 608 49 c 2,29,-1
 608 33 l 2,30,31
 608 8 608 8 476 8 c 1,32,33
 419 20 419 20 419 41 c 2,34,-1
 419 49 l 1,35,36
 435 69 435 69 443 132 c 1,37,-1
 394 502 l 1,38,-1
 386 502 l 2,39,40
 311 502 311 502 229 527 c 1,41,-1
 205 527 l 1,42,-1
 196 346 l 1,43,-1
 196 66 l 1,44,-1
 238 66 l 1,45,-1
 262 41 l 1,46,-1
 262 33 l 2,47,48
 262 6 262 6 139 0 c 1,49,50
 40 11 40 11 40 41 c 2,51,-1
 40 49 l 2,52,53
 40 63 40 63 114 107 c 1,54,55
 180 1342 180 1342 213 1597 c 1,56,-1
 205 1639 l 1,57,-1
 213 1647 l 1,58,-1
 213 1655 l 1,59,-1
 205 1663 l 1,60,-1
 205 1672 l 1,61,-1
 221 1795 l 1,62,63
 196 1795 196 1795 196 1812 c 2,64,-1
 196 1820 l 1,65,-1
 254 1861 l 1,0,-1
271 1606 m 1,66,-1
 271 1581 l 1,67,-1
 279 1581 l 1,68,-1
 279 1606 l 1,69,-1
 271 1606 l 1,66,-1
279 1548 m 1,70,71
 254 915 254 915 213 585 c 1,72,-1
 271 593 l 1,73,-1
 378 593 l 1,74,75
 346 765 346 765 312 1375 c 1,76,77
 300 1375 300 1375 287 1548 c 1,78,-1
 279 1548 l 1,70,71
336 634 m 1,79,-1
 353 618 l 1,80,-1
 345 609 l 1,81,-1
 336 609 l 1,82,-1
 328 618 l 1,83,-1
 320 618 l 1,84,-1
 312 609 l 1,85,-1
 304 618 l 1,86,-1
 304 626 l 1,87,-1
 312 634 l 1,88,-1
 336 634 l 1,79,-1
187 2087 m 1,89,-1
 230 2087 l 2,90,91
 251 2087 251 2087 273 2023 c 1,92,93
 259 1937 259 1937 187 1937 c 1,94,95
 134 1992 134 1992 134 2033 c 1,96,-1
 187 2087 l 1,89,-1
326 2087 m 2,97,-1
 369 2087 l 1,98,99
 391 2078 391 2078 434 1948 c 1,100,-1
 423 1937 l 1,101,-1
 412 1937 l 1,102,-1
 401 1948 l 1,103,-1
 401 1958 l 1,104,-1
 391 1948 l 1,105,-1
 326 1948 l 1,106,-1
 294 1980 l 1,107,-1
 294 2023 l 1,108,109
 301 2087 301 2087 326 2087 c 2,97,-1
EndSplineSet
EndChar

StartChar: Ccedilla
Encoding: 199 199 134
Width: 577
GlyphClass: 2
Flags: W
LayerCount: 2
Fore
SplineSet
276 -52 m 1,0,-1
 311 -52 l 1,1,2
 354 -74 354 -74 354 -120 c 2,3,-1
 354 -164 l 2,4,5
 354 -235 354 -235 294 -276 c 1,6,-1
 276 -276 l 1,7,-1
 268 -215 l 1,8,-1
 276 -164 l 1,9,-1
 242 -129 l 1,10,-1
 242 -112 l 2,11,12
 242 -66 242 -66 276 -52 c 1,0,-1
280 1858 m 2,13,-1
 288 1858 l 2,14,15
 377 1858 377 1858 434 1764 c 1,16,-1
 434 1755 l 2,17,18
 434 1653 434 1653 400 1653 c 2,19,-1
 382 1653 l 2,20,21
 368 1653 368 1653 357 1704 c 1,22,-1
 365 1738 l 1,23,-1
 365 1747 l 1,24,-1
 323 1755 l 1,25,26
 224 1673 224 1673 211 1558 c 1,27,-1
 186 1421 l 1,28,-1
 194 1387 l 1,29,30
 151 1203 151 1203 151 1036 c 0,31,32
 151 383 151 383 391 111 c 1,33,34
 442 204 442 204 442 240 c 2,35,-1
 442 257 l 1,36,37
 408 257 408 257 408 274 c 2,38,-1
 408 300 l 1,39,-1
 434 325 l 1,40,-1
 468 325 l 2,41,42
 511 325 511 325 511 223 c 1,43,-1
 519 231 l 1,44,-1
 528 231 l 1,45,-1
 537 223 l 1,46,-1
 537 214 l 1,47,48
 485 214 485 214 485 128 c 1,49,50
 440 28 440 28 391 0 c 1,51,-1
 365 0 l 2,52,53
 282 0 282 0 220 103 c 1,54,-1
 203 86 l 1,55,56
 168 122 168 122 168 154 c 1,57,-1
 186 171 l 1,58,59
 40 469 40 469 40 1036 c 0,60,61
 40 1397 40 1397 160 1738 c 1,62,63
 222 1858 222 1858 280 1858 c 2,13,-1
194 163 m 1,64,-1
 194 154 l 1,65,-1
 203 128 l 1,66,-1
 211 128 l 1,67,-1
 211 137 l 1,68,-1
 203 163 l 1,69,-1
 194 163 l 1,64,-1
EndSplineSet
EndChar

StartChar: Egrave
Encoding: 200 200 135
Width: 603
GlyphClass: 2
Flags: W
LayerCount: 2
Fore
SplineSet
280 1858 m 2,0,-1
 288 1858 l 2,1,2
 377 1858 377 1858 434 1764 c 1,3,-1
 434 1755 l 2,4,5
 434 1653 434 1653 400 1653 c 2,6,-1
 382 1653 l 2,7,8
 368 1653 368 1653 357 1704 c 1,9,-1
 365 1738 l 1,10,-1
 365 1747 l 1,11,-1
 323 1755 l 1,12,13
 224 1673 224 1673 211 1558 c 1,14,-1
 186 1421 l 1,15,-1
 194 1387 l 1,16,17
 151 1203 151 1203 151 1036 c 0,18,19
 151 383 151 383 391 111 c 1,20,21
 442 204 442 204 442 240 c 2,22,-1
 442 257 l 1,23,24
 408 257 408 257 408 274 c 2,25,-1
 408 300 l 1,26,-1
 434 325 l 1,27,-1
 468 325 l 2,28,29
 511 325 511 325 511 223 c 1,30,-1
 519 231 l 1,31,-1
 528 231 l 1,32,-1
 537 223 l 1,33,-1
 537 214 l 1,34,35
 485 214 485 214 485 128 c 1,36,37
 440 28 440 28 391 0 c 1,38,-1
 365 0 l 2,39,40
 282 0 282 0 220 103 c 1,41,-1
 203 86 l 1,42,43
 168 122 168 122 168 154 c 1,44,-1
 186 171 l 1,45,46
 40 469 40 469 40 1036 c 0,47,48
 40 1397 40 1397 160 1738 c 1,49,50
 222 1858 222 1858 280 1858 c 2,0,-1
194 163 m 1,51,-1
 194 154 l 1,52,-1
 203 128 l 1,53,-1
 211 128 l 1,54,-1
 211 137 l 1,55,-1
 203 163 l 1,56,-1
 194 163 l 1,51,-1
137 2018 m 1,57,-1
 185 1963 l 1,58,-1
 248 1916 l 1,59,-1
 317 1915 l 1,60,-1
 362 1916 l 1,61,-1
 420 1963 l 1,62,63
 470 2008 470 2008 460 2048 c 0,64,65
 451 2084 451 2084 419 2049 c 1,66,-1
 353 2002 l 1,67,68
 333 2000 333 2000 293 1996 c 1,69,-1
 218 2043 l 1,70,71
 195 2068 195 2068 139 2102 c 0,72,73
 91 2132 91 2132 137 2018 c 1,57,-1
EndSplineSet
EndChar

StartChar: Eacute
Encoding: 201 201 136
Width: 493
GlyphClass: 2
Flags: W
LayerCount: 2
Fore
SplineSet
271 1884 m 1,0,1
 395 1884 395 1884 395 1768 c 2,2,-1
 395 1744 l 1,3,-1
 371 1727 l 1,4,-1
 354 1727 l 2,5,6
 336 1727 336 1727 329 1810 c 1,7,-1
 247 1818 l 1,8,-1
 164 1818 l 1,9,-1
 139 1793 l 1,10,-1
 139 1496 l 2,11,12
 139 1215 139 1215 164 1215 c 1,13,-1
 156 1173 l 1,14,-1
 156 1116 l 1,15,-1
 172 1049 l 1,16,-1
 172 1025 l 1,17,18
 205 1025 205 1025 205 934 c 1,19,20
 245 934 245 934 263 983 c 1,21,-1
 271 983 l 1,22,23
 337 920 337 920 337 892 c 2,24,-1
 337 884 l 1,25,-1
 313 868 l 1,26,-1
 304 876 l 1,27,28
 304 843 304 843 288 843 c 2,29,-1
 271 843 l 2,30,31
 251 843 251 843 247 876 c 1,32,-1
 189 868 l 1,33,-1
 164 876 l 1,34,-1
 164 868 l 2,35,36
 164 611 164 611 222 91 c 1,37,-1
 247 91 l 1,38,-1
 271 107 l 1,39,40
 296 66 296 66 387 66 c 1,41,-1
 395 74 l 1,42,-1
 395 83 l 1,43,-1
 387 140 l 1,44,-1
 395 149 l 1,45,-1
 428 149 l 1,46,47
 453 140 453 140 453 99 c 0,48,49
 453 8 453 8 337 8 c 1,50,-1
 263 0 l 1,51,52
 108 0 108 0 90 41 c 1,53,-1
 90 58 l 1,54,55
 65 461 65 461 40 1512 c 1,56,-1
 40 1669 l 2,57,58
 40 1851 40 1851 81 1851 c 1,59,60
 128 1874 128 1874 271 1884 c 1,0,1
329 2076 m 1,61,-1
 328 2070 l 1,62,63
 312 2003 312 2003 88 1948 c 1,64,-1
 58 1955 l 1,65,-1
 44 1977 l 1,66,67
 48 1997 48 1997 190 2109 c 1,68,69
 197 2137 197 2137 274 2140 c 1,70,71
 301 2134 301 2134 329 2076 c 1,61,-1
EndSplineSet
EndChar

StartChar: Edieresis
Encoding: 203 203 138
Width: 493
GlyphClass: 2
Flags: W
LayerCount: 2
Fore
SplineSet
271 1884 m 1,0,1
 395 1884 395 1884 395 1768 c 2,2,-1
 395 1744 l 1,3,-1
 371 1727 l 1,4,-1
 354 1727 l 2,5,6
 336 1727 336 1727 329 1810 c 1,7,-1
 247 1818 l 1,8,-1
 164 1818 l 1,9,-1
 139 1793 l 1,10,-1
 139 1496 l 2,11,12
 139 1215 139 1215 164 1215 c 1,13,-1
 156 1173 l 1,14,-1
 156 1116 l 1,15,-1
 172 1049 l 1,16,-1
 172 1025 l 1,17,18
 205 1025 205 1025 205 934 c 1,19,20
 245 934 245 934 263 983 c 1,21,-1
 271 983 l 1,22,23
 337 920 337 920 337 892 c 2,24,-1
 337 884 l 1,25,-1
 313 868 l 1,26,-1
 304 876 l 1,27,28
 304 843 304 843 288 843 c 2,29,-1
 271 843 l 2,30,31
 251 843 251 843 247 876 c 1,32,-1
 189 868 l 1,33,-1
 164 876 l 1,34,-1
 164 868 l 2,35,36
 164 611 164 611 222 91 c 1,37,-1
 247 91 l 1,38,-1
 271 107 l 1,39,40
 296 66 296 66 387 66 c 1,41,-1
 395 74 l 1,42,-1
 395 83 l 1,43,-1
 387 140 l 1,44,-1
 395 149 l 1,45,-1
 428 149 l 1,46,47
 453 140 453 140 453 99 c 0,48,49
 453 8 453 8 337 8 c 1,50,-1
 263 0 l 1,51,52
 108 0 108 0 90 41 c 1,53,-1
 90 58 l 1,54,55
 65 461 65 461 40 1512 c 1,56,-1
 40 1669 l 2,57,58
 40 1851 40 1851 81 1851 c 1,59,60
 128 1874 128 1874 271 1884 c 1,0,1
119 2133 m 1,61,-1
 162 2133 l 2,62,63
 183 2133 183 2133 205 2069 c 1,64,65
 191 1983 191 1983 119 1983 c 1,66,67
 66 2038 66 2038 66 2079 c 1,68,-1
 119 2133 l 1,61,-1
258 2133 m 2,69,-1
 301 2133 l 1,70,71
 323 2124 323 2124 366 1994 c 1,72,-1
 355 1983 l 1,73,-1
 344 1983 l 1,74,-1
 333 1994 l 1,75,-1
 333 2004 l 1,76,-1
 323 1994 l 1,77,-1
 258 1994 l 1,78,-1
 226 2026 l 1,79,-1
 226 2069 l 1,80,81
 233 2133 233 2133 258 2133 c 2,69,-1
EndSplineSet
EndChar

StartChar: Igrave
Encoding: 204 204 139
Width: 493
GlyphClass: 2
Flags: W
LayerCount: 2
Fore
SplineSet
271 1884 m 1,0,1
 395 1884 395 1884 395 1768 c 2,2,-1
 395 1744 l 1,3,-1
 371 1727 l 1,4,-1
 354 1727 l 2,5,6
 336 1727 336 1727 329 1810 c 1,7,-1
 247 1818 l 1,8,-1
 164 1818 l 1,9,-1
 139 1793 l 1,10,-1
 139 1496 l 2,11,12
 139 1215 139 1215 164 1215 c 1,13,-1
 156 1173 l 1,14,-1
 156 1116 l 1,15,-1
 172 1049 l 1,16,-1
 172 1025 l 1,17,18
 205 1025 205 1025 205 934 c 1,19,20
 245 934 245 934 263 983 c 1,21,-1
 271 983 l 1,22,23
 337 920 337 920 337 892 c 2,24,-1
 337 884 l 1,25,-1
 313 868 l 1,26,-1
 304 876 l 1,27,28
 304 843 304 843 288 843 c 2,29,-1
 271 843 l 2,30,31
 251 843 251 843 247 876 c 1,32,-1
 189 868 l 1,33,-1
 164 876 l 1,34,-1
 164 868 l 2,35,36
 164 611 164 611 222 91 c 1,37,-1
 247 91 l 1,38,-1
 271 107 l 1,39,40
 296 66 296 66 387 66 c 1,41,-1
 395 74 l 1,42,-1
 395 83 l 1,43,-1
 387 140 l 1,44,-1
 395 149 l 1,45,-1
 428 149 l 1,46,47
 453 140 453 140 453 99 c 0,48,49
 453 8 453 8 337 8 c 1,50,-1
 263 0 l 1,51,52
 108 0 108 0 90 41 c 1,53,-1
 90 58 l 1,54,55
 65 461 65 461 40 1512 c 1,56,-1
 40 1669 l 2,57,58
 40 1851 40 1851 81 1851 c 1,59,60
 128 1874 128 1874 271 1884 c 1,0,1
53 2062 m 1,61,-1
 101 2007 l 1,62,-1
 164 1960 l 1,63,-1
 233 1959 l 1,64,-1
 278 1960 l 1,65,-1
 336 2007 l 1,66,67
 386 2052 386 2052 376 2092 c 0,68,69
 367 2128 367 2128 335 2093 c 1,70,-1
 269 2046 l 1,71,72
 249 2044 249 2044 209 2040 c 1,73,-1
 134 2087 l 1,74,75
 111 2112 111 2112 55 2146 c 0,76,77
 7 2176 7 2176 53 2062 c 1,61,-1
EndSplineSet
EndChar

StartChar: Iacute
Encoding: 205 205 140
Width: 371
GlyphClass: 2
Flags: W
LayerCount: 2
Fore
SplineSet
331 2063 m 1,0,-1
 329 2057 l 1,1,2
 309 1991 309 1991 82 1951 c 1,3,-1
 52 1960 l 1,4,-1
 40 1983 l 1,5,6
 46 2002 46 2002 194 2105 c 1,7,8
 203 2133 203 2133 280 2131 c 1,9,10
 307 2123 307 2123 331 2063 c 1,0,-1
164 1865 m 1,11,12
 254 1859 254 1859 254 1840 c 2,13,-1
 254 1832 l 1,14,15
 237 1800 237 1800 213 1800 c 1,16,17
 236 1571 236 1571 246 90 c 0,18,19
 246 65 246 65 270 65 c 1,20,-1
 279 57 l 1,21,-1
 279 33 l 2,22,23
 279 13 279 13 131 0 c 1,24,-1
 115 82 l 1,25,-1
 123 90 l 1,26,-1
 131 90 l 1,27,-1
 140 65 l 1,28,-1
 148 65 l 1,29,-1
 148 82 l 2,30,31
 148 401 148 401 115 401 c 1,32,-1
 123 499 l 1,33,-1
 107 556 l 1,34,35
 131 602 131 602 131 663 c 1,36,-1
 90 1652 l 1,37,-1
 107 1775 l 1,38,-1
 82 1800 l 1,39,-1
 82 1832 l 2,40,41
 82 1857 82 1857 164 1865 c 1,11,12
EndSplineSet
EndChar

StartChar: Icircumflex
Encoding: 206 206 141
Width: 371
GlyphClass: 2
Flags: W
LayerCount: 2
Fore
SplineSet
39 2021 m 1,0,-1
 69 2050 l 1,1,-1
 115 2097 l 1,2,-1
 165 2155 l 1,3,-1
 218 2091 l 1,4,-1
 261 2046 l 1,5,6
 297 2016 297 2016 297 1994 c 1,7,8
 317 1984 317 1984 301 1961 c 1,9,10
 283 1949 283 1949 253 1970 c 1,11,-1
 211 2021 l 1,12,13
 179 2047 179 2047 163 2061 c 1,14,-1
 130 2030 l 1,15,16
 67 1957 67 1957 41 1959 c 1,17,18
 33 1952 33 1952 15 1978 c 1,19,20
 23 1985 23 1985 39 2021 c 1,0,-1
164 1865 m 1,21,22
 254 1859 254 1859 254 1840 c 2,23,-1
 254 1832 l 1,24,25
 237 1800 237 1800 213 1800 c 1,26,27
 236 1571 236 1571 246 90 c 0,28,29
 246 65 246 65 270 65 c 1,30,-1
 279 57 l 1,31,-1
 279 33 l 2,32,33
 279 13 279 13 131 0 c 1,34,-1
 115 82 l 1,35,-1
 123 90 l 1,36,-1
 131 90 l 1,37,-1
 140 65 l 1,38,-1
 148 65 l 1,39,-1
 148 82 l 2,40,41
 148 401 148 401 115 401 c 1,42,-1
 123 499 l 1,43,-1
 107 556 l 1,44,45
 131 602 131 602 131 663 c 1,46,-1
 90 1652 l 1,47,-1
 107 1775 l 1,48,-1
 82 1800 l 1,49,-1
 82 1832 l 2,50,51
 82 1857 82 1857 164 1865 c 1,21,22
EndSplineSet
EndChar

StartChar: Idieresis
Encoding: 207 207 142
Width: 704
GlyphClass: 2
Flags: W
LayerCount: 2
Fore
SplineSet
124 1873 m 1,0,-1
 175 1856 l 1,1,-1
 209 1865 l 1,2,3
 435 1764 435 1764 555 1544 c 1,4,5
 664 1264 664 1264 664 979 c 0,6,7
 664 446 664 446 496 169 c 1,8,9
 346 0 346 0 183 0 c 2,10,-1
 65 0 l 1,11,-1
 40 25 l 1,12,-1
 40 34 l 2,13,14
 40 61 40 61 99 67 c 1,15,-1
 99 93 l 1,16,17
 65 93 65 93 65 110 c 2,18,-1
 65 127 l 1,19,-1
 91 127 l 1,20,-1
 99 118 l 1,21,-1
 107 118 l 1,22,-1
 107 127 l 1,23,-1
 99 219 l 1,24,25
 116 499 116 499 124 1746 c 1,26,27
 91 1746 91 1746 91 1763 c 1,28,-1
 107 1780 l 1,29,-1
 116 1772 l 1,30,-1
 124 1772 l 1,31,-1
 124 1780 l 1,32,-1
 74 1814 l 1,33,-1
 74 1831 l 1,34,35
 90 1861 90 1861 124 1873 c 1,0,-1
259 1730 m 1,36,37
 226 1241 226 1241 226 346 c 2,38,-1
 226 169 l 1,39,-1
 217 135 l 1,40,-1
 226 84 l 1,41,42
 428 166 428 166 428 245 c 1,43,-1
 453 253 l 1,44,-1
 479 245 l 1,45,-1
 479 253 l 1,46,47
 605 487 605 487 605 987 c 0,48,49
 605 1255 605 1255 496 1519 c 1,50,-1
 487 1510 l 1,51,-1
 479 1510 l 1,52,-1
 462 1527 l 1,53,-1
 462 1536 l 1,54,-1
 479 1552 l 1,55,56
 479 1614 479 1614 259 1730 c 1,36,37
84 2067 m 1,57,-1
 132 2012 l 1,58,-1
 195 1965 l 1,59,-1
 264 1964 l 1,60,-1
 309 1965 l 1,61,-1
 367 2012 l 1,62,63
 417 2057 417 2057 407 2097 c 0,64,65
 398 2133 398 2133 366 2098 c 1,66,-1
 300 2051 l 1,67,68
 280 2049 280 2049 240 2045 c 1,69,-1
 165 2092 l 1,70,71
 142 2117 142 2117 86 2151 c 0,72,73
 38 2181 38 2181 84 2067 c 1,57,-1
EndSplineSet
EndChar

StartChar: Ntilde
Encoding: 209 209 144
Width: 766
GlyphClass: 2
Flags: W
LayerCount: 2
Fore
SplineSet
90 1891 m 1,0,-1
 132 1891 l 2,1,2
 243 1891 243 1891 266 1849 c 1,3,-1
 266 1841 l 1,4,5
 254 1807 254 1807 199 1807 c 1,6,7
 341 1472 341 1472 492 996 c 1,8,9
 509 996 509 996 509 946 c 1,10,-1
 534 962 l 1,11,-1
 542 962 l 1,12,-1
 559 946 l 1,13,-1
 559 937 l 2,14,15
 559 920 559 920 525 920 c 1,16,-1
 525 912 l 1,17,18
 553 854 553 854 576 853 c 1,19,-1
 576 1054 l 1,20,-1
 567 1088 l 1,21,-1
 576 1096 l 1,22,-1
 567 1180 l 1,23,-1
 567 1673 l 1,24,-1
 576 1765 l 1,25,26
 576 1818 576 1818 509 1824 c 1,27,-1
 500 1832 l 1,28,-1
 500 1849 l 2,29,30
 500 1876 500 1876 584 1883 c 1,31,32
 726 1883 726 1883 726 1858 c 2,33,-1
 726 1841 l 1,34,-1
 701 1816 l 1,35,-1
 701 1807 l 1,36,-1
 693 1807 l 1,37,-1
 684 1816 l 1,38,-1
 676 1816 l 1,39,-1
 651 1765 l 1,40,-1
 659 1682 l 1,41,-1
 668 1029 l 1,42,-1
 659 820 l 1,43,-1
 676 117 l 1,44,-1
 684 126 l 1,45,-1
 693 126 l 1,46,-1
 709 109 l 1,47,-1
 693 92 l 1,48,-1
 668 109 l 1,49,-1
 668 75 l 1,50,51
 726 67 726 67 726 50 c 2,52,-1
 726 42 l 2,53,54
 726 17 726 17 617 0 c 1,55,56
 517 21 517 21 517 42 c 1,57,58
 531 75 531 75 576 75 c 1,59,-1
 567 84 l 1,60,-1
 567 100 l 1,61,-1
 576 100 l 1,62,-1
 567 184 l 1,63,-1
 567 243 l 1,64,-1
 576 653 l 1,65,66
 492 793 492 793 308 1322 c 1,67,68
 291 1322 291 1322 283 1406 c 1,69,-1
 266 1422 l 1,70,-1
 274 1464 l 1,71,72
 254 1464 254 1464 224 1556 c 1,73,-1
 199 1556 l 1,74,75
 216 1125 216 1125 216 310 c 2,76,-1
 216 276 l 2,77,78
 216 84 216 84 274 84 c 1,79,-1
 283 75 l 1,80,-1
 283 67 l 2,81,82
 283 17 283 17 149 17 c 0,83,84
 48 17 48 17 48 75 c 1,85,-1
 99 100 l 1,86,-1
 90 142 l 1,87,-1
 90 594 l 1,88,-1
 65 619 l 1,89,90
 107 753 107 753 107 1222 c 1,91,-1
 73 1824 l 1,92,93
 40 1824 40 1824 40 1849 c 1,94,-1
 90 1891 l 1,0,-1
308 2153 m 1,95,-1
 494 2094 l 1,96,-1
 573 2123 l 1,97,-1
 583 2114 l 1,98,-1
 583 2094 l 1,99,100
 530 2015 530 2015 455 2015 c 1,101,-1
 258 2084 l 1,102,-1
 160 2084 l 1,103,-1
 160 2094 l 2,104,105
 160 2127 160 2127 308 2153 c 1,95,-1
EndSplineSet
EndChar

StartChar: Ograve
Encoding: 210 210 145
Width: 766
GlyphClass: 2
Flags: W
LayerCount: 2
Fore
SplineSet
90 1891 m 1,0,-1
 132 1891 l 2,1,2
 243 1891 243 1891 266 1849 c 1,3,-1
 266 1841 l 1,4,5
 254 1807 254 1807 199 1807 c 1,6,7
 341 1472 341 1472 492 996 c 1,8,9
 509 996 509 996 509 946 c 1,10,-1
 534 962 l 1,11,-1
 542 962 l 1,12,-1
 559 946 l 1,13,-1
 559 937 l 2,14,15
 559 920 559 920 525 920 c 1,16,-1
 525 912 l 1,17,18
 553 854 553 854 576 853 c 1,19,-1
 576 1054 l 1,20,-1
 567 1088 l 1,21,-1
 576 1096 l 1,22,-1
 567 1180 l 1,23,-1
 567 1673 l 1,24,-1
 576 1765 l 1,25,26
 576 1818 576 1818 509 1824 c 1,27,-1
 500 1832 l 1,28,-1
 500 1849 l 2,29,30
 500 1876 500 1876 584 1883 c 1,31,32
 726 1883 726 1883 726 1858 c 2,33,-1
 726 1841 l 1,34,-1
 701 1816 l 1,35,-1
 701 1807 l 1,36,-1
 693 1807 l 1,37,-1
 684 1816 l 1,38,-1
 676 1816 l 1,39,-1
 651 1765 l 1,40,-1
 659 1682 l 1,41,-1
 668 1029 l 1,42,-1
 659 820 l 1,43,-1
 676 117 l 1,44,-1
 684 126 l 1,45,-1
 693 126 l 1,46,-1
 709 109 l 1,47,-1
 693 92 l 1,48,-1
 668 109 l 1,49,-1
 668 75 l 1,50,51
 726 67 726 67 726 50 c 2,52,-1
 726 42 l 2,53,54
 726 17 726 17 617 0 c 1,55,56
 517 21 517 21 517 42 c 1,57,58
 531 75 531 75 576 75 c 1,59,-1
 567 84 l 1,60,-1
 567 100 l 1,61,-1
 576 100 l 1,62,-1
 567 184 l 1,63,-1
 567 243 l 1,64,-1
 576 653 l 1,65,66
 492 793 492 793 308 1322 c 1,67,68
 291 1322 291 1322 283 1406 c 1,69,-1
 266 1422 l 1,70,-1
 274 1464 l 1,71,72
 254 1464 254 1464 224 1556 c 1,73,-1
 199 1556 l 1,74,75
 216 1125 216 1125 216 310 c 2,76,-1
 216 276 l 2,77,78
 216 84 216 84 274 84 c 1,79,-1
 283 75 l 1,80,-1
 283 67 l 2,81,82
 283 17 283 17 149 17 c 0,83,84
 48 17 48 17 48 75 c 1,85,-1
 99 100 l 1,86,-1
 90 142 l 1,87,-1
 90 594 l 1,88,-1
 65 619 l 1,89,90
 107 753 107 753 107 1222 c 1,91,-1
 73 1824 l 1,92,93
 40 1824 40 1824 40 1849 c 1,94,-1
 90 1891 l 1,0,-1
209 2069 m 1,95,-1
 257 2014 l 1,96,-1
 320 1967 l 1,97,-1
 389 1966 l 1,98,-1
 434 1967 l 1,99,-1
 492 2014 l 1,100,101
 542 2059 542 2059 532 2099 c 0,102,103
 523 2135 523 2135 491 2100 c 1,104,-1
 425 2053 l 1,105,106
 405 2051 405 2051 365 2047 c 1,107,-1
 290 2094 l 1,108,109
 267 2119 267 2119 211 2153 c 0,110,111
 163 2183 163 2183 209 2069 c 1,95,-1
EndSplineSet
EndChar

StartChar: Oacute
Encoding: 211 211 146
Width: 548
GlyphClass: 2
Flags: W
LayerCount: 2
Fore
SplineSet
393 2063 m 1,0,-1
 391 2057 l 1,1,2
 371 1991 371 1991 144 1951 c 1,3,-1
 114 1960 l 1,4,-1
 102 1983 l 1,5,6
 108 2002 108 2002 256 2105 c 1,7,8
 264 2133 264 2133 342 2131 c 1,9,10
 369 2123 369 2123 393 2063 c 1,0,-1
244 1873 m 0,11,12
 348 1873 348 1873 440 1601 c 1,13,-1
 432 1592 l 1,14,15
 508 1338 508 1338 508 902 c 2,16,-1
 508 741 l 1,17,18
 483 127 483 127 398 43 c 1,19,20
 398 20 398 20 355 0 c 1,21,-1
 304 0 l 1,22,23
 103 31 103 31 49 639 c 1,24,-1
 40 962 l 1,25,-1
 40 1013 l 2,26,27
 40 1426 40 1426 142 1813 c 1,28,29
 179 1873 179 1873 244 1873 c 0,11,12
244 1788 m 1,30,31
 134 1473 134 1473 134 1175 c 1,32,-1
 108 919 l 1,33,34
 129 601 129 601 151 536 c 1,35,-1
 142 511 l 1,36,-1
 151 511 l 2,37,38
 185 511 185 511 185 417 c 1,39,-1
 176 417 l 1,40,-1
 185 409 l 1,41,-1
 185 383 l 1,42,-1
 168 383 l 1,43,44
 273 111 273 111 295 111 c 1,45,-1
 304 119 l 1,46,-1
 321 119 l 1,47,48
 327 68 327 68 364 68 c 1,49,-1
 364 77 l 1,50,-1
 346 102 l 1,51,-1
 346 111 l 1,52,53
 398 180 398 180 398 221 c 1,54,-1
 389 247 l 1,55,56
 429 264 429 264 457 860 c 1,57,58
 457 1314 457 1314 355 1635 c 1,59,-1
 312 1754 l 1,60,-1
 287 1737 l 1,61,-1
 270 1788 l 1,62,-1
 244 1788 l 1,30,31
EndSplineSet
EndChar

StartChar: Ocircumflex
Encoding: 212 212 147
Width: 548
GlyphClass: 2
Flags: W
LayerCount: 2
Fore
SplineSet
244 1873 m 0,0,1
 348 1873 348 1873 440 1601 c 1,2,-1
 432 1592 l 1,3,4
 508 1338 508 1338 508 902 c 2,5,-1
 508 741 l 1,6,7
 483 127 483 127 398 43 c 1,8,9
 398 20 398 20 355 0 c 1,10,-1
 304 0 l 1,11,12
 103 31 103 31 49 639 c 1,13,-1
 40 962 l 1,14,-1
 40 1013 l 2,15,16
 40 1426 40 1426 142 1813 c 1,17,18
 179 1873 179 1873 244 1873 c 0,0,1
244 1788 m 1,19,20
 134 1473 134 1473 134 1175 c 1,21,-1
 108 919 l 1,22,23
 129 601 129 601 151 536 c 1,24,-1
 142 511 l 1,25,-1
 151 511 l 2,26,27
 185 511 185 511 185 417 c 1,28,-1
 176 417 l 1,29,-1
 185 409 l 1,30,-1
 185 383 l 1,31,-1
 168 383 l 1,32,33
 273 111 273 111 295 111 c 1,34,-1
 304 119 l 1,35,-1
 321 119 l 1,36,37
 327 68 327 68 364 68 c 1,38,-1
 364 77 l 1,39,-1
 346 102 l 1,40,-1
 346 111 l 1,41,42
 398 180 398 180 398 221 c 1,43,-1
 389 247 l 1,44,45
 429 264 429 264 457 860 c 1,46,47
 457 1314 457 1314 355 1635 c 1,48,-1
 312 1754 l 1,49,-1
 287 1737 l 1,50,-1
 270 1788 l 1,51,-1
 244 1788 l 1,19,20
122 2014 m 1,52,-1
 152 2043 l 1,53,-1
 198 2090 l 1,54,-1
 248 2148 l 1,55,-1
 301 2084 l 1,56,-1
 344 2039 l 1,57,58
 380 2009 380 2009 380 1987 c 1,59,60
 400 1977 400 1977 384 1954 c 1,61,62
 366 1942 366 1942 336 1963 c 1,63,-1
 294 2014 l 1,64,65
 262 2040 262 2040 246 2054 c 1,66,-1
 213 2023 l 1,67,68
 150 1950 150 1950 124 1952 c 1,69,70
 116 1945 116 1945 98 1971 c 1,71,72
 106 1978 106 1978 122 2014 c 1,52,-1
EndSplineSet
EndChar

StartChar: Odieresis
Encoding: 214 214 149
Width: 548
GlyphClass: 2
Flags: W
LayerCount: 2
Fore
SplineSet
244 1873 m 0,0,1
 348 1873 348 1873 440 1601 c 1,2,-1
 432 1592 l 1,3,4
 508 1338 508 1338 508 902 c 2,5,-1
 508 741 l 1,6,7
 483 127 483 127 398 43 c 1,8,9
 398 20 398 20 355 0 c 1,10,-1
 304 0 l 1,11,12
 103 31 103 31 49 639 c 1,13,-1
 40 962 l 1,14,-1
 40 1013 l 2,15,16
 40 1426 40 1426 142 1813 c 1,17,18
 179 1873 179 1873 244 1873 c 0,0,1
244 1788 m 1,19,20
 134 1473 134 1473 134 1175 c 1,21,-1
 108 919 l 1,22,23
 129 601 129 601 151 536 c 1,24,-1
 142 511 l 1,25,-1
 151 511 l 2,26,27
 185 511 185 511 185 417 c 1,28,-1
 176 417 l 1,29,-1
 185 409 l 1,30,-1
 185 383 l 1,31,-1
 168 383 l 1,32,33
 273 111 273 111 295 111 c 1,34,-1
 304 119 l 1,35,-1
 321 119 l 1,36,37
 327 68 327 68 364 68 c 1,38,-1
 364 77 l 1,39,-1
 346 102 l 1,40,-1
 346 111 l 1,41,42
 398 180 398 180 398 221 c 1,43,-1
 389 247 l 1,44,45
 429 264 429 264 457 860 c 1,46,47
 457 1314 457 1314 355 1635 c 1,48,-1
 312 1754 l 1,49,-1
 287 1737 l 1,50,-1
 270 1788 l 1,51,-1
 244 1788 l 1,19,20
159 2124 m 1,52,-1
 202 2124 l 2,53,54
 223 2124 223 2124 245 2060 c 1,55,56
 231 1974 231 1974 159 1974 c 1,57,58
 106 2029 106 2029 106 2070 c 1,59,-1
 159 2124 l 1,52,-1
298 2124 m 2,60,-1
 341 2124 l 1,61,62
 363 2115 363 2115 406 1985 c 1,63,-1
 395 1974 l 1,64,-1
 384 1974 l 1,65,-1
 373 1985 l 1,66,-1
 373 1995 l 1,67,-1
 363 1985 l 1,68,-1
 298 1985 l 1,69,-1
 266 2017 l 1,70,-1
 266 2060 l 1,71,72
 273 2124 273 2124 298 2124 c 2,60,-1
EndSplineSet
EndChar

StartChar: Oslash
Encoding: 216 216 151
Width: 769
GlyphClass: 2
Flags: W
LayerCount: 2
Fore
SplineSet
149 1865 m 1,0,-1
 200 1857 l 1,1,-1
 242 1865 l 1,2,3
 503 1865 503 1865 586 1663 c 1,4,5
 620 1557 620 1557 620 1504 c 2,6,-1
 620 1403 l 2,7,8
 620 1172 620 1172 384 815 c 1,9,-1
 611 76 l 1,10,-1
 611 67 l 1,11,-1
 636 67 l 2,12,13
 729 67 729 67 729 42 c 1,14,15
 707 0 707 0 603 0 c 1,16,17
 494 11 494 11 494 34 c 0,18,19
 494 46 494 46 527 59 c 1,20,21
 393 413 393 413 334 756 c 1,22,23
 311 756 311 756 208 622 c 1,24,-1
 225 277 l 1,25,-1
 216 185 l 1,26,-1
 225 101 l 1,27,-1
 216 59 l 1,28,-1
 300 67 l 1,29,-1
 326 42 l 1,30,-1
 326 34 l 2,31,32
 326 6 326 6 191 0 c 1,33,-1
 166 0 l 2,34,35
 102 0 102 0 90 34 c 1,36,-1
 90 50 l 1,37,-1
 124 50 l 1,38,-1
 116 59 l 1,39,-1
 116 126 l 1,40,-1
 107 193 l 1,41,-1
 116 235 l 1,42,-1
 107 319 l 1,43,-1
 116 571 l 1,44,-1
 116 655 l 2,45,46
 116 1049 116 1049 65 1428 c 1,47,-1
 74 1462 l 1,48,-1
 65 1638 l 1,49,-1
 65 1773 l 1,50,-1
 40 1806 l 1,51,-1
 40 1823 l 2,52,53
 40 1857 40 1857 149 1865 c 1,0,-1
233 1781 m 1,54,-1
 216 1781 l 2,55,56
 198 1781 198 1781 191 1689 c 1,57,-1
 208 1378 l 1,58,-1
 200 1327 l 1,59,-1
 208 1235 l 1,60,-1
 191 756 l 1,61,62
 258 756 258 756 300 874 c 1,63,-1
 443 1117 l 1,64,65
 536 1191 536 1191 536 1311 c 1,66,-1
 561 1336 l 1,67,-1
 561 1420 l 2,68,69
 561 1688 561 1688 443 1756 c 1,70,-1
 351 1789 l 1,71,-1
 233 1781 l 1,54,-1
611 1193 m 1,72,-1
 620 1193 l 1,73,-1
 620 1176 l 1,74,-1
 611 1176 l 1,75,-1
 611 1193 l 1,72,-1
134 2062 m 1,76,-1
 182 2007 l 1,77,-1
 245 1960 l 1,78,-1
 314 1959 l 1,79,-1
 359 1960 l 1,80,-1
 417 2007 l 1,81,82
 467 2052 467 2052 457 2092 c 0,83,84
 448 2128 448 2128 416 2093 c 1,85,-1
 350 2046 l 1,86,87
 330 2044 330 2044 290 2040 c 1,88,-1
 215 2087 l 1,89,90
 192 2112 192 2112 136 2146 c 0,91,92
 88 2176 88 2176 134 2062 c 1,76,-1
EndSplineSet
EndChar

StartChar: Ugrave
Encoding: 217 217 152
Width: 769
GlyphClass: 2
Flags: W
LayerCount: 2
Fore
SplineSet
90 1876 m 1,0,1
 256 1861 256 1861 256 1818 c 0,2,3
 256 1801 256 1801 231 1801 c 1,4,-1
 231 1793 l 1,5,6
 256 1793 256 1793 256 1776 c 1,7,-1
 239 1760 l 1,8,-1
 231 1760 l 1,9,-1
 223 1768 l 1,10,-1
 214 1768 l 1,11,-1
 223 1776 l 1,12,-1
 223 1793 l 1,13,-1
 198 1793 l 1,14,-1
 206 1751 l 1,15,-1
 198 1453 l 1,16,17
 198 457 198 457 355 208 c 1,18,-1
 414 141 l 1,19,-1
 414 149 l 1,20,-1
 397 174 l 1,21,-1
 414 191 l 1,22,-1
 455 141 l 1,23,-1
 430 133 l 1,24,25
 430 110 430 110 513 100 c 1,26,27
 513 131 513 131 580 133 c 1,28,-1
 580 174 l 1,29,-1
 596 191 l 1,30,-1
 604 191 l 1,31,-1
 613 183 l 1,32,-1
 621 183 l 1,33,-1
 621 191 l 1,34,-1
 613 266 l 1,35,-1
 621 274 l 1,36,-1
 629 274 l 1,37,-1
 638 266 l 1,38,-1
 663 548 l 1,39,40
 663 1261 663 1261 613 1635 c 1,41,-1
 621 1660 l 1,42,-1
 613 1710 l 1,43,-1
 613 1801 l 1,44,45
 576 1801 576 1801 563 1834 c 1,46,-1
 563 1859 l 1,47,-1
 571 1868 l 1,48,-1
 571 1876 l 1,49,-1
 654 1868 l 1,50,-1
 729 1868 l 1,51,-1
 729 1843 l 1,52,-1
 687 1785 l 1,53,-1
 671 1801 l 1,54,55
 671 1628 671 1628 712 1096 c 1,56,-1
 712 664 l 1,57,-1
 721 415 l 1,58,59
 706 415 706 415 679 216 c 1,60,61
 626 0 626 0 521 0 c 0,62,63
 290 0 290 0 189 324 c 1,64,-1
 156 623 l 1,65,-1
 165 656 l 1,66,67
 98 1577 98 1577 98 1776 c 1,68,-1
 40 1834 l 1,69,-1
 90 1876 l 1,0,1
328 2122 m 1,70,71
 302 2089 302 2089 291 2036 c 1,72,73
 289 2018 289 2018 305 1991 c 1,74,75
 322 1978 322 1978 354 1970 c 1,76,77
 388 1966 388 1966 399 1968 c 0,78,79
 420 1970 420 1970 442 1984 c 128,-1,80
 464 1998 464 1998 464 2001 c 0,81,82
 466 2011 466 2011 465 2026.5 c 128,-1,83
 464 2042 464 2042 461 2051 c 1,84,85
 461 2060 461 2060 460.5 2076.5 c 128,-1,86
 460 2093 460 2093 451 2096 c 1,87,88
 427 2118 427 2118 397 2124 c 1,89,-1
 354 2127 l 1,90,-1
 359 2103 l 1,91,-1
 402 2098 l 1,92,93
 427 2091 427 2091 429 2084 c 1,94,95
 433 2081 433 2081 436 2042 c 1,96,97
 439 2023 439 2023 423 2002 c 1,98,-1
 384 1991 l 1,99,100
 353 1991 353 1991 337 2006 c 128,-1,101
 321 2021 321 2021 322 2034 c 1,102,-1
 330 2072 l 1,103,-1
 343 2096 l 1,104,-1
 359 2103 l 1,105,-1
 356 2118 l 1,106,-1
 354 2127 l 1,107,-1
 328 2122 l 1,70,71
EndSplineSet
EndChar

StartChar: Uacute
Encoding: 218 218 153
Width: 769
GlyphClass: 2
Flags: W
LayerCount: 2
Fore
SplineSet
90 1876 m 1,0,1
 256 1861 256 1861 256 1818 c 0,2,3
 256 1801 256 1801 231 1801 c 1,4,-1
 231 1793 l 1,5,6
 256 1793 256 1793 256 1776 c 1,7,-1
 239 1760 l 1,8,-1
 231 1760 l 1,9,-1
 223 1768 l 1,10,-1
 214 1768 l 1,11,-1
 223 1776 l 1,12,-1
 223 1793 l 1,13,-1
 198 1793 l 1,14,-1
 206 1751 l 1,15,-1
 198 1453 l 1,16,17
 198 457 198 457 355 208 c 1,18,-1
 414 141 l 1,19,-1
 414 149 l 1,20,-1
 397 174 l 1,21,-1
 414 191 l 1,22,-1
 455 141 l 1,23,-1
 430 133 l 1,24,25
 430 110 430 110 513 100 c 1,26,27
 513 131 513 131 580 133 c 1,28,-1
 580 174 l 1,29,-1
 596 191 l 1,30,-1
 604 191 l 1,31,-1
 613 183 l 1,32,-1
 621 183 l 1,33,-1
 621 191 l 1,34,-1
 613 266 l 1,35,-1
 621 274 l 1,36,-1
 629 274 l 1,37,-1
 638 266 l 1,38,-1
 663 548 l 1,39,40
 663 1261 663 1261 613 1635 c 1,41,-1
 621 1660 l 1,42,-1
 613 1710 l 1,43,-1
 613 1801 l 1,44,45
 576 1801 576 1801 563 1834 c 1,46,-1
 563 1859 l 1,47,-1
 571 1868 l 1,48,-1
 571 1876 l 1,49,-1
 654 1868 l 1,50,-1
 729 1868 l 1,51,-1
 729 1843 l 1,52,-1
 687 1785 l 1,53,-1
 671 1801 l 1,54,55
 671 1628 671 1628 712 1096 c 1,56,-1
 712 664 l 1,57,-1
 721 415 l 1,58,59
 706 415 706 415 679 216 c 1,60,61
 626 0 626 0 521 0 c 0,62,63
 290 0 290 0 189 324 c 1,64,-1
 156 623 l 1,65,-1
 165 656 l 1,66,67
 98 1577 98 1577 98 1776 c 1,68,-1
 40 1834 l 1,69,-1
 90 1876 l 1,0,1
558 2063 m 1,70,-1
 556 2057 l 1,71,72
 536 1991 536 1991 309 1951 c 1,73,-1
 279 1960 l 1,74,-1
 267 1983 l 1,75,76
 273 2002 273 2002 421 2105 c 1,77,78
 429 2133 429 2133 507 2131 c 1,79,80
 534 2123 534 2123 558 2063 c 1,70,-1
EndSplineSet
EndChar

StartChar: Udieresis
Encoding: 220 220 155
Width: 769
GlyphClass: 2
Flags: W
LayerCount: 2
Fore
SplineSet
90 1876 m 1,0,1
 256 1861 256 1861 256 1818 c 0,2,3
 256 1801 256 1801 231 1801 c 1,4,-1
 231 1793 l 1,5,6
 256 1793 256 1793 256 1776 c 1,7,-1
 239 1760 l 1,8,-1
 231 1760 l 1,9,-1
 223 1768 l 1,10,-1
 214 1768 l 1,11,-1
 223 1776 l 1,12,-1
 223 1793 l 1,13,-1
 198 1793 l 1,14,-1
 206 1751 l 1,15,-1
 198 1453 l 1,16,17
 198 457 198 457 355 208 c 1,18,-1
 414 141 l 1,19,-1
 414 149 l 1,20,-1
 397 174 l 1,21,-1
 414 191 l 1,22,-1
 455 141 l 1,23,-1
 430 133 l 1,24,25
 430 110 430 110 513 100 c 1,26,27
 513 131 513 131 580 133 c 1,28,-1
 580 174 l 1,29,-1
 596 191 l 1,30,-1
 604 191 l 1,31,-1
 613 183 l 1,32,-1
 621 183 l 1,33,-1
 621 191 l 1,34,-1
 613 266 l 1,35,-1
 621 274 l 1,36,-1
 629 274 l 1,37,-1
 638 266 l 1,38,-1
 663 548 l 1,39,40
 663 1261 663 1261 613 1635 c 1,41,-1
 621 1660 l 1,42,-1
 613 1710 l 1,43,-1
 613 1801 l 1,44,45
 576 1801 576 1801 563 1834 c 1,46,-1
 563 1859 l 1,47,-1
 571 1868 l 1,48,-1
 571 1876 l 1,49,-1
 654 1868 l 1,50,-1
 729 1868 l 1,51,-1
 729 1843 l 1,52,-1
 687 1785 l 1,53,-1
 671 1801 l 1,54,55
 671 1628 671 1628 712 1096 c 1,56,-1
 712 664 l 1,57,-1
 721 415 l 1,58,59
 706 415 706 415 679 216 c 1,60,61
 626 0 626 0 521 0 c 0,62,63
 290 0 290 0 189 324 c 1,64,-1
 156 623 l 1,65,-1
 165 656 l 1,66,67
 98 1577 98 1577 98 1776 c 1,68,-1
 40 1834 l 1,69,-1
 90 1876 l 1,0,1
278 2124 m 1,70,-1
 321 2124 l 2,71,72
 342 2124 342 2124 364 2060 c 1,73,74
 350 1974 350 1974 278 1974 c 1,75,76
 225 2029 225 2029 225 2070 c 1,77,-1
 278 2124 l 1,70,-1
417 2124 m 2,78,-1
 460 2124 l 1,79,80
 482 2115 482 2115 525 1985 c 1,81,-1
 514 1974 l 1,82,-1
 503 1974 l 1,83,-1
 492 1985 l 1,84,-1
 492 1995 l 1,85,-1
 482 1985 l 1,86,-1
 417 1985 l 1,87,-1
 385 2017 l 1,88,-1
 385 2060 l 1,89,90
 392 2124 392 2124 417 2124 c 2,78,-1
EndSplineSet
EndChar

StartChar: Yacute
Encoding: 221 221 156
Width: 777
GlyphClass: 2
Flags: W
LayerCount: 2
Fore
SplineSet
149 1880 m 1,0,-1
 158 1880 l 2,1,2
 222 1880 222 1880 233 1846 c 1,3,-1
 233 1830 l 2,4,5
 233 1804 233 1804 183 1804 c 1,6,7
 347 1343 347 1343 393 1343 c 1,8,-1
 426 1267 l 1,9,-1
 409 1251 l 1,10,-1
 443 1158 l 1,11,12
 463 1158 463 1158 476 1318 c 1,13,14
 538 1606 538 1606 602 1821 c 1,15,-1
 594 1821 l 1,16,-1
 544 1813 l 1,17,-1
 527 1830 l 1,18,-1
 527 1846 l 1,19,-1
 552 1872 l 1,20,-1
 711 1872 l 1,21,-1
 737 1846 l 1,22,23
 737 1788 737 1788 678 1788 c 1,24,-1
 518 1032 l 1,25,-1
 518 663 l 2,26,27
 518 260 518 260 552 260 c 1,28,-1
 569 243 l 1,29,30
 569 205 569 205 544 168 c 1,31,-1
 544 76 l 1,32,-1
 552 84 l 1,33,-1
 560 84 l 1,34,-1
 594 50 l 1,35,-1
 594 34 l 2,36,37
 594 17 594 17 418 0 c 1,38,-1
 409 8 l 1,39,-1
 409 42 l 1,40,41
 443 71 443 71 443 101 c 2,42,-1
 443 806 l 2,43,44
 443 902 443 902 418 965 c 1,45,46
 418 1024 418 1024 434 1024 c 1,47,48
 384 1121 384 1121 384 1158 c 1,49,-1
 393 1158 l 1,50,51
 141 1741 141 1741 141 1813 c 2,52,-1
 141 1821 l 1,53,-1
 107 1813 l 1,54,55
 40 1823 40 1823 40 1846 c 0,56,57
 40 1874 40 1874 149 1880 c 1,0,-1
208 1788 m 1,58,-1
 225 1788 l 1,59,-1
 225 1771 l 1,60,-1
 208 1788 l 1,58,-1
558 2063 m 1,61,-1
 556 2057 l 1,62,63
 536 1991 536 1991 309 1951 c 1,64,-1
 279 1960 l 1,65,-1
 267 1983 l 1,66,67
 273 2002 273 2002 421 2105 c 1,68,69
 429 2133 429 2133 507 2131 c 1,70,71
 534 2123 534 2123 558 2063 c 1,61,-1
EndSplineSet
EndChar

StartChar: agrave
Encoding: 224 224 159
Width: 644
GlyphClass: 2
Flags: W
LayerCount: 2
Fore
SplineSet
195 1833 m 1,0,-1
 200 1835 l 1,1,2
 266 1857 266 1857 431 1696 c 1,3,-1
 441 1667 l 1,4,-1
 430 1643 l 1,5,6
 410 1637 410 1637 240 1697 c 1,7,8
 213 1688 213 1688 169 1752 c 1,9,10
 160 1779 160 1779 195 1833 c 1,0,-1
327 1416 m 1,11,12
 434 1416 434 1416 495 1297 c 1,13,-1
 525 1297 l 1,14,-1
 525 1277 l 1,15,-1
 495 1277 l 1,16,17
 515 1239 515 1239 515 1168 c 1,18,-1
 476 386 l 1,19,-1
 476 228 l 1,20,-1
 486 228 l 1,21,-1
 495 238 l 1,22,-1
 505 238 l 1,23,-1
 515 228 l 1,24,-1
 515 218 l 1,25,-1
 486 208 l 1,26,-1
 486 198 l 2,27,28
 486 144 486 144 535 119 c 1,29,30
 535 158 535 158 555 158 c 256,31,32
 575 158 575 158 575 109 c 1,33,-1
 604 79 l 1,34,-1
 604 40 l 1,35,36
 588 0 588 0 535 0 c 2,37,-1
 505 0 l 1,38,39
 406 53 406 53 406 109 c 1,40,41
 301 20 301 20 248 20 c 2,42,-1
 238 20 l 2,43,44
 154 20 154 20 109 208 c 1,45,46
 60 208 60 208 60 228 c 2,47,-1
 60 238 l 2,48,49
 60 262 60 262 99 267 c 1,50,-1
 99 277 l 2,51,52
 99 548 99 548 228 683 c 1,53,54
 277 799 277 799 446 990 c 1,55,-1
 446 1129 l 1,56,57
 387 1347 387 1347 297 1347 c 2,58,-1
 179 1347 l 2,59,60
 153 1347 153 1347 139 1267 c 1,61,-1
 139 1258 l 1,62,-1
 149 1267 l 1,63,-1
 159 1267 l 1,64,-1
 179 1248 l 1,65,-1
 169 1238 l 1,66,-1
 189 1178 l 1,67,68
 189 1115 189 1115 99 1099 c 1,69,-1
 50 1168 l 1,70,71
 50 1406 50 1406 218 1406 c 1,72,-1
 327 1416 l 1,11,12
60 1109 m 1,73,-1
 80 1089 l 1,74,-1
 60 1069 l 1,75,-1
 40 1069 l 1,76,-1
 40 1089 l 1,77,-1
 60 1109 l 1,73,-1
387 792 m 1,78,-1
 307 614 l 1,79,80
 307 584 307 584 288 584 c 1,81,-1
 297 535 l 1,82,83
 274 465 274 465 248 465 c 1,84,-1
 248 446 l 1,85,86
 218 313 218 313 218 149 c 1,87,88
 248 149 248 149 248 99 c 1,89,-1
 268 99 l 1,90,-1
 307 158 l 1,91,-1
 317 158 l 1,92,-1
 337 139 l 1,93,94
 337 178 337 178 377 178 c 1,95,-1
 377 188 l 1,96,97
 347 188 347 188 347 208 c 1,98,-1
 367 228 l 1,99,-1
 387 228 l 1,100,-1
 387 198 l 1,101,-1
 396 198 l 1,102,-1
 396 792 l 1,103,-1
 387 792 l 1,78,-1
EndSplineSet
EndChar

StartChar: aacute
Encoding: 225 225 160
Width: 644
GlyphClass: 2
Flags: W
LayerCount: 2
Fore
SplineSet
421 1728 m 1,0,-1
 421 1722 l 1,1,2
 417 1653 417 1653 206 1560 c 1,3,-1
 175 1562 l 1,4,-1
 157 1582 l 1,5,6
 158 1602 158 1602 278 1737 c 1,7,8
 280 1766 280 1766 356 1782 c 1,9,10
 384 1780 384 1780 421 1728 c 1,0,-1
327 1416 m 1,11,12
 434 1416 434 1416 495 1297 c 1,13,-1
 525 1297 l 1,14,-1
 525 1277 l 1,15,-1
 495 1277 l 1,16,17
 515 1239 515 1239 515 1168 c 1,18,-1
 476 386 l 1,19,-1
 476 228 l 1,20,-1
 486 228 l 1,21,-1
 495 238 l 1,22,-1
 505 238 l 1,23,-1
 515 228 l 1,24,-1
 515 218 l 1,25,-1
 486 208 l 1,26,-1
 486 198 l 2,27,28
 486 144 486 144 535 119 c 1,29,30
 535 158 535 158 555 158 c 256,31,32
 575 158 575 158 575 109 c 1,33,-1
 604 79 l 1,34,-1
 604 40 l 1,35,36
 588 0 588 0 535 0 c 2,37,-1
 505 0 l 1,38,39
 406 53 406 53 406 109 c 1,40,41
 301 20 301 20 248 20 c 2,42,-1
 238 20 l 2,43,44
 154 20 154 20 109 208 c 1,45,46
 60 208 60 208 60 228 c 2,47,-1
 60 238 l 2,48,49
 60 262 60 262 99 267 c 1,50,-1
 99 277 l 2,51,52
 99 548 99 548 228 683 c 1,53,54
 277 799 277 799 446 990 c 1,55,-1
 446 1129 l 1,56,57
 387 1347 387 1347 297 1347 c 2,58,-1
 179 1347 l 2,59,60
 153 1347 153 1347 139 1267 c 1,61,-1
 139 1258 l 1,62,-1
 149 1267 l 1,63,-1
 159 1267 l 1,64,-1
 179 1248 l 1,65,-1
 169 1238 l 1,66,-1
 189 1178 l 1,67,68
 189 1115 189 1115 99 1099 c 1,69,-1
 50 1168 l 1,70,71
 50 1406 50 1406 218 1406 c 1,72,-1
 327 1416 l 1,11,12
60 1109 m 1,73,-1
 80 1089 l 1,74,-1
 60 1069 l 1,75,-1
 40 1069 l 1,76,-1
 40 1089 l 1,77,-1
 60 1109 l 1,73,-1
387 792 m 1,78,-1
 307 614 l 1,79,80
 307 584 307 584 288 584 c 1,81,-1
 297 535 l 1,82,83
 274 465 274 465 248 465 c 1,84,-1
 248 446 l 1,85,86
 218 313 218 313 218 149 c 1,87,88
 248 149 248 149 248 99 c 1,89,-1
 268 99 l 1,90,-1
 307 158 l 1,91,-1
 317 158 l 1,92,-1
 337 139 l 1,93,94
 337 178 337 178 377 178 c 1,95,-1
 377 188 l 1,96,97
 347 188 347 188 347 208 c 1,98,-1
 367 228 l 1,99,-1
 387 228 l 1,100,-1
 387 198 l 1,101,-1
 396 198 l 1,102,-1
 396 792 l 1,103,-1
 387 792 l 1,78,-1
EndSplineSet
EndChar

StartChar: acircumflex
Encoding: 226 226 161
Width: 644
GlyphClass: 2
Flags: W
LayerCount: 2
Fore
SplineSet
164 1641 m 1,0,-1
 194 1670 l 1,1,-1
 240 1717 l 1,2,-1
 290 1775 l 1,3,-1
 343 1711 l 1,4,-1
 386 1666 l 1,5,6
 422 1636 422 1636 422 1614 c 1,7,8
 442 1604 442 1604 426 1581 c 1,9,10
 408 1569 408 1569 378 1590 c 1,11,-1
 336 1641 l 1,12,13
 304 1667 304 1667 288 1681 c 1,14,-1
 255 1650 l 1,15,16
 192 1577 192 1577 166 1579 c 1,17,18
 158 1572 158 1572 140 1598 c 1,19,20
 148 1605 148 1605 164 1641 c 1,0,-1
327 1416 m 1,21,22
 434 1416 434 1416 495 1297 c 1,23,-1
 525 1297 l 1,24,-1
 525 1277 l 1,25,-1
 495 1277 l 1,26,27
 515 1239 515 1239 515 1168 c 1,28,-1
 476 386 l 1,29,-1
 476 228 l 1,30,-1
 486 228 l 1,31,-1
 495 238 l 1,32,-1
 505 238 l 1,33,-1
 515 228 l 1,34,-1
 515 218 l 1,35,-1
 486 208 l 1,36,-1
 486 198 l 2,37,38
 486 144 486 144 535 119 c 1,39,40
 535 158 535 158 555 158 c 256,41,42
 575 158 575 158 575 109 c 1,43,-1
 604 79 l 1,44,-1
 604 40 l 1,45,46
 588 0 588 0 535 0 c 2,47,-1
 505 0 l 1,48,49
 406 53 406 53 406 109 c 1,50,51
 301 20 301 20 248 20 c 2,52,-1
 238 20 l 2,53,54
 154 20 154 20 109 208 c 1,55,56
 60 208 60 208 60 228 c 2,57,-1
 60 238 l 2,58,59
 60 262 60 262 99 267 c 1,60,-1
 99 277 l 2,61,62
 99 548 99 548 228 683 c 1,63,64
 277 799 277 799 446 990 c 1,65,-1
 446 1129 l 1,66,67
 387 1347 387 1347 297 1347 c 2,68,-1
 179 1347 l 2,69,70
 153 1347 153 1347 139 1267 c 1,71,-1
 139 1258 l 1,72,-1
 149 1267 l 1,73,-1
 159 1267 l 1,74,-1
 179 1248 l 1,75,-1
 169 1238 l 1,76,-1
 189 1178 l 1,77,78
 189 1115 189 1115 99 1099 c 1,79,-1
 50 1168 l 1,80,81
 50 1406 50 1406 218 1406 c 1,82,-1
 327 1416 l 1,21,22
60 1109 m 1,83,-1
 80 1089 l 1,84,-1
 60 1069 l 1,85,-1
 40 1069 l 1,86,-1
 40 1089 l 1,87,-1
 60 1109 l 1,83,-1
387 792 m 1,88,-1
 307 614 l 1,89,90
 307 584 307 584 288 584 c 1,91,-1
 297 535 l 1,92,93
 274 465 274 465 248 465 c 1,94,-1
 248 446 l 1,95,96
 218 313 218 313 218 149 c 1,97,98
 248 149 248 149 248 99 c 1,99,-1
 268 99 l 1,100,-1
 307 158 l 1,101,-1
 317 158 l 1,102,-1
 337 139 l 1,103,104
 337 178 337 178 377 178 c 1,105,-1
 377 188 l 1,106,107
 347 188 347 188 347 208 c 1,108,-1
 367 228 l 1,109,-1
 387 228 l 1,110,-1
 387 198 l 1,111,-1
 396 198 l 1,112,-1
 396 792 l 1,113,-1
 387 792 l 1,88,-1
EndSplineSet
EndChar

StartChar: adieresis
Encoding: 228 228 163
Width: 644
GlyphClass: 2
Flags: W
LayerCount: 2
Fore
SplineSet
221 1772 m 1,0,-1
 264 1772 l 2,1,2
 285 1772 285 1772 307 1708 c 1,3,4
 293 1622 293 1622 221 1622 c 1,5,6
 168 1677 168 1677 168 1718 c 1,7,-1
 221 1772 l 1,0,-1
360 1772 m 2,8,-1
 403 1772 l 1,9,10
 425 1763 425 1763 468 1633 c 1,11,-1
 457 1622 l 1,12,-1
 446 1622 l 1,13,-1
 435 1633 l 1,14,-1
 435 1643 l 1,15,-1
 425 1633 l 1,16,-1
 360 1633 l 1,17,-1
 328 1665 l 1,18,-1
 328 1708 l 1,19,20
 335 1772 335 1772 360 1772 c 2,8,-1
327 1416 m 1,21,22
 434 1416 434 1416 495 1297 c 1,23,-1
 525 1297 l 1,24,-1
 525 1277 l 1,25,-1
 495 1277 l 1,26,27
 515 1239 515 1239 515 1168 c 1,28,-1
 476 386 l 1,29,-1
 476 228 l 1,30,-1
 486 228 l 1,31,-1
 495 238 l 1,32,-1
 505 238 l 1,33,-1
 515 228 l 1,34,-1
 515 218 l 1,35,-1
 486 208 l 1,36,-1
 486 198 l 2,37,38
 486 144 486 144 535 119 c 1,39,40
 535 158 535 158 555 158 c 256,41,42
 575 158 575 158 575 109 c 1,43,-1
 604 79 l 1,44,-1
 604 40 l 1,45,46
 588 0 588 0 535 0 c 2,47,-1
 505 0 l 1,48,49
 406 53 406 53 406 109 c 1,50,51
 301 20 301 20 248 20 c 2,52,-1
 238 20 l 2,53,54
 154 20 154 20 109 208 c 1,55,56
 60 208 60 208 60 228 c 2,57,-1
 60 238 l 2,58,59
 60 262 60 262 99 267 c 1,60,-1
 99 277 l 2,61,62
 99 548 99 548 228 683 c 1,63,64
 277 799 277 799 446 990 c 1,65,-1
 446 1129 l 1,66,67
 387 1347 387 1347 297 1347 c 2,68,-1
 179 1347 l 2,69,70
 153 1347 153 1347 139 1267 c 1,71,-1
 139 1258 l 1,72,-1
 149 1267 l 1,73,-1
 159 1267 l 1,74,-1
 179 1248 l 1,75,-1
 169 1238 l 1,76,-1
 189 1178 l 1,77,78
 189 1115 189 1115 99 1099 c 1,79,-1
 50 1168 l 1,80,81
 50 1406 50 1406 218 1406 c 1,82,-1
 327 1416 l 1,21,22
60 1109 m 1,83,-1
 80 1089 l 1,84,-1
 60 1069 l 1,85,-1
 40 1069 l 1,86,-1
 40 1089 l 1,87,-1
 60 1109 l 1,83,-1
387 792 m 1,88,-1
 307 614 l 1,89,90
 307 584 307 584 288 584 c 1,91,-1
 297 535 l 1,92,93
 274 465 274 465 248 465 c 1,94,-1
 248 446 l 1,95,96
 218 313 218 313 218 149 c 1,97,98
 248 149 248 149 248 99 c 1,99,-1
 268 99 l 1,100,-1
 307 158 l 1,101,-1
 317 158 l 1,102,-1
 337 139 l 1,103,104
 337 178 337 178 377 178 c 1,105,-1
 377 188 l 1,106,107
 347 188 347 188 347 208 c 1,108,-1
 367 228 l 1,109,-1
 387 228 l 1,110,-1
 387 198 l 1,111,-1
 396 198 l 1,112,-1
 396 792 l 1,113,-1
 387 792 l 1,88,-1
EndSplineSet
EndChar

StartChar: ccedilla
Encoding: 231 231 166
Width: 505
GlyphClass: 2
Flags: W
LayerCount: 2
Fore
SplineSet
276 -52 m 1,0,-1
 311 -52 l 1,1,2
 354 -74 354 -74 354 -120 c 2,3,-1
 354 -164 l 2,4,5
 354 -235 354 -235 294 -276 c 1,6,-1
 276 -276 l 1,7,-1
 268 -215 l 1,8,-1
 276 -164 l 1,9,-1
 242 -129 l 1,10,-1
 242 -112 l 2,11,12
 242 -66 242 -66 276 -52 c 1,0,-1
303 1393 m 1,13,14
 374 1393 374 1393 425 1150 c 1,15,-1
 435 1150 l 1,16,17
 425 1049 425 1049 405 1049 c 2,18,-1
 354 1049 l 1,19,-1
 324 1079 l 1,20,-1
 324 1120 l 1,21,22
 326 1170 326 1170 344 1170 c 1,23,24
 334 1332 334 1332 303 1332 c 2,25,-1
 283 1332 l 1,26,27
 202 1181 202 1181 202 1008 c 2,28,-1
 202 836 l 1,29,-1
 192 643 l 1,30,-1
 202 613 l 1,31,-1
 192 603 l 1,32,-1
 192 593 l 1,33,-1
 202 552 l 1,34,-1
 192 522 l 1,35,-1
 202 461 l 1,36,-1
 202 441 l 1,37,-1
 192 431 l 1,38,-1
 212 400 l 1,39,-1
 192 299 l 1,40,41
 211 56 211 56 324 56 c 2,42,-1
 334 56 l 1,43,44
 377 72 377 72 415 188 c 1,45,-1
 405 218 l 1,46,-1
 415 228 l 1,47,48
 381 228 381 228 364 279 c 1,49,50
 385 340 385 340 405 340 c 2,51,-1
 435 340 l 1,52,53
 465 329 465 329 465 279 c 2,54,-1
 465 238 l 2,55,56
 465 30 465 30 313 -15 c 1,57,-1
 243 -15 l 1,58,59
 40 114 40 114 40 724 c 2,60,-1
 40 795 l 2,61,62
 40 1234 40 1234 212 1363 c 1,63,-1
 303 1393 l 1,13,14
EndSplineSet
EndChar

StartChar: egrave
Encoding: 232 232 167
Width: 519
GlyphClass: 2
Flags: W
LayerCount: 2
Fore
SplineSet
303 1408 m 1,0,1
 374 1408 374 1408 425 1165 c 1,2,-1
 435 1165 l 1,3,4
 425 1064 425 1064 405 1064 c 2,5,-1
 354 1064 l 1,6,-1
 324 1094 l 1,7,-1
 324 1135 l 1,8,9
 326 1185 326 1185 344 1185 c 1,10,11
 334 1347 334 1347 303 1347 c 2,12,-1
 283 1347 l 1,13,14
 202 1196 202 1196 202 1023 c 2,15,-1
 202 851 l 1,16,-1
 192 658 l 1,17,-1
 202 628 l 1,18,-1
 192 618 l 1,19,-1
 192 608 l 1,20,-1
 202 567 l 1,21,-1
 192 537 l 1,22,-1
 202 476 l 1,23,-1
 202 456 l 1,24,-1
 192 446 l 1,25,-1
 212 415 l 1,26,-1
 192 314 l 1,27,28
 211 71 211 71 324 71 c 2,29,-1
 334 71 l 1,30,31
 377 87 377 87 415 203 c 1,32,-1
 405 233 l 1,33,-1
 415 243 l 1,34,35
 381 243 381 243 364 294 c 1,36,37
 385 355 385 355 405 355 c 2,38,-1
 435 355 l 1,39,40
 465 344 465 344 465 294 c 2,41,-1
 465 253 l 2,42,43
 465 45 465 45 313 0 c 1,44,-1
 243 0 l 1,45,46
 40 129 40 129 40 739 c 2,47,-1
 40 810 l 2,48,49
 40 1249 40 1249 212 1378 c 1,50,-1
 303 1408 l 1,0,1
117 1616 m 1,51,-1
 165 1561 l 1,52,-1
 228 1514 l 1,53,-1
 297 1513 l 1,54,-1
 342 1514 l 1,55,-1
 400 1561 l 1,56,57
 450 1606 450 1606 440 1646 c 0,58,59
 431 1682 431 1682 399 1647 c 1,60,-1
 333 1600 l 1,61,62
 313 1598 313 1598 273 1594 c 1,63,-1
 198 1641 l 1,64,65
 175 1666 175 1666 119 1700 c 0,66,67
 71 1730 71 1730 117 1616 c 1,51,-1
EndSplineSet
EndChar

StartChar: eacute
Encoding: 233 233 168
Width: 466
GlyphClass: 2
Flags: W
LayerCount: 2
Fore
SplineSet
356 1714 m 1,0,-1
 355 1708 l 1,1,2
 339 1641 339 1641 115 1586 c 1,3,-1
 85 1593 l 1,4,-1
 71 1615 l 1,5,6
 76 1635 76 1635 217 1747 c 1,7,8
 224 1775 224 1775 301 1778 c 1,9,10
 328 1772 328 1772 356 1714 c 1,0,-1
219 1401 m 1,11,12
 254 1401 254 1401 308 1312 c 1,13,-1
 337 1332 l 1,14,-1
 347 1332 l 1,15,-1
 367 1312 l 1,16,-1
 367 1283 l 1,17,-1
 357 1283 l 1,18,-1
 328 1292 l 1,19,-1
 328 1283 l 1,20,21
 365 1236 365 1236 387 799 c 1,22,23
 387 681 387 681 288 681 c 2,24,-1
 150 681 l 1,25,26
 150 59 150 59 249 59 c 0,27,28
 308 59 308 59 347 247 c 1,29,-1
 328 266 l 1,30,31
 328 286 328 286 357 286 c 1,32,-1
 357 316 l 1,33,-1
 367 365 l 1,34,35
 337 365 337 365 337 385 c 2,36,-1
 337 395 l 1,37,-1
 357 414 l 1,38,-1
 377 414 l 1,39,-1
 426 405 l 1,40,-1
 426 385 l 1,41,-1
 377 148 l 1,42,43
 295 0 295 0 219 0 c 0,44,45
 76 0 76 0 51 720 c 1,46,47
 92 1352 92 1352 140 1352 c 1,48,49
 140 1377 140 1377 219 1401 c 1,11,12
229 1342 m 1,50,51
 150 1012 150 1012 150 809 c 2,52,-1
 150 730 l 1,53,-1
 160 730 l 1,54,-1
 229 760 l 1,55,-1
 239 750 l 1,56,-1
 249 750 l 2,57,58
 300 750 300 750 328 809 c 1,59,-1
 328 996 l 2,60,61
 328 1188 328 1188 249 1342 c 1,62,-1
 229 1342 l 1,50,51
EndSplineSet
EndChar

StartChar: edieresis
Encoding: 235 235 170
Width: 466
GlyphClass: 2
Flags: W
LayerCount: 2
Fore
SplineSet
219 1401 m 1,0,1
 254 1401 254 1401 308 1312 c 1,2,-1
 337 1332 l 1,3,-1
 347 1332 l 1,4,-1
 367 1312 l 1,5,-1
 367 1283 l 1,6,-1
 357 1283 l 1,7,-1
 328 1292 l 1,8,-1
 328 1283 l 1,9,10
 365 1236 365 1236 387 799 c 1,11,12
 387 681 387 681 288 681 c 2,13,-1
 150 681 l 1,14,15
 150 59 150 59 249 59 c 0,16,17
 308 59 308 59 347 247 c 1,18,-1
 328 266 l 1,19,20
 328 286 328 286 357 286 c 1,21,-1
 357 316 l 1,22,-1
 367 365 l 1,23,24
 337 365 337 365 337 385 c 2,25,-1
 337 395 l 1,26,-1
 357 414 l 1,27,-1
 377 414 l 1,28,-1
 426 405 l 1,29,-1
 426 385 l 1,30,-1
 377 148 l 1,31,32
 295 0 295 0 219 0 c 0,33,34
 76 0 76 0 51 720 c 1,35,36
 92 1352 92 1352 140 1352 c 1,37,38
 140 1377 140 1377 219 1401 c 1,0,1
229 1342 m 1,39,40
 150 1012 150 1012 150 809 c 2,41,-1
 150 730 l 1,42,-1
 160 730 l 1,43,-1
 229 760 l 1,44,-1
 239 750 l 1,45,-1
 249 750 l 2,46,47
 300 750 300 750 328 809 c 1,48,-1
 328 996 l 2,49,50
 328 1188 328 1188 249 1342 c 1,51,-1
 229 1342 l 1,39,40
131 1726 m 1,52,-1
 174 1726 l 2,53,54
 195 1726 195 1726 217 1662 c 1,55,56
 203 1576 203 1576 131 1576 c 1,57,58
 78 1631 78 1631 78 1672 c 1,59,-1
 131 1726 l 1,52,-1
270 1726 m 2,60,-1
 313 1726 l 1,61,62
 335 1717 335 1717 378 1587 c 1,63,-1
 367 1576 l 1,64,-1
 356 1576 l 1,65,-1
 345 1587 l 1,66,-1
 345 1597 l 1,67,-1
 335 1587 l 1,68,-1
 270 1587 l 1,69,-1
 238 1619 l 1,70,-1
 238 1662 l 1,71,72
 245 1726 245 1726 270 1726 c 2,60,-1
EndSplineSet
EndChar

StartChar: igrave
Encoding: 236 236 171
Width: 455
GlyphClass: 2
Flags: W
LayerCount: 2
Fore
SplineSet
208 1401 m 1,0,1
 243 1401 243 1401 297 1312 c 1,2,-1
 326 1332 l 1,3,-1
 336 1332 l 1,4,-1
 356 1312 l 1,5,-1
 356 1283 l 1,6,-1
 346 1283 l 1,7,-1
 316 1292 l 1,8,-1
 316 1283 l 1,9,10
 354 1236 354 1236 375 799 c 1,11,12
 375 681 375 681 277 681 c 2,13,-1
 139 681 l 1,14,15
 139 59 139 59 237 59 c 0,16,17
 297 59 297 59 336 247 c 1,18,-1
 316 266 l 1,19,20
 316 286 316 286 346 286 c 1,21,-1
 346 316 l 1,22,-1
 356 365 l 1,23,24
 326 365 326 365 326 385 c 2,25,-1
 326 395 l 1,26,-1
 346 414 l 1,27,-1
 366 414 l 1,28,-1
 415 405 l 1,29,-1
 415 385 l 1,30,-1
 366 148 l 1,31,32
 284 0 284 0 208 0 c 0,33,34
 65 0 65 0 40 720 c 1,35,36
 81 1352 81 1352 129 1352 c 1,37,38
 129 1377 129 1377 208 1401 c 1,0,1
218 1342 m 1,39,40
 139 1012 139 1012 139 809 c 2,41,-1
 139 730 l 1,42,-1
 149 730 l 1,43,-1
 218 760 l 1,44,-1
 227 750 l 1,45,-1
 237 750 l 2,46,47
 289 750 289 750 316 809 c 1,48,-1
 316 996 l 2,49,50
 316 1188 316 1188 237 1342 c 1,51,-1
 218 1342 l 1,39,40
63 1619 m 1,52,-1
 111 1564 l 1,53,-1
 174 1517 l 1,54,-1
 243 1516 l 1,55,-1
 288 1517 l 1,56,-1
 346 1564 l 1,57,58
 396 1609 396 1609 386 1649 c 0,59,60
 377 1685 377 1685 345 1650 c 1,61,-1
 279 1603 l 1,62,63
 259 1601 259 1601 219 1597 c 1,64,-1
 144 1644 l 1,65,66
 121 1669 121 1669 65 1703 c 0,67,68
 17 1733 17 1733 63 1619 c 1,52,-1
EndSplineSet
EndChar

StartChar: iacute
Encoding: 237 237 172
Width: 365
GlyphClass: 2
Flags: W
LayerCount: 2
Fore
SplineSet
100 1396 m 1,0,-1
 129 1396 l 2,1,2
 197 1396 197 1396 235 1377 c 1,3,-1
 245 1387 l 1,4,-1
 254 1377 l 1,5,-1
 254 1358 l 1,6,-1
 235 1339 l 1,7,-1
 245 1223 l 1,8,-1
 225 732 l 1,9,-1
 245 713 l 1,10,-1
 225 684 l 1,11,-1
 235 549 l 1,12,-1
 225 491 l 1,13,-1
 235 433 l 1,14,15
 206 433 206 433 206 327 c 2,16,-1
 206 221 l 1,17,-1
 216 183 l 1,18,-1
 206 173 l 1,19,-1
 216 106 l 1,20,-1
 216 58 l 1,21,22
 264 55 264 55 264 29 c 2,23,-1
 264 19 l 1,24,-1
 245 0 l 1,25,-1
 216 0 l 1,26,-1
 206 10 l 1,27,-1
 196 0 l 1,28,-1
 129 0 l 2,29,30
 79 0 79 0 71 29 c 1,31,-1
 71 39 l 2,32,33
 71 58 71 58 129 58 c 1,34,-1
 129 67 l 1,35,-1
 119 193 l 1,36,-1
 129 289 l 1,37,-1
 119 385 l 1,38,-1
 129 520 l 1,39,-1
 119 636 l 1,40,41
 139 636 139 636 139 664 c 2,42,-1
 148 1290 l 2,43,44
 148 1316 148 1316 81 1329 c 1,45,-1
 81 1377 l 1,46,-1
 100 1396 l 1,0,-1
322 1693 m 1,47,-1
 321 1687 l 1,48,49
 305 1620 305 1620 81 1565 c 1,50,-1
 51 1572 l 1,51,-1
 37 1594 l 1,52,53
 42 1614 42 1614 183 1726 c 1,54,55
 190 1754 190 1754 267 1757 c 1,56,57
 294 1751 294 1751 322 1693 c 1,47,-1
EndSplineSet
EndChar

StartChar: icircumflex
Encoding: 238 238 173
Width: 365
GlyphClass: 2
Flags: W
LayerCount: 2
Fore
SplineSet
53 1654 m 1,0,-1
 83 1683 l 1,1,-1
 129 1730 l 1,2,-1
 179 1788 l 1,3,-1
 232 1724 l 1,4,-1
 275 1679 l 1,5,6
 311 1649 311 1649 311 1627 c 1,7,8
 331 1617 331 1617 315 1594 c 1,9,10
 297 1582 297 1582 267 1603 c 1,11,-1
 225 1654 l 1,12,13
 193 1680 193 1680 177 1694 c 1,14,-1
 144 1663 l 1,15,16
 81 1590 81 1590 55 1592 c 1,17,18
 47 1585 47 1585 29 1611 c 1,19,20
 37 1618 37 1618 53 1654 c 1,0,-1
100 1396 m 1,21,-1
 129 1396 l 2,22,23
 197 1396 197 1396 235 1377 c 1,24,-1
 245 1387 l 1,25,-1
 254 1377 l 1,26,-1
 254 1358 l 1,27,-1
 235 1339 l 1,28,-1
 245 1223 l 1,29,-1
 225 732 l 1,30,-1
 245 713 l 1,31,-1
 225 684 l 1,32,-1
 235 549 l 1,33,-1
 225 491 l 1,34,-1
 235 433 l 1,35,36
 206 433 206 433 206 327 c 2,37,-1
 206 221 l 1,38,-1
 216 183 l 1,39,-1
 206 173 l 1,40,-1
 216 106 l 1,41,-1
 216 58 l 1,42,43
 264 55 264 55 264 29 c 2,44,-1
 264 19 l 1,45,-1
 245 0 l 1,46,-1
 216 0 l 1,47,-1
 206 10 l 1,48,-1
 196 0 l 1,49,-1
 129 0 l 2,50,51
 79 0 79 0 71 29 c 1,52,-1
 71 39 l 2,53,54
 71 58 71 58 129 58 c 1,55,-1
 129 67 l 1,56,-1
 119 193 l 1,57,-1
 129 289 l 1,58,-1
 119 385 l 1,59,-1
 129 520 l 1,60,-1
 119 636 l 1,61,62
 139 636 139 636 139 664 c 2,63,-1
 148 1290 l 2,64,65
 148 1316 148 1316 81 1329 c 1,66,-1
 81 1377 l 1,67,-1
 100 1396 l 1,21,-1
EndSplineSet
EndChar

StartChar: idieresis
Encoding: 239 239 174
Width: 721
GlyphClass: 2
Flags: W
LayerCount: 2
Fore
SplineSet
339 1873 m 1,0,-1
 416 1873 l 1,1,-1
 433 1856 l 1,2,-1
 442 1753 l 1,3,-1
 433 1386 l 1,4,-1
 433 1009 l 1,5,-1
 425 889 l 1,6,7
 425 508 425 508 485 94 c 1,8,9
 519 94 519 94 519 77 c 2,10,-1
 519 68 l 1,11,-1
 510 60 l 1,12,-1
 510 51 l 1,13,-1
 527 34 l 1,14,-1
 527 26 l 2,15,16
 527 5 527 5 442 0 c 1,17,18
 382 0 382 0 382 86 c 0,19,20
 382 120 382 120 365 120 c 1,21,22
 291 0 291 0 237 0 c 0,23,24
 113 0 113 0 66 214 c 1,25,-1
 40 624 l 1,26,27
 40 792 40 792 66 872 c 1,28,-1
 66 1009 l 1,29,30
 101 1189 101 1189 185 1189 c 0,31,32
 290 1189 290 1189 348 1086 c 1,33,-1
 356 1086 l 1,34,-1
 356 1249 l 1,35,-1
 348 1796 l 1,36,-1
 356 1830 l 1,37,-1
 348 1822 l 1,38,-1
 322 1822 l 1,39,-1
 305 1839 l 1,40,-1
 339 1873 l 1,0,-1
134 778 m 1,41,-1
 143 753 l 1,42,-1
 126 718 l 1,43,-1
 143 667 l 1,44,-1
 134 624 l 1,45,-1
 143 573 l 1,46,-1
 126 556 l 1,47,-1
 126 479 l 1,48,-1
 168 205 l 1,49,50
 205 121 205 121 220 120 c 1,51,-1
 228 120 l 1,52,53
 353 210 353 210 365 274 c 1,54,-1
 374 949 l 1,55,-1
 365 949 l 1,56,-1
 348 966 l 1,57,-1
 356 992 l 1,58,-1
 331 1009 l 1,59,-1
 322 1001 l 1,60,-1
 305 1026 l 1,61,-1
 314 1035 l 1,62,-1
 314 1043 l 1,63,64
 271 1043 271 1043 271 1103 c 1,65,-1
 254 1103 l 1,66,-1
 254 1112 l 1,67,68
 143 1112 143 1112 143 787 c 1,69,-1
 134 778 l 1,41,-1
655 1809 m 1,70,-1
 654 1803 l 1,71,72
 638 1736 638 1736 615 1667 c 1,73,-1
 598 1635 l 1,74,-1
 567 1589 l 1,75,76
 556 1589 556 1589 551 1602 c 1,77,78
 540 1605 540 1605 550 1638 c 1,79,80
 549 1644 549 1644 555 1653 c 1,81,82
 563 1679 563 1679 574 1689 c 0,83,84
 612 1722 612 1722 613 1781 c 1,85,86
 568 1755 568 1755 538 1784 c 1,87,88
 514 1802 514 1802 523 1832 c 1,89,90
 530 1860 530 1860 600 1873 c 1,91,92
 627 1867 627 1867 655 1809 c 1,70,-1
EndSplineSet
EndChar

StartChar: ntilde
Encoding: 241 241 176
Width: 757
GlyphClass: 2
Flags: W
LayerCount: 2
Fore
SplineSet
166 1416 m 2,0,-1
 207 1416 l 2,1,2
 237 1416 237 1416 237 1236 c 1,3,-1
 247 1236 l 1,4,5
 334 1406 334 1406 467 1406 c 0,6,7
 565 1406 565 1406 668 1145 c 1,8,-1
 658 1135 l 1,9,-1
 668 1125 l 1,10,-1
 658 1095 l 1,11,-1
 678 865 l 1,12,-1
 668 534 l 1,13,-1
 678 73 l 1,14,-1
 658 53 l 1,15,16
 698 53 698 53 718 13 c 1,17,-1
 698 -7 l 1,18,-1
 648 -7 l 1,19,-1
 587 3 l 1,20,-1
 547 -7 l 1,21,-1
 537 3 l 1,22,-1
 537 13 l 1,23,24
 558 53 558 53 587 53 c 1,25,-1
 597 1055 l 1,26,-1
 597 1095 l 1,27,28
 554 1336 554 1336 427 1336 c 1,29,-1
 327 1296 l 1,30,31
 327 1256 327 1256 287 1256 c 1,32,33
 287 1225 287 1225 247 1196 c 1,34,-1
 257 1135 l 1,35,-1
 247 1075 l 1,36,-1
 267 1005 l 1,37,-1
 237 845 l 1,38,-1
 237 835 l 1,39,40
 267 835 267 835 267 815 c 1,41,-1
 257 805 l 1,42,-1
 247 805 l 1,43,-1
 237 815 l 1,44,-1
 237 805 l 1,45,-1
 257 384 l 1,46,-1
 257 163 l 1,47,-1
 247 93 l 1,48,49
 317 88 317 88 317 33 c 1,50,-1
 277 3 l 1,51,-1
 116 3 l 1,52,-1
 96 23 l 1,53,-1
 96 53 l 1,54,-1
 146 113 l 1,55,-1
 146 133 l 1,56,-1
 116 113 l 1,57,-1
 106 123 l 1,58,-1
 106 133 l 1,59,-1
 126 153 l 1,60,-1
 136 143 l 1,61,-1
 146 143 l 1,62,-1
 156 404 l 1,63,-1
 136 1326 l 1,64,65
 56 1336 56 1336 56 1366 c 2,66,-1
 56 1386 l 2,67,68
 56 1416 56 1416 166 1416 c 2,0,-1
40 1298 m 1,69,-1
 50 1298 l 1,70,-1
 70 1278 l 1,71,-1
 60 1268 l 1,72,-1
 40 1268 l 1,73,-1
 40 1298 l 1,69,-1
382 1679 m 1,74,75
 417 1679 417 1679 483 1615 c 1,76,-1
 493 1615 l 1,77,-1
 548 1661 l 1,78,79
 566 1661 566 1661 566 1633 c 1,80,81
 527 1550 527 1550 474 1550 c 1,82,-1
 345 1596 l 1,83,-1
 309 1596 l 2,84,85
 291 1596 291 1596 272 1541 c 1,86,-1
 263 1541 l 1,87,-1
 244 1559 l 1,88,89
 244 1653 244 1653 382 1679 c 1,74,75
474 1670 m 1,90,-1
 483 1670 l 1,91,-1
 483 1642 l 1,92,-1
 456 1642 l 1,93,-1
 456 1651 l 1,94,-1
 474 1670 l 1,90,-1
EndSplineSet
EndChar

StartChar: ograve
Encoding: 242 242 177
Width: 771
GlyphClass: 2
Flags: W
LayerCount: 2
Fore
SplineSet
150 1423 m 2,0,-1
 190 1423 l 2,1,2
 220 1423 220 1423 220 1243 c 1,3,-1
 230 1243 l 1,4,5
 317 1413 317 1413 451 1413 c 0,6,7
 549 1413 549 1413 651 1152 c 1,8,-1
 641 1142 l 1,9,-1
 651 1132 l 1,10,-1
 641 1102 l 1,11,-1
 661 872 l 1,12,-1
 651 541 l 1,13,-1
 661 80 l 1,14,-1
 641 60 l 1,15,16
 681 60 681 60 701 20 c 1,17,-1
 681 0 l 1,18,-1
 631 0 l 1,19,-1
 571 10 l 1,20,-1
 531 0 l 1,21,-1
 521 10 l 1,22,-1
 521 20 l 1,23,24
 542 60 542 60 571 60 c 1,25,-1
 581 1062 l 1,26,-1
 581 1102 l 1,27,28
 538 1343 538 1343 411 1343 c 1,29,-1
 311 1303 l 1,30,31
 311 1263 311 1263 270 1263 c 1,32,33
 270 1232 270 1232 230 1203 c 1,34,-1
 240 1142 l 1,35,-1
 230 1082 l 1,36,-1
 250 1012 l 1,37,-1
 220 852 l 1,38,-1
 220 842 l 1,39,40
 250 842 250 842 250 822 c 1,41,-1
 240 812 l 1,42,-1
 230 812 l 1,43,-1
 220 822 l 1,44,-1
 220 812 l 1,45,-1
 240 391 l 1,46,-1
 240 170 l 1,47,-1
 230 100 l 1,48,49
 301 95 301 95 301 40 c 1,50,-1
 260 10 l 1,51,-1
 100 10 l 1,52,-1
 80 30 l 1,53,-1
 80 60 l 1,54,-1
 130 120 l 1,55,-1
 130 140 l 1,56,-1
 100 120 l 1,57,-1
 90 130 l 1,58,-1
 90 140 l 1,59,-1
 110 160 l 1,60,-1
 120 150 l 1,61,-1
 130 150 l 1,62,-1
 140 411 l 1,63,-1
 120 1333 l 1,64,65
 40 1343 40 1343 40 1373 c 2,66,-1
 40 1393 l 2,67,68
 40 1423 40 1423 150 1423 c 2,0,-1
391 1313 m 1,69,-1
 401 1313 l 1,70,-1
 421 1293 l 1,71,-1
 411 1283 l 1,72,-1
 391 1283 l 1,73,-1
 391 1313 l 1,69,-1
225 1673 m 1,74,-1
 273 1618 l 1,75,-1
 336 1571 l 1,76,-1
 405 1570 l 1,77,-1
 450 1571 l 1,78,-1
 508 1618 l 1,79,80
 558 1663 558 1663 548 1703 c 0,81,82
 539 1739 539 1739 507 1704 c 1,83,-1
 441 1657 l 1,84,85
 421 1655 421 1655 381 1651 c 1,86,-1
 306 1698 l 1,87,88
 283 1723 283 1723 227 1757 c 0,89,90
 179 1787 179 1787 225 1673 c 1,74,-1
EndSplineSet
EndChar

StartChar: oacute
Encoding: 243 243 178
Width: 496
GlyphClass: 2
Flags: W
LayerCount: 2
Fore
SplineSet
371 1726 m 1,0,-1
 370 1720 l 1,1,2
 354 1653 354 1653 130 1598 c 1,3,-1
 100 1605 l 1,4,-1
 86 1627 l 1,5,6
 90 1647 90 1647 232 1759 c 1,7,8
 239 1787 239 1787 316 1790 c 1,9,10
 343 1784 343 1784 371 1726 c 1,0,-1
223 1423 m 1,11,12
 416 1357 416 1357 416 1027 c 1,13,14
 426 708 426 708 456 499 c 1,15,-1
 446 469 l 1,16,-1
 456 408 l 1,17,18
 456 102 456 102 284 -29 c 1,19,20
 70 -29 70 -29 70 235 c 1,21,22
 50 341 50 341 40 661 c 1,23,24
 40 1413 40 1413 202 1413 c 1,25,-1
 213 1423 l 1,26,-1
 223 1423 l 1,11,12
101 733 m 1,27,28
 131 73 131 73 182 73 c 1,29,30
 189 42 189 42 243 22 c 1,31,32
 314 42 314 42 314 103 c 2,33,-1
 314 123 l 1,34,-1
 304 133 l 1,35,-1
 304 144 l 1,36,37
 348 144 348 144 355 1007 c 1,38,39
 306 1362 306 1362 223 1362 c 2,40,-1
 213 1362 l 2,41,42
 130 1362 130 1362 101 733 c 1,27,28
EndSplineSet
EndChar

StartChar: ocircumflex
Encoding: 244 244 179
Width: 496
GlyphClass: 2
Flags: W
LayerCount: 2
Fore
SplineSet
223 1423 m 1,0,1
 416 1357 416 1357 416 1027 c 1,2,3
 426 708 426 708 456 499 c 1,4,-1
 446 469 l 1,5,-1
 456 408 l 1,6,7
 456 102 456 102 284 -29 c 1,8,9
 70 -29 70 -29 70 235 c 1,10,11
 50 341 50 341 40 661 c 1,12,13
 40 1413 40 1413 202 1413 c 1,14,-1
 213 1423 l 1,15,-1
 223 1423 l 1,0,1
101 733 m 1,16,17
 131 73 131 73 182 73 c 1,18,19
 189 42 189 42 243 22 c 1,20,21
 314 42 314 42 314 103 c 2,22,-1
 314 123 l 1,23,-1
 304 133 l 1,24,-1
 304 144 l 1,25,26
 348 144 348 144 355 1007 c 1,27,28
 306 1362 306 1362 223 1362 c 2,29,-1
 213 1362 l 2,30,31
 130 1362 130 1362 101 733 c 1,16,17
105 1630 m 1,32,-1
 135 1659 l 1,33,-1
 181 1706 l 1,34,-1
 231 1764 l 1,35,-1
 284 1700 l 1,36,-1
 327 1655 l 1,37,38
 363 1625 363 1625 363 1603 c 1,39,40
 383 1593 383 1593 367 1570 c 1,41,42
 349 1558 349 1558 319 1579 c 1,43,-1
 277 1630 l 1,44,45
 245 1656 245 1656 229 1670 c 1,46,-1
 196 1639 l 1,47,48
 133 1566 133 1566 107 1568 c 1,49,50
 99 1561 99 1561 81 1587 c 1,51,52
 89 1594 89 1594 105 1630 c 1,32,-1
EndSplineSet
EndChar

StartChar: odieresis
Encoding: 246 246 181
Width: 499
GlyphClass: 2
Flags: W
LayerCount: 2
Fore
SplineSet
223 1423 m 1,0,1
 416 1357 416 1357 416 1027 c 1,2,3
 426 708 426 708 456 499 c 1,4,-1
 446 469 l 1,5,-1
 456 408 l 1,6,7
 456 102 456 102 284 -29 c 1,8,9
 70 -29 70 -29 70 235 c 1,10,11
 50 341 50 341 40 661 c 1,12,13
 40 1413 40 1413 202 1413 c 1,14,-1
 213 1423 l 1,15,-1
 223 1423 l 1,0,1
101 733 m 1,16,17
 131 73 131 73 182 73 c 1,18,19
 189 42 189 42 243 22 c 1,20,21
 314 42 314 42 314 103 c 2,22,-1
 314 123 l 1,23,-1
 304 133 l 1,24,-1
 304 144 l 1,25,26
 348 144 348 144 355 1007 c 1,27,28
 306 1362 306 1362 223 1362 c 2,29,-1
 213 1362 l 2,30,31
 130 1362 130 1362 101 733 c 1,16,17
129 1717 m 1,32,-1
 172 1717 l 2,33,34
 193 1717 193 1717 215 1653 c 1,35,36
 201 1567 201 1567 129 1567 c 1,37,38
 76 1622 76 1622 76 1663 c 1,39,-1
 129 1717 l 1,32,-1
268 1717 m 2,40,-1
 311 1717 l 1,41,42
 333 1708 333 1708 376 1578 c 1,43,-1
 365 1567 l 1,44,-1
 354 1567 l 1,45,-1
 343 1578 l 1,46,-1
 343 1588 l 1,47,-1
 333 1578 l 1,48,-1
 268 1578 l 1,49,-1
 236 1610 l 1,50,-1
 236 1653 l 1,51,52
 243 1717 243 1717 268 1717 c 2,40,-1
EndSplineSet
EndChar

StartChar: oslash
Encoding: 248 248 183
Width: 479
GlyphClass: 2
Flags: W
LayerCount: 2
Fore
SplineSet
80 1423 m 1,0,1
 190 1423 190 1423 190 1353 c 2,2,-1
 190 1293 l 1,3,-1
 200 1293 l 1,4,5
 232 1413 232 1413 339 1413 c 1,6,7
 439 1379 439 1379 439 1273 c 2,8,-1
 439 1213 l 1,9,-1
 409 1184 l 1,10,-1
 389 1184 l 1,11,-1
 359 1213 l 1,12,-1
 359 1233 l 1,13,-1
 379 1313 l 1,14,-1
 369 1353 l 1,15,-1
 299 1353 l 2,16,17
 239 1353 239 1353 200 1114 c 1,18,-1
 210 465 l 1,19,-1
 200 226 l 1,20,-1
 210 216 l 1,21,-1
 220 216 l 1,22,-1
 210 146 l 1,23,-1
 210 126 l 1,24,-1
 230 86 l 1,25,-1
 220 76 l 1,26,-1
 220 56 l 1,27,-1
 230 56 l 1,28,-1
 230 76 l 1,29,-1
 240 66 l 1,30,-1
 250 66 l 1,31,-1
 240 56 l 1,32,-1
 250 6 l 1,33,-1
 240 -4 l 1,34,-1
 240 -14 l 1,35,-1
 190 -4 l 1,36,-1
 110 -4 l 1,37,-1
 80 26 l 1,38,39
 80 51 80 51 120 56 c 1,40,-1
 120 86 l 1,41,-1
 110 1184 l 1,42,43
 80 1184 80 1184 80 1203 c 0,44,45
 80 1223 80 1223 110 1223 c 1,46,-1
 110 1313 l 1,47,-1
 40 1373 l 1,48,-1
 40 1393 l 2,49,50
 40 1408 40 1408 80 1423 c 1,0,1
270 1303 m 1,51,-1
 299 1303 l 1,52,-1
 299 1273 l 1,53,-1
 289 1273 l 1,54,-1
 270 1293 l 1,55,-1
 270 1303 l 1,51,-1
67 1628 m 1,56,-1
 115 1573 l 1,57,-1
 178 1526 l 1,58,-1
 247 1525 l 1,59,-1
 292 1526 l 1,60,-1
 350 1573 l 1,61,62
 400 1618 400 1618 390 1658 c 0,63,64
 381 1694 381 1694 349 1659 c 1,65,-1
 283 1612 l 1,66,67
 263 1610 263 1610 223 1606 c 1,68,-1
 148 1653 l 1,69,70
 125 1678 125 1678 69 1712 c 0,71,72
 21 1742 21 1742 67 1628 c 1,56,-1
EndSplineSet
EndChar

StartChar: ugrave
Encoding: 249 249 184
Width: 544
GlyphClass: 2
Flags: W
LayerCount: 2
Fore
SplineSet
79 1416 m 1,0,-1
 149 1416 l 1,1,-1
 188 1377 l 1,2,-1
 188 1367 l 2,3,4
 188 1347 188 1347 158 1347 c 1,5,-1
 168 1100 l 1,6,-1
 158 972 l 1,7,-1
 168 932 l 1,8,-1
 149 913 l 1,9,-1
 139 518 l 1,10,11
 139 44 139 44 208 44 c 1,12,-1
 247 34 l 1,13,14
 356 101 356 101 356 478 c 1,15,-1
 336 547 l 1,16,-1
 326 1041 l 1,17,-1
 336 1396 l 1,18,-1
 346 1406 l 1,19,-1
 425 1406 l 1,20,-1
 445 1386 l 1,21,-1
 445 1357 l 2,22,23
 445 1327 445 1327 405 1327 c 1,24,-1
 405 1100 l 1,25,-1
 395 1011 l 1,26,27
 415 782 415 782 425 44 c 1,28,-1
 435 34 l 1,29,-1
 445 34 l 1,30,-1
 494 44 l 1,31,-1
 504 34 l 1,32,-1
 504 4 l 1,33,-1
 484 -15 l 1,34,-1
 395 -15 l 2,35,36
 369 -15 369 -15 366 34 c 1,37,38
 303 -15 303 -15 247 -15 c 0,39,40
 126 -15 126 -15 99 143 c 1,41,42
 79 271 79 271 79 488 c 2,43,-1
 79 952 l 1,44,-1
 70 1100 l 1,45,-1
 79 1219 l 1,46,-1
 79 1327 l 2,47,48
 79 1347 79 1347 40 1347 c 1,49,50
 40 1400 40 1400 79 1416 c 1,0,-1
212 1726 m 1,51,52
 186 1693 186 1693 175 1640 c 1,53,54
 173 1622 173 1622 189 1595 c 1,55,56
 206 1582 206 1582 238 1574 c 1,57,58
 272 1570 272 1570 283 1572 c 0,59,60
 304 1574 304 1574 326 1588 c 128,-1,61
 348 1602 348 1602 348 1605 c 0,62,63
 350 1615 350 1615 349 1630.5 c 128,-1,64
 348 1646 348 1646 345 1655 c 1,65,66
 345 1664 345 1664 344.5 1680.5 c 128,-1,67
 344 1697 344 1697 335 1700 c 1,68,69
 311 1722 311 1722 281 1728 c 1,70,-1
 238 1731 l 1,71,-1
 243 1707 l 1,72,-1
 286 1702 l 1,73,74
 311 1695 311 1695 313 1688 c 1,75,76
 317 1685 317 1685 320 1646 c 1,77,78
 323 1627 323 1627 307 1606 c 1,79,-1
 268 1595 l 1,80,81
 237 1595 237 1595 221 1610 c 128,-1,82
 205 1625 205 1625 206 1638 c 1,83,-1
 214 1676 l 1,84,-1
 227 1700 l 1,85,-1
 243 1707 l 1,86,-1
 240 1722 l 1,87,-1
 238 1731 l 1,88,-1
 212 1726 l 1,51,52
EndSplineSet
EndChar

StartChar: uacute
Encoding: 250 250 185
Width: 544
GlyphClass: 2
Flags: W
LayerCount: 2
Fore
SplineSet
79 1416 m 1,0,-1
 149 1416 l 1,1,-1
 188 1377 l 1,2,-1
 188 1367 l 2,3,4
 188 1347 188 1347 158 1347 c 1,5,-1
 168 1100 l 1,6,-1
 158 972 l 1,7,-1
 168 932 l 1,8,-1
 149 913 l 1,9,-1
 139 518 l 1,10,11
 139 44 139 44 208 44 c 1,12,-1
 247 34 l 1,13,14
 356 101 356 101 356 478 c 1,15,-1
 336 547 l 1,16,-1
 326 1041 l 1,17,-1
 336 1396 l 1,18,-1
 346 1406 l 1,19,-1
 425 1406 l 1,20,-1
 445 1386 l 1,21,-1
 445 1357 l 2,22,23
 445 1327 445 1327 405 1327 c 1,24,-1
 405 1100 l 1,25,-1
 395 1011 l 1,26,27
 415 782 415 782 425 44 c 1,28,-1
 435 34 l 1,29,-1
 445 34 l 1,30,-1
 494 44 l 1,31,-1
 504 34 l 1,32,-1
 504 4 l 1,33,-1
 484 -15 l 1,34,-1
 395 -15 l 2,35,36
 369 -15 369 -15 366 34 c 1,37,38
 303 -15 303 -15 247 -15 c 0,39,40
 126 -15 126 -15 99 143 c 1,41,42
 79 271 79 271 79 488 c 2,43,-1
 79 952 l 1,44,-1
 70 1100 l 1,45,-1
 79 1219 l 1,46,-1
 79 1327 l 2,47,48
 79 1347 79 1347 40 1347 c 1,49,50
 40 1400 40 1400 79 1416 c 1,0,-1
429 1789 m 1,51,-1
 429 1783 l 1,52,53
 425 1714 425 1714 214 1621 c 1,54,-1
 183 1623 l 1,55,-1
 165 1643 l 1,56,57
 166 1663 166 1663 286 1798 c 1,58,59
 288 1827 288 1827 364 1843 c 1,60,61
 392 1841 392 1841 429 1789 c 1,51,-1
EndSplineSet
EndChar

StartChar: udieresis
Encoding: 252 252 187
Width: 544
GlyphClass: 2
Flags: W
LayerCount: 2
Fore
SplineSet
79 1416 m 1,0,-1
 149 1416 l 1,1,-1
 188 1377 l 1,2,-1
 188 1367 l 2,3,4
 188 1347 188 1347 158 1347 c 1,5,-1
 168 1100 l 1,6,-1
 158 972 l 1,7,-1
 168 932 l 1,8,-1
 149 913 l 1,9,-1
 139 518 l 1,10,11
 139 44 139 44 208 44 c 1,12,-1
 247 34 l 1,13,14
 356 101 356 101 356 478 c 1,15,-1
 336 547 l 1,16,-1
 326 1041 l 1,17,-1
 336 1396 l 1,18,-1
 346 1406 l 1,19,-1
 425 1406 l 1,20,-1
 445 1386 l 1,21,-1
 445 1357 l 2,22,23
 445 1327 445 1327 405 1327 c 1,24,-1
 405 1100 l 1,25,-1
 395 1011 l 1,26,27
 415 782 415 782 425 44 c 1,28,-1
 435 34 l 1,29,-1
 445 34 l 1,30,-1
 494 44 l 1,31,-1
 504 34 l 1,32,-1
 504 4 l 1,33,-1
 484 -15 l 1,34,-1
 395 -15 l 2,35,36
 369 -15 369 -15 366 34 c 1,37,38
 303 -15 303 -15 247 -15 c 0,39,40
 126 -15 126 -15 99 143 c 1,41,42
 79 271 79 271 79 488 c 2,43,-1
 79 952 l 1,44,-1
 70 1100 l 1,45,-1
 79 1219 l 1,46,-1
 79 1327 l 2,47,48
 79 1347 79 1347 40 1347 c 1,49,50
 40 1400 40 1400 79 1416 c 1,0,-1
139 1805 m 1,51,-1
 182 1805 l 2,52,53
 203 1805 203 1805 224 1740 c 1,54,55
 211 1655 211 1655 139 1655 c 1,56,57
 85 1710 85 1710 85 1751 c 1,58,-1
 139 1805 l 1,51,-1
278 1805 m 2,59,-1
 321 1805 l 1,60,61
 343 1796 343 1796 385 1665 c 1,62,-1
 374 1655 l 1,63,-1
 364 1655 l 1,64,-1
 353 1665 l 1,65,-1
 353 1676 l 1,66,-1
 342 1665 l 1,67,-1
 278 1665 l 1,68,-1
 246 1698 l 1,69,-1
 246 1740 l 1,70,71
 253 1805 253 1805 278 1805 c 2,59,-1
EndSplineSet
EndChar

StartChar: yacute
Encoding: 253 253 188
Width: 571
GlyphClass: 2
Flags: W
LayerCount: 2
Fore
SplineSet
60 1423 m 1,0,-1
 187 1423 l 1,1,-1
 207 1403 l 1,2,-1
 207 1394 l 2,3,4
 207 1364 207 1364 168 1364 c 1,5,-1
 187 1335 l 1,6,-1
 158 1335 l 1,7,-1
 158 1364 l 1,8,-1
 138 1364 l 1,9,-1
 138 1354 l 1,10,-1
 325 775 l 1,11,-1
 334 775 l 1,12,-1
 403 1364 l 1,13,-1
 374 1394 l 1,14,15
 374 1410 374 1410 442 1423 c 1,16,17
 531 1411 531 1411 531 1384 c 0,18,19
 531 1364 531 1364 482 1364 c 1,20,21
 442 1231 442 1231 423 991 c 1,22,-1
 442 972 l 1,23,-1
 442 962 l 1,24,-1
 413 962 l 1,25,-1
 383 667 l 1,26,-1
 393 599 l 1,27,-1
 383 363 l 1,28,-1
 383 353 l 2,29,30
 383 292 383 292 413 216 c 1,31,-1
 393 157 l 1,32,-1
 413 128 l 1,33,-1
 393 69 l 1,34,-1
 393 59 l 1,35,36
 433 59 433 59 433 39 c 2,37,-1
 433 20 l 1,38,-1
 413 0 l 1,39,-1
 325 0 l 2,40,41
 274 0 274 0 266 29 c 1,42,-1
 266 39 l 2,43,44
 266 59 266 59 295 59 c 1,45,-1
 305 69 l 1,46,-1
 305 79 l 1,47,-1
 315 481 l 1,48,-1
 325 530 l 1,49,-1
 295 530 l 1,50,-1
 295 540 l 2,51,52
 295 559 295 559 325 559 c 1,53,-1
 295 707 l 1,54,-1
 305 716 l 1,55,56
 290 719 290 719 148 1187 c 1,57,58
 111 1374 111 1374 40 1374 c 1,59,-1
 40 1403 l 1,60,-1
 60 1423 l 1,0,-1
431 1727 m 1,61,-1
 431 1721 l 1,62,63
 427 1652 427 1652 216 1559 c 1,64,-1
 185 1561 l 1,65,-1
 167 1581 l 1,66,67
 168 1601 168 1601 288 1736 c 1,68,69
 290 1765 290 1765 366 1781 c 1,70,71
 394 1779 394 1779 431 1727 c 1,61,-1
EndSplineSet
EndChar

StartChar: Abreve
Encoding: 258 258 193
Width: 648
GlyphClass: 2
Flags: W
LayerCount: 2
Fore
SplineSet
254 1861 m 1,0,-1
 279 1861 l 2,1,2
 340 1861 340 1861 345 1836 c 1,3,-1
 336 1812 l 1,4,5
 363 1579 363 1579 411 1350 c 1,6,-1
 402 1342 l 1,7,-1
 402 1334 l 1,8,9
 427 1334 427 1334 427 1301 c 1,10,-1
 419 1276 l 1,11,-1
 435 1136 l 1,12,-1
 435 1128 l 1,13,14
 460 1093 460 1093 460 1062 c 1,15,-1
 443 1013 l 1,16,-1
 443 996 l 1,17,-1
 493 741 l 1,18,-1
 493 733 l 1,19,-1
 476 716 l 1,20,-1
 501 527 l 1,21,22
 526 527 526 527 526 511 c 2,23,-1
 526 494 l 1,24,-1
 509 478 l 1,25,26
 561 86 561 86 575 74 c 1,27,28
 608 62 608 62 608 49 c 2,29,-1
 608 33 l 2,30,31
 608 8 608 8 476 8 c 1,32,33
 419 20 419 20 419 41 c 2,34,-1
 419 49 l 1,35,36
 435 69 435 69 443 132 c 1,37,-1
 394 502 l 1,38,-1
 386 502 l 2,39,40
 311 502 311 502 229 527 c 1,41,-1
 205 527 l 1,42,-1
 196 346 l 1,43,-1
 196 66 l 1,44,-1
 238 66 l 1,45,-1
 262 41 l 1,46,-1
 262 33 l 2,47,48
 262 6 262 6 139 0 c 1,49,50
 40 11 40 11 40 41 c 2,51,-1
 40 49 l 2,52,53
 40 63 40 63 114 107 c 1,54,55
 180 1342 180 1342 213 1597 c 1,56,-1
 205 1639 l 1,57,-1
 213 1647 l 1,58,-1
 213 1655 l 1,59,-1
 205 1663 l 1,60,-1
 205 1672 l 1,61,-1
 221 1795 l 1,62,63
 196 1795 196 1795 196 1812 c 2,64,-1
 196 1820 l 1,65,-1
 254 1861 l 1,0,-1
271 1606 m 1,66,-1
 271 1581 l 1,67,-1
 279 1581 l 1,68,-1
 279 1606 l 1,69,-1
 271 1606 l 1,66,-1
279 1548 m 1,70,71
 254 915 254 915 213 585 c 1,72,-1
 271 593 l 1,73,-1
 378 593 l 1,74,75
 346 765 346 765 312 1375 c 1,76,77
 300 1375 300 1375 287 1548 c 1,78,-1
 279 1548 l 1,70,71
336 634 m 1,79,-1
 353 618 l 1,80,-1
 345 609 l 1,81,-1
 336 609 l 1,82,-1
 328 618 l 1,83,-1
 320 618 l 1,84,-1
 312 609 l 1,85,-1
 304 618 l 1,86,-1
 304 626 l 1,87,-1
 312 634 l 1,88,-1
 336 634 l 1,79,-1
107 2034 m 1,89,-1
 155 1979 l 1,90,-1
 218 1932 l 1,91,-1
 287 1931 l 1,92,-1
 332 1932 l 1,93,-1
 390 1979 l 1,94,95
 425 2017 425 2017 449 2074 c 1,96,97
 453 2095 453 2095 450 2119 c 1,98,99
 441 2155 441 2155 409 2120 c 1,100,-1
 315 2005 l 1,101,102
 305 1987 305 1987 249 1998 c 1,103,-1
 177 2060 l 1,104,105
 159 2093 159 2093 118 2129 c 1,106,107
 70 2159 70 2159 107 2034 c 1,89,-1
EndSplineSet
EndChar

StartChar: abreve
Encoding: 259 259 194
Width: 644
GlyphClass: 2
Flags: W
LayerCount: 2
Fore
SplineSet
121 1650 m 1,0,-1
 169 1595 l 1,1,-1
 232 1548 l 1,2,-1
 301 1547 l 1,3,-1
 346 1548 l 1,4,-1
 404 1595 l 1,5,6
 439 1633 439 1633 463 1690 c 1,7,8
 467 1711 467 1711 464 1735 c 1,9,10
 455 1771 455 1771 423 1736 c 1,11,-1
 329 1621 l 1,12,13
 319 1603 319 1603 263 1614 c 1,14,-1
 191 1676 l 1,15,16
 173 1709 173 1709 132 1745 c 1,17,18
 84 1775 84 1775 121 1650 c 1,0,-1
121 1650 m 1,19,-1
 169 1595 l 1,20,-1
 232 1548 l 1,21,-1
 301 1547 l 1,22,-1
 346 1548 l 1,23,-1
 404 1595 l 1,24,25
 439 1633 439 1633 463 1690 c 1,26,27
 467 1711 467 1711 464 1735 c 1,28,29
 455 1771 455 1771 423 1736 c 1,30,-1
 329 1621 l 1,31,32
 319 1603 319 1603 263 1614 c 1,33,-1
 191 1676 l 1,34,35
 173 1709 173 1709 132 1745 c 1,36,37
 84 1775 84 1775 121 1650 c 1,19,-1
327 1416 m 1,38,39
 434 1416 434 1416 495 1297 c 1,40,-1
 525 1297 l 1,41,-1
 525 1277 l 1,42,-1
 495 1277 l 1,43,44
 515 1239 515 1239 515 1168 c 1,45,-1
 476 386 l 1,46,-1
 476 228 l 1,47,-1
 486 228 l 1,48,-1
 495 238 l 1,49,-1
 505 238 l 1,50,-1
 515 228 l 1,51,-1
 515 218 l 1,52,-1
 486 208 l 1,53,-1
 486 198 l 2,54,55
 486 144 486 144 535 119 c 1,56,57
 535 158 535 158 555 158 c 256,58,59
 575 158 575 158 575 109 c 1,60,-1
 604 79 l 1,61,-1
 604 40 l 1,62,63
 588 0 588 0 535 0 c 2,64,-1
 505 0 l 1,65,66
 406 53 406 53 406 109 c 1,67,68
 301 20 301 20 248 20 c 2,69,-1
 238 20 l 2,70,71
 154 20 154 20 109 208 c 1,72,73
 60 208 60 208 60 228 c 2,74,-1
 60 238 l 2,75,76
 60 262 60 262 99 267 c 1,77,-1
 99 277 l 2,78,79
 99 548 99 548 228 683 c 1,80,81
 277 799 277 799 446 990 c 1,82,-1
 446 1129 l 1,83,84
 387 1347 387 1347 297 1347 c 2,85,-1
 179 1347 l 2,86,87
 153 1347 153 1347 139 1267 c 1,88,-1
 139 1258 l 1,89,-1
 149 1267 l 1,90,-1
 159 1267 l 1,91,-1
 179 1248 l 1,92,-1
 169 1238 l 1,93,-1
 189 1178 l 1,94,95
 189 1115 189 1115 99 1099 c 1,96,-1
 50 1168 l 1,97,98
 50 1406 50 1406 218 1406 c 1,99,-1
 327 1416 l 1,38,39
60 1109 m 1,100,-1
 80 1089 l 1,101,-1
 60 1069 l 1,102,-1
 40 1069 l 1,103,-1
 40 1089 l 1,104,-1
 60 1109 l 1,100,-1
387 792 m 1,105,-1
 307 614 l 1,106,107
 307 584 307 584 288 584 c 1,108,-1
 297 535 l 1,109,110
 274 465 274 465 248 465 c 1,111,-1
 248 446 l 1,112,113
 218 313 218 313 218 149 c 1,114,115
 248 149 248 149 248 99 c 1,116,-1
 268 99 l 1,117,-1
 307 158 l 1,118,-1
 317 158 l 1,119,-1
 337 139 l 1,120,121
 337 178 337 178 377 178 c 1,122,-1
 377 188 l 1,123,124
 347 188 347 188 347 208 c 1,125,-1
 367 228 l 1,126,-1
 387 228 l 1,127,-1
 387 198 l 1,128,-1
 396 198 l 1,129,-1
 396 792 l 1,130,-1
 387 792 l 1,105,-1
EndSplineSet
EndChar

StartChar: Aogonek
Encoding: 260 260 195
Width: 648
GlyphClass: 2
Flags: W
LayerCount: 2
Fore
SplineSet
254 1861 m 1,0,-1
 279 1861 l 2,1,2
 340 1861 340 1861 345 1836 c 1,3,-1
 336 1812 l 1,4,5
 363 1579 363 1579 411 1350 c 1,6,-1
 402 1342 l 1,7,-1
 402 1334 l 1,8,9
 427 1334 427 1334 427 1301 c 1,10,-1
 419 1276 l 1,11,-1
 435 1136 l 1,12,-1
 435 1128 l 1,13,14
 460 1093 460 1093 460 1062 c 1,15,-1
 443 1013 l 1,16,-1
 443 996 l 1,17,-1
 493 741 l 1,18,-1
 493 733 l 1,19,-1
 476 716 l 1,20,-1
 501 527 l 1,21,22
 526 527 526 527 526 511 c 2,23,-1
 526 494 l 1,24,-1
 509 478 l 1,25,26
 561 86 561 86 575 74 c 1,27,28
 608 62 608 62 608 49 c 2,29,-1
 608 33 l 2,30,31
 608 8 608 8 476 8 c 1,32,33
 419 20 419 20 419 41 c 2,34,-1
 419 49 l 1,35,36
 435 69 435 69 443 132 c 1,37,-1
 394 502 l 1,38,-1
 386 502 l 2,39,40
 311 502 311 502 229 527 c 1,41,-1
 205 527 l 1,42,-1
 196 346 l 1,43,-1
 196 66 l 1,44,-1
 238 66 l 1,45,-1
 262 41 l 1,46,-1
 262 33 l 2,47,48
 262 6 262 6 139 0 c 1,49,50
 40 11 40 11 40 41 c 2,51,-1
 40 49 l 2,52,53
 40 63 40 63 114 107 c 1,54,55
 180 1342 180 1342 213 1597 c 1,56,-1
 205 1639 l 1,57,-1
 213 1647 l 1,58,-1
 213 1655 l 1,59,-1
 205 1663 l 1,60,-1
 205 1672 l 1,61,-1
 221 1795 l 1,62,63
 196 1795 196 1795 196 1812 c 2,64,-1
 196 1820 l 1,65,-1
 254 1861 l 1,0,-1
271 1606 m 1,66,-1
 271 1581 l 1,67,-1
 279 1581 l 1,68,-1
 279 1606 l 1,69,-1
 271 1606 l 1,66,-1
279 1548 m 1,70,71
 254 915 254 915 213 585 c 1,72,-1
 271 593 l 1,73,-1
 378 593 l 1,74,75
 346 765 346 765 312 1375 c 1,76,77
 300 1375 300 1375 287 1548 c 1,78,-1
 279 1548 l 1,70,71
336 634 m 1,79,-1
 353 618 l 1,80,-1
 345 609 l 1,81,-1
 336 609 l 1,82,-1
 328 618 l 1,83,-1
 320 618 l 1,84,-1
 312 609 l 1,85,-1
 304 618 l 1,86,-1
 304 626 l 1,87,-1
 312 634 l 1,88,-1
 336 634 l 1,79,-1
530 11 m 1,89,90
 531 12 531 12 529 10 c 1,91,92
 516 11 516 11 509 3 c 1,93,94
 465 -33 465 -33 456 -54 c 1,95,96
 423 -142 423 -142 476 -162 c 1,97,98
 556 -190 556 -190 599 -96 c 1,99,100
 605 -54 605 -54 586 -51 c 1,101,102
 590 -49 590 -49 553 -60 c 1,103,104
 507 -96 507 -96 492 -69 c 0,105,106
 490 -64 490 -64 518 -27 c 1,107,108
 552 7 552 7 535 11 c 1,109,110
 523 11 523 11 530 11 c 1,89,90
529 10 m 1,111,-1
 530 11 l 1,112,-1
 529 10 l 1,111,-1
EndSplineSet
EndChar

StartChar: aogonek
Encoding: 261 261 196
Width: 662
GlyphClass: 2
Flags: W
LayerCount: 2
Fore
SplineSet
327 1416 m 1,0,1
 434 1416 434 1416 495 1297 c 1,2,-1
 525 1297 l 1,3,-1
 525 1277 l 1,4,-1
 495 1277 l 1,5,6
 515 1239 515 1239 515 1168 c 1,7,-1
 476 386 l 1,8,-1
 476 228 l 1,9,-1
 486 228 l 1,10,-1
 495 238 l 1,11,-1
 505 238 l 1,12,-1
 515 228 l 1,13,-1
 515 218 l 1,14,-1
 486 208 l 1,15,-1
 486 198 l 2,16,17
 486 144 486 144 535 119 c 1,18,19
 535 158 535 158 555 158 c 256,20,21
 575 158 575 158 575 109 c 1,22,-1
 604 79 l 1,23,-1
 604 40 l 1,24,25
 588 0 588 0 535 0 c 2,26,-1
 505 0 l 1,27,28
 406 53 406 53 406 109 c 1,29,30
 301 20 301 20 248 20 c 2,31,-1
 238 20 l 2,32,33
 154 20 154 20 109 208 c 1,34,35
 60 208 60 208 60 228 c 2,36,-1
 60 238 l 2,37,38
 60 262 60 262 99 267 c 1,39,-1
 99 277 l 2,40,41
 99 548 99 548 228 683 c 1,42,43
 277 799 277 799 446 990 c 1,44,-1
 446 1129 l 1,45,46
 387 1347 387 1347 297 1347 c 2,47,-1
 179 1347 l 2,48,49
 153 1347 153 1347 139 1267 c 1,50,-1
 139 1258 l 1,51,-1
 149 1267 l 1,52,-1
 159 1267 l 1,53,-1
 179 1248 l 1,54,-1
 169 1238 l 1,55,-1
 189 1178 l 1,56,57
 189 1115 189 1115 99 1099 c 1,58,-1
 50 1168 l 1,59,60
 50 1406 50 1406 218 1406 c 1,61,-1
 327 1416 l 1,0,1
60 1109 m 1,62,-1
 80 1089 l 1,63,-1
 60 1069 l 1,64,-1
 40 1069 l 1,65,-1
 40 1089 l 1,66,-1
 60 1109 l 1,62,-1
387 792 m 1,67,-1
 307 614 l 1,68,69
 307 584 307 584 288 584 c 1,70,-1
 297 535 l 1,71,72
 274 465 274 465 248 465 c 1,73,-1
 248 446 l 1,74,75
 218 313 218 313 218 149 c 1,76,77
 248 149 248 149 248 99 c 1,78,-1
 268 99 l 1,79,-1
 307 158 l 1,80,-1
 317 158 l 1,81,-1
 337 139 l 1,82,83
 337 178 337 178 377 178 c 1,84,-1
 377 188 l 1,85,86
 347 188 347 188 347 208 c 1,87,-1
 367 228 l 1,88,-1
 387 228 l 1,89,-1
 387 198 l 1,90,-1
 396 198 l 1,91,-1
 396 792 l 1,92,-1
 387 792 l 1,67,-1
543 1 m 1,93,94
 544 2 544 2 542 0 c 1,95,96
 529 1 529 1 522 -7 c 1,97,98
 478 -43 478 -43 469 -64 c 1,99,100
 436 -152 436 -152 489 -172 c 1,101,102
 569 -200 569 -200 612 -106 c 1,103,104
 618 -64 618 -64 599 -61 c 1,105,106
 603 -59 603 -59 566 -70 c 1,107,108
 520 -106 520 -106 505 -79 c 0,109,110
 503 -74 503 -74 531 -37 c 1,111,112
 565 -3 565 -3 548 1 c 1,113,114
 536 1 536 1 543 1 c 1,93,94
EndSplineSet
EndChar

